<svg xmlns="http://www.w3.org/2000/svg" width="37.52" height="28.599" viewBox="0 0 37.52 28.599">
  <path id="Path_3919" data-name="Path 3919" d="M31.763,2.782A30.941,30.941,0,0,0,24.126.414.116.116,0,0,0,24,.472a21.552,21.552,0,0,0-.951,1.953,28.564,28.564,0,0,0-8.578,0A19.767,19.767,0,0,0,13.508.472a.12.12,0,0,0-.123-.058A30.855,30.855,0,0,0,5.748,2.782a.109.109,0,0,0-.05.043A31.666,31.666,0,0,0,.155,24.182a.129.129,0,0,0,.049.088,31.114,31.114,0,0,0,9.369,4.736.121.121,0,0,0,.132-.043,22.238,22.238,0,0,0,1.917-3.118.119.119,0,0,0-.065-.165,20.49,20.49,0,0,1-2.927-1.4.12.12,0,0,1-.012-.2c.2-.147.393-.3.581-.456a.116.116,0,0,1,.121-.016,22.189,22.189,0,0,0,18.856,0,.116.116,0,0,1,.123.015c.188.155.385.31.583.457a.12.12,0,0,1-.01.2,19.227,19.227,0,0,1-2.928,1.394.12.12,0,0,0-.064.167,24.969,24.969,0,0,0,1.915,3.116.119.119,0,0,0,.132.045,31.011,31.011,0,0,0,9.384-4.736.12.12,0,0,0,.049-.086A31.459,31.459,0,0,0,31.811,2.827.1.1,0,0,0,31.763,2.782ZM12.538,19.919a3.606,3.606,0,0,1-3.372-3.782,3.587,3.587,0,0,1,3.372-3.782,3.567,3.567,0,0,1,3.372,3.782A3.587,3.587,0,0,1,12.538,19.919Zm12.467,0a3.606,3.606,0,0,1-3.372-3.782,3.586,3.586,0,0,1,3.372-3.782,3.567,3.567,0,0,1,3.372,3.782A3.577,3.577,0,0,1,25.005,19.919Z" transform="translate(0 -0.412)" fill="#fff"/>
</svg>
