<svg id="Component_7_1" data-name="Component 7 – 1" xmlns="http://www.w3.org/2000/svg" width="35.208" height="28.557" viewBox="0 0 35.208 28.557">
  <path id="Path_2" data-name="Path 2" d="M49.149,30.557c13.3,0,20.538-10.954,20.538-20.538V9.042a15.9,15.9,0,0,0,3.521-3.716A16.237,16.237,0,0,1,69.1,6.5a7.61,7.61,0,0,0,3.13-3.912,17.941,17.941,0,0,1-4.5,1.76A6.985,6.985,0,0,0,62.45,2a7.349,7.349,0,0,0-7.237,7.237,3.813,3.813,0,0,0,.2,1.565A20.223,20.223,0,0,1,40.543,3.174a7.491,7.491,0,0,0-.978,3.716,7.771,7.771,0,0,0,3.13,6.064,6.594,6.594,0,0,1-3.325-.978h0a7.148,7.148,0,0,0,5.868,7.042,6.03,6.03,0,0,1-1.956.2,3.329,3.329,0,0,1-1.369-.2A7.41,7.41,0,0,0,48.758,24.1a14.768,14.768,0,0,1-9,3.13,5.415,5.415,0,0,1-1.76-.2,18.462,18.462,0,0,0,11.149,3.521" transform="translate(-38 -2)" fill="#fff" fill-rule="evenodd"/>
</svg>
