<?xml version="1.0" standalone="no"?>
<!DOCTYPE svg PUBLIC "-//W3C//DTD SVG 1.1//EN" "http://www.w3.org/Graphics/SVG/1.1/DTD/svg11.dtd" >
<svg xmlns="http://www.w3.org/2000/svg" xmlns:xlink="http://www.w3.org/1999/xlink" version="1.1">
<metadata>
Created by FontForge 20190801 at Sun Mar  4 14:32:25 2018
 By www-data
Copyright (c) 2018 Monotype Imaging Inc. All rights reserved.
</metadata>
<defs>
<font id="NeuePlakExtendedBlack" horiz-adv-x="0" >
  <font-face 
    font-family="NeuePlakExtendedBlack"
    font-weight="800"
    font-stretch="expanded"
    units-per-em="1000"
    panose-1="2 11 10 5 3 2 2 2 2 4"
    ascent="800"
    descent="-200"
    x-height="501"
    cap-height="706"
    bbox="-966 -223 1212 1191"
    underline-thickness="50"
    underline-position="-100"
    unicode-range="U+000D-FEFF"
  />
<missing-glyph horiz-adv-x="813" 
d="M48 706h717v-706h-717v706zM568 157v392h-323v-392h323z" />
    <glyph glyph-name=".notdef" horiz-adv-x="813" 
d="M48 706h717v-706h-717v706zM568 157v392h-323v-392h323z" />
    <glyph glyph-name=".null" 
 />
    <glyph glyph-name="nonmarkingreturn" horiz-adv-x="333" 
 />
    <glyph glyph-name="NULL" 
 />
    <glyph glyph-name="NULL" 
 />
    <glyph glyph-name="CR" unicode="&#xd;" horiz-adv-x="205" 
 />
    <glyph glyph-name="space" unicode=" " horiz-adv-x="205" 
 />
    <glyph glyph-name="exclam" unicode="!" horiz-adv-x="339" 
d="M70 706h198l-26 -464h-146zM115.5 -7q-23.5 13 -36.5 36t-13 53q0 47 28 75t75 28q30 0 54 -12.5t37 -36t13 -54.5q0 -30 -13 -53t-37 -36t-54 -13t-53.5 13z" />
    <glyph glyph-name="quotedbl" unicode="&#x22;" horiz-adv-x="530" 
d="M57 706h177l-24 -290h-128zM295 706h177l-24 -290h-128z" />
    <glyph glyph-name="numbersign" unicode="#" horiz-adv-x="909" 
d="M723 418l-26 -130h130l-32 -148h-129l-33 -161h-166l33 161h-180l-33 -161h-165l33 161h-130l31 148h129l26 130h-128l31 148h127l33 161h166l-33 -161h180l33 161h167l-33 -161h130l-30 -148h-131zM557 418h-180l-27 -130h180z" />
    <glyph glyph-name="dollar" unicode="$" horiz-adv-x="731" 
d="M702 210q0 -49 -18 -90q-29 -64 -101.5 -99.5t-176.5 -40.5v-75h-85v75q-105 7 -175 43.5t-98 101.5q-19 43 -19 94h203q2 -27 9 -43q18 -44 85 -55v167q-29 6 -70 17q-83 22 -130 50t-67 73q-16 37 -16 79t17 81q27 61 96 96.5t166 41.5v75h86v-76q95 -7 162 -42.5
t94 -96.5q18 -40 18 -90h-196q-2 26 -8 40q-19 40 -75 51v-148l59 -14q61 -16 102.5 -31.5t73 -39.5t47.5 -60q17 -36 17 -84zM273.5 477q20.5 -11 53.5 -20v134q-68 -7 -84 -42q-4 -9 -4 -21q0 -13 6 -24q8 -16 28.5 -27zM497 190q0 16 -6 26q-9 18 -31.5 30.5t-57.5 22.5
v-150q34 3 57.5 14t31.5 30q6 12 6 27z" />
    <glyph glyph-name="percent" unicode="%" horiz-adv-x="803" 
d="M91.5 425.5q-42.5 20.5 -60.5 61.5q-13 32 -13 74q0 41 13 73q18 41 60.5 61.5t102.5 20.5t102 -20.5t60 -61.5q14 -31 14 -73q0 -43 -14 -74q-18 -41 -60 -61.5t-102 -20.5t-102.5 20.5zM613 706h132l-555 -706h-133zM243 524q4 6 5 15.5t1 21.5q0 25 -6 36
q-10 25 -49 25q-20 0 -32 -6t-18 -19q-5 -12 -5 -36q0 -26 5 -37q13 -25 50 -25q38 0 49 25zM507 11q-42 21 -61 62q-14 29 -14 73q0 42 14 73q18 41 60.5 61.5t102.5 20.5t101.5 -20.5t59.5 -61.5q15 -30 15 -73q0 -44 -15 -73q-18 -41 -59.5 -62t-101.5 -21t-102 21z
M640.5 90.5q12.5 6.5 17.5 18.5q6 15 6 37t-6 37q-12 25 -49 25q-39 0 -50 -26q-6 -12 -6 -36q0 -12 1 -21t5 -16q11 -25 50 -25q19 0 31.5 6.5z" />
    <glyph glyph-name="ampersand" unicode="&#x26;" horiz-adv-x="795" 
d="M680 160q40 -13 87 -13v-147q-70 0 -121.5 10t-94.5 32q-47 -27 -103.5 -40.5t-127.5 -13.5q-91 0 -157.5 23t-102 67t-35.5 105q0 72 45.5 123t124.5 93q-39 49 -55 87.5t-16 73.5q0 49 27 86.5t83 59t142 21.5q113 0 182.5 -39t69.5 -118q0 -45 -25.5 -80t-65 -61.5
t-98.5 -55.5l120 -129q18 24 36 54t40 71l136 -64q-49 -91 -91 -145zM314.5 522.5q10.5 -20.5 35.5 -51.5q51 24 78.5 47.5t27.5 52.5q0 24 -18.5 38t-53.5 14q-38 0 -59 -16t-21 -45q0 -19 10.5 -39.5zM256.5 143q32.5 -21 90.5 -21q46 0 88 16l-147 156
q-31 -21 -47.5 -43.5t-16.5 -49.5q0 -37 32.5 -58z" />
    <glyph glyph-name="quotesingle" unicode="'" horiz-adv-x="292" 
d="M57 706h177l-24 -290h-128z" />
    <glyph glyph-name="parenleft" unicode="(" horiz-adv-x="407" 
d="M146.5 -47q-32.5 74 -50 157.5t-17.5 182.5t17.5 182.5t50 157.5t83.5 157h165q-76 -124 -115 -240.5t-39 -256.5q0 -139 39 -255.5t115 -240.5h-165q-51 82 -83.5 156z" />
    <glyph glyph-name="parenright" unicode=")" horiz-adv-x="407" 
d="M12 -203q76 124 115 240.5t39 255.5q0 140 -39 256.5t-115 240.5h165q51 -83 83.5 -157t50 -157.5t17.5 -182.5t-17.5 -182.5t-50 -157.5t-83.5 -156h-165z" />
    <glyph glyph-name="asterisk" unicode="*" horiz-adv-x="441" 
d="M63 420l95 86l-128 14l40 124l112 -64l-26 126h130l-27 -126l112 64l41 -124l-129 -14l96 -86l-106 -77l-52 119l-53 -119z" />
    <glyph glyph-name="plus" unicode="+" horiz-adv-x="613" 
d="M565 226h-189v-180h-140v180h-188v135h188v181h140v-181h189v-135z" />
    <glyph glyph-name="comma" unicode="," horiz-adv-x="314" 
d="M100 160h171l-110 -339h-133z" />
    <glyph glyph-name="hyphen" unicode="-" horiz-adv-x="446" 
d="M48 367h350v-147h-350v147z" />
    <glyph glyph-name="period" unicode="." horiz-adv-x="353" 
d="M123 -7q-24 13 -37 36t-13 53q0 47 28.5 75t75.5 28q30 0 53.5 -12.5t36.5 -36t13 -54.5q0 -30 -13 -53t-36.5 -36t-53.5 -13t-54 13z" />
    <glyph glyph-name="slash" unicode="/" horiz-adv-x="600" 
d="M402 727h182l-385 -777h-183z" />
    <glyph glyph-name="zero" unicode="0" horiz-adv-x="778" 
d="M187 26q-82 47 -121 135q-18 40 -26.5 87t-8.5 105t8.5 105t26.5 87q39 88 121 135t202 47t202 -47t121 -135q18 -40 26.5 -87t8.5 -105t-8.5 -105t-26.5 -87q-39 -88 -121 -135t-202 -47t-202 47zM524 212q10 22 14 55t4 86t-4 86t-14 55q-35 75 -135 75q-50 0 -84 -19
t-51 -56q-10 -22 -14 -55t-4 -86t4 -86t14 -55q17 -37 51 -56t84 -19q100 0 135 75z" />
    <glyph glyph-name="one" unicode="1" horiz-adv-x="420" 
d="M161 543h-156l36 163h310v-706h-190v543z" />
    <glyph glyph-name="two" unicode="2" horiz-adv-x="665" 
d="M3 2l327 343q37 38 57 62.5t29.5 45t9.5 41.5t-7 35q-10 24 -35 36t-59 12q-39 0 -65.5 -15t-39.5 -43q-12 -27 -12 -69h-193q0 73 24 127q34 76 107 113t181 37q104 0 177.5 -33.5t105.5 -103.5q18 -43 18 -94q0 -54 -22 -95t-70 -88q-44 -43 -83.5 -79t-87.5 -75h274
v-159h-636v2z" />
    <glyph glyph-name="three" unicode="3" horiz-adv-x="683" 
d="M654 198q0 -46 -17 -85q-61 -134 -296 -134q-116 0 -192 35.5t-107 106.5q-13 30 -19 65t-6 79h190q0 -48 15 -81q26 -60 112 -60q40 0 68.5 13t40.5 40q8 16 8 40t-8 42q-13 28 -47 39.5t-83 11.5h-35v121h37q98 0 119 48q7 13 7 30q0 21 -7 36q-21 47 -101 47
q-40 0 -68 -13t-40 -40q-9 -19 -9 -43h-188q0 50 18 90q32 69 108 105t187 36q105 0 178.5 -32.5t100.5 -94.5q15 -33 15 -76q0 -36 -13 -65q-28 -64 -115 -89q99 -20 132 -93q15 -31 15 -79z" />
    <glyph glyph-name="four" unicode="4" horiz-adv-x="759" 
d="M747 143h-110v-143h-190v143h-459v2l298 561h351v-409h110v-154zM447 297v351h-1l-173 -351h174z" />
    <glyph glyph-name="five" unicode="5" horiz-adv-x="668" 
d="M47 121q-25 56 -25 139h193q0 -52 14 -81q24 -56 102 -56t103 56q10 20 10 48q0 25 -10 48q-19 42 -74.5 59.5t-146.5 17.5q-45 0 -87.5 -3.5t-73.5 -8.5l67 366h496l-34 -151h-313l-20 -98q57 12 118 12q93 0 161 -32t97 -95q22 -48 22 -108t-22 -109
q-32 -71 -106 -108.5t-185 -37.5q-223 0 -286 142z" />
    <glyph glyph-name="six" unicode="6" horiz-adv-x="739" 
d="M712 237q0 -57 -20 -103q-34 -75 -114.5 -115t-188.5 -40q-127 0 -206.5 45t-117.5 133q-34 79 -34 189q0 117 38 202q39 88 119 133.5t196 45.5q78 0 141 -22t105 -65q54 -54 67 -132h-193q-7 24 -25 42q-34 36 -99 36q-101 0 -137 -85q-19 -44 -19 -107
q36 35 91.5 53.5t123.5 18.5q92 0 158 -32t95 -95q20 -43 20 -102zM510 232q0 27 -9 46q-14 29 -45 44t-75 15q-45 0 -77 -15.5t-46 -45.5q-8 -19 -8 -45q0 -29 8 -46q13 -30 45.5 -45.5t76.5 -15.5t75.5 15t44.5 45q10 23 10 48z" />
    <glyph glyph-name="seven" unicode="7" horiz-adv-x="631" 
d="M349 543h-338v163h632l-352 -706h-222z" />
    <glyph glyph-name="eight" unicode="8" horiz-adv-x="716" 
d="M687 206q0 -44 -17 -83q-31 -69 -109.5 -106.5t-202.5 -37.5q-125 0 -203.5 37.5t-108.5 106.5q-17 35 -17 83q0 47 17 81q17 38 50.5 64t79.5 36q-38 10 -66 31t-41 49q-14 28 -14 66q0 36 14 67q27 62 102.5 94.5t186.5 32.5q109 0 184.5 -32t104.5 -94q13 -32 13 -68
q0 -38 -13 -67t-40 -49t-65 -30q93 -21 128 -99q17 -37 17 -82zM246 519q0 -19 7 -33q11 -25 39 -37.5t67 -12.5q38 0 65.5 12t38.5 37q7 14 7 34q0 19 -7 34q-11 24 -38.5 37t-66.5 13q-38 0 -66 -12.5t-39 -36.5q-7 -15 -7 -35zM484 216q0 21 -8 37q-12 28 -43.5 42.5
t-75.5 14.5q-43 0 -73.5 -14t-43.5 -41q-8 -21 -8 -40q0 -22 8 -38q12 -28 44 -42.5t75 -14.5q41 0 72.5 14t44.5 42q8 18 8 40z" />
    <glyph glyph-name="nine" unicode="9" horiz-adv-x="739" 
d="M707 361q0 -120 -38 -203q-39 -87 -118.5 -132.5t-195.5 -45.5q-78 0 -141 22t-105 65q-53 52 -67 132h193q7 -25 24 -43q37 -35 100 -35q101 0 137 85q19 44 19 107q-36 -36 -91.5 -54.5t-123.5 -18.5q-92 0 -159 32t-95 96q-20 47 -20 102t21 102q34 75 114.5 115.5
t187.5 40.5q128 0 207 -45t117 -133q34 -75 34 -189zM489 476q0 25 -9 46q-13 30 -45 45.5t-76 15.5t-75.5 -15.5t-45.5 -44.5q-9 -21 -9 -48q0 -26 9 -46q13 -30 44 -44.5t75 -14.5q46 0 78 15.5t45 45.5q9 20 9 45z" />
    <glyph glyph-name="colon" unicode=":" horiz-adv-x="353" 
d="M123 -7q-24 13 -37 36t-13 53q0 47 28.5 75t75.5 28q30 0 53.5 -12.5t36.5 -36t13 -54.5q0 -30 -13 -53t-36.5 -36t-53.5 -13t-54 13zM123 319q-24 13 -37 36t-13 53q0 47 28.5 75t75.5 28q30 0 53.5 -12.5t36.5 -36t13 -54.5q0 -30 -13 -53t-36.5 -36t-53.5 -13t-54 13z
" />
    <glyph glyph-name="semicolon" unicode=";" horiz-adv-x="367" 
d="M100 160h171l-110 -339h-133zM137 319q-24 13 -37 36t-13 53q0 47 28.5 75t75.5 28q30 0 53.5 -12.5t36.5 -36t13 -54.5q0 -30 -13 -53t-36.5 -36t-53.5 -13t-54 13z" />
    <glyph glyph-name="less" unicode="&#x3c;" horiz-adv-x="613" 
d="M564 392l-370 -98l370 -99v-137l-517 150v172l517 150v-138z" />
    <glyph glyph-name="equal" unicode="=" horiz-adv-x="613" 
d="M48 469h517v-136h-517v136zM48 255h517v-136h-517v136z" />
    <glyph glyph-name="greater" unicode="&#x3e;" horiz-adv-x="613" 
d="M565 380v-172l-517 -150v137l370 99l-370 98v138z" />
    <glyph glyph-name="question" unicode="?" horiz-adv-x="602" 
d="M323 403.5q32 45.5 45 73t13 52.5q0 32 -20.5 49t-61.5 17q-31 0 -50.5 -10t-29.5 -30q-4 -9 -5.5 -18.5t-1.5 -25.5h-183q0 31 4 54t13 43q26 58 91.5 88.5t164.5 30.5q84 0 145 -22t93.5 -65t32.5 -104q0 -33 -12.5 -64.5t-44.5 -79.5t-107 -150h-203q85 116 117 161.5
zM243.5 -9q-23.5 13 -36.5 36.5t-13 53.5q0 31 13 54t36.5 35.5t54.5 12.5q30 0 53.5 -12.5t36.5 -36t13 -53.5t-13 -53.5t-36.5 -36.5t-53.5 -13q-31 0 -54.5 13z" />
    <glyph glyph-name="at" unicode="@" horiz-adv-x="970" 
d="M942 338q0 -79 -26 -134q-32 -71 -99.5 -107.5t-168.5 -36.5h-78v63q-27 -30 -70.5 -46.5t-99.5 -16.5q-59 0 -100.5 21t-58.5 59q-11 23 -11 56q0 17 2.5 30t8.5 26q20 46 80.5 65.5t159.5 19.5h86v4q0 15 -1 26t-5 19q-16 30 -74 30q-55 0 -70 -28q-5 -11 -6 -23h-162
q1 29 13 56q23 49 82 71t145 22q89 0 143.5 -22.5t77.5 -71.5q9 -19 13 -46.5t4 -66.5v-159q40 10 67 32.5t42 57.5q18 39 18 99q0 71 -23 121q-37 82 -127.5 125t-213.5 43q-133 0 -219 -44.5t-125 -132.5q-16 -35 -23 -73t-7 -84q0 -92 30 -157q41 -92 140.5 -140
t235.5 -48q51 0 102 6v-76q-51 -6 -103 -6q-110 0 -201 27t-156 79t-99 126q-37 82 -37 185q0 53 10.5 99.5t29.5 90.5q50 108 158.5 165.5t265.5 57.5q99 0 183 -24.5t145 -73t92 -117.5q30 -64 30 -148zM568 261h-81q-35 0 -56 -5.5t-29 -21.5q-5 -10 -5 -20t5 -20
q12 -26 67 -26q34 0 58 10.5t34 31.5q7 17 7 46v5z" />
    <glyph glyph-name="A" unicode="A" horiz-adv-x="833" 
d="M584 135h-334l-52 -135h-208l286 706h281l286 -706h-207zM530 278l-112 293h-2l-112 -293h226z" />
    <glyph glyph-name="B" unicode="B" horiz-adv-x="717" 
d="M690 202q0 -47 -16 -85q-27 -58 -91.5 -87.5t-156.5 -29.5h-368v706h375q81 0 135 -25.5t76 -73.5q16 -33 16 -75q0 -39 -14 -72q-26 -58 -103 -80q100 -24 131 -96q16 -33 16 -82zM253 424h94q84 0 102 42q7 15 7 38q0 20 -7 35q-18 42 -103 42h-93v-157zM481 212
q0 19 -8 38q-11 25 -39 36t-73 11h-108v-172h109q44 0 72 11.5t39 36.5q8 19 8 39z" />
    <glyph glyph-name="C" unicode="C" horiz-adv-x="854" 
d="M202.5 30.5q-97.5 51.5 -141.5 150.5q-33 77 -33 172q0 96 33 171q44 98 142.5 150.5t234.5 52.5q90 0 166 -25t129 -73q44 -39 67.5 -92t26.5 -115h-208q-3 29 -15.5 53.5t-32.5 42.5q-48 44 -136 44q-65 0 -110 -24.5t-66 -71.5q-10 -22 -15 -49.5t-5 -63.5
q0 -70 19 -113q21 -48 67.5 -72t110.5 -24q44 0 80 11.5t61 34.5q19 17 30.5 40.5t13.5 49.5h208q-2 -61 -25.5 -112t-66.5 -90q-53 -48 -131 -73.5t-168 -25.5q-138 0 -235.5 51.5z" />
    <glyph glyph-name="D" unicode="D" horiz-adv-x="828" 
d="M58 706h355q134 0 224.5 -47.5t130.5 -139.5q32 -72 32 -166q0 -99 -32 -167q-41 -92 -131.5 -139t-223.5 -47h-355v706zM391 161q71 0 115.5 23t65.5 68q17 38 17 101q0 62 -18 102q-21 45 -65 67.5t-115 22.5h-137v-384h137z" />
    <glyph glyph-name="E" unicode="E" horiz-adv-x="643" 
d="M58 706h546v-152h-350v-125h347v-146h-347v-131h350v-152h-546v706z" />
    <glyph glyph-name="F" unicode="F" horiz-adv-x="549" 
d="M58 706h463v-156h-267v-122h265v-150h-265v-278h-196v706z" />
    <glyph glyph-name="G" unicode="G" horiz-adv-x="870" 
d="M842 393v-30q0 -56 -9 -101.5t-28 -88.5q-44 -96 -136.5 -145t-225.5 -49q-139 0 -239 51.5t-143 148.5q-33 77 -33 174q0 96 35 174q45 99 143 149.5t238 50.5q92 0 169 -24t130 -72q36 -33 61.5 -79.5t31.5 -94.5h-210q-8 40 -38 66q-24 22 -61 33t-81 11
q-69 0 -117.5 -25t-69.5 -74q-11 -24 -15.5 -50t-4.5 -65t4.5 -65.5t15.5 -49.5q22 -49 71 -74t118 -25q65 0 112.5 21t66.5 63q9 21 11 37h-199v133h403z" />
    <glyph glyph-name="H" unicode="H" horiz-adv-x="832" 
d="M58 706h196v-273h324v273h196v-706h-196v276h-324v-276h-196v706z" />
    <glyph glyph-name="I" unicode="I" horiz-adv-x="311" 
d="M58 706h196v-706h-196v706z" />
    <glyph glyph-name="J" unicode="J" horiz-adv-x="392" 
d="M9 0v165q20 -3 43 -3q38 0 59.5 10.5t31 34.5t9.5 67v432h196v-461q0 -87 -26 -142.5t-81.5 -82.5t-145.5 -27q-40 0 -86 7z" />
    <glyph glyph-name="K" unicode="K" horiz-adv-x="777" 
d="M537 0l-283 315v-315h-196v706h196v-261l251 261h241l-316 -320l356 -386h-249z" />
    <glyph glyph-name="L" unicode="L" horiz-adv-x="495" 
d="M58 706h196v-543h232v-163h-428v706z" />
    <glyph glyph-name="M" unicode="M" horiz-adv-x="1017" 
d="M58 706h225l225 -436l227 436h224v-706h-185v436l-223 -436h-86l-223 436v-436h-184v706z" />
    <glyph glyph-name="N" unicode="N" horiz-adv-x="843" 
d="M58 706h207l328 -451v451h192v-706h-212l-323 444v-444h-192v706z" />
    <glyph glyph-name="O" unicode="O" horiz-adv-x="875" 
d="M207 27.5q-95 48.5 -139 141.5q-40 78 -40 184q0 95 34 172q43 98 140.5 150t235.5 52q137 0 233.5 -51t139.5 -147q35 -80 35 -176q0 -99 -36 -180q-45 -94 -141 -144t-232 -50q-135 0 -230 48.5zM550.5 170.5q45.5 25.5 66.5 73.5q10 22 14.5 48t4.5 61q0 36 -5 63
t-15 49q-22 48 -67 72t-112 24q-66 0 -111.5 -25t-67.5 -72q-10 -22 -14.5 -48.5t-4.5 -62.5q0 -34 5 -60.5t15 -49.5q21 -48 67 -73t112 -25q67 0 112.5 25.5z" />
    <glyph glyph-name="P" unicode="P" horiz-adv-x="693" 
d="M58 706h357q95 0 155.5 -28t87.5 -87q21 -48 21 -112q0 -59 -21 -107q-54 -121 -243 -121h-161v-251h-196v706zM367 392q43 0 68.5 9.5t35.5 32.5q9 17 9 44q0 15 -2 25t-6 20q-11 22 -37 31t-70 9h-111v-171h113z" />
    <glyph glyph-name="Q" unicode="Q" horiz-adv-x="875" 
d="M846 353q0 -99 -36 -180q-50 -105 -162 -154l72 -102l-144 -91l-98 154q-14 -1 -41 -1q-135 0 -230 48.5t-139 141.5q-40 78 -40 184q0 95 34 172q43 98 140.5 150t235.5 52q137 0 233.5 -51t139.5 -147q35 -80 35 -176zM544 167q51 26 73 77q10 22 14.5 48t4.5 61
q0 36 -5 63t-15 49q-22 48 -67 72t-112 24q-66 0 -111.5 -25t-67.5 -72q-10 -22 -14.5 -48.5t-4.5 -62.5q0 -34 5 -60.5t15 -49.5q20 -44 60.5 -69t99.5 -28l96 62z" />
    <glyph glyph-name="R" unicode="R" horiz-adv-x="733" 
d="M283 265h-29v-265h-196v706h368q91 0 152 -30.5t88 -89.5q19 -44 19 -101q0 -62 -20 -105q-40 -93 -161 -111l236 -269h-235zM254 388h117q42 0 69 10.5t38 34.5q8 16 8 44q0 26 -7 41q-12 25 -39 35.5t-69 10.5h-117v-176z" />
    <glyph glyph-name="S" unicode="S" horiz-adv-x="727" 
d="M159 16q-82 37 -114 109q-17 39 -19 95h210q0 -24 8 -45q27 -56 123 -56q44 0 74 11.5t40 32.5q5 13 5 28q0 16 -5 26q-8 19 -32 32.5t-54.5 22t-81.5 19.5q-43 9 -58 13q-78 18 -127 47.5t-71 78.5q-16 35 -16 78t17 80q30 66 110 102.5t191 36.5t190 -36t110 -105
q18 -39 19 -90h-204q-1 13 -3 24t-6 20q-24 52 -110 52q-38 0 -66 -10.5t-37 -30.5q-4 -9 -4 -22t4 -22q8 -17 29 -28.5t49 -19.5t77 -19q17 -3 51 -11q58 -14 101 -30t76 -42t50 -63q16 -37 16 -84q0 -49 -18 -90q-32 -70 -116 -105.5t-204 -35.5q-122 0 -204 37z" />
    <glyph glyph-name="T" unicode="T" horiz-adv-x="580" 
d="M192 549h-183v157h562v-157h-183v-549h-196v549z" />
    <glyph glyph-name="U" unicode="U" horiz-adv-x="786" 
d="M128.5 55.5q-85.5 76.5 -85.5 231.5v419h196v-406q0 -81 37 -119t116 -38q80 0 117 38t37 119v406h196v-419q0 -156 -85 -232t-264 -76t-264.5 76.5z" />
    <glyph glyph-name="V" unicode="V" horiz-adv-x="810" 
d="M819 706l-309 -706h-209l-311 706h215l201 -495l200 495h213z" />
    <glyph glyph-name="W" unicode="W" horiz-adv-x="1146" 
d="M1155 706l-234 -706h-201l-147 469l-146 -469h-201l-236 706h206l137 -447l136 447h209l135 -445l137 445h205z" />
    <glyph glyph-name="X" unicode="X" horiz-adv-x="820" 
d="M292 373l-268 333h238l149 -195l148 195h237l-267 -334l300 -372h-241l-177 230l-178 -230h-242z" />
    <glyph glyph-name="Y" unicode="Y" horiz-adv-x="724" 
d="M264 308l-274 398h221l151 -226l151 226h221l-274 -398v-308h-196v308z" />
    <glyph glyph-name="Z" unicode="Z" horiz-adv-x="703" 
d="M364 549h-339v157h662l-350 -548h353v-158h-683z" />
    <glyph glyph-name="bracketleft" unicode="[" horiz-adv-x="408" 
d="M98 790h290v-136h-133v-722h133v-135h-290v993z" />
    <glyph glyph-name="backslash" unicode="\" horiz-adv-x="600" 
d="M401 -50l-385 777h182l386 -777h-183z" />
    <glyph glyph-name="bracketright" unicode="]" horiz-adv-x="408" 
d="M20 -203v135h133v722h-133v136h290v-993h-290z" />
    <glyph glyph-name="asciicircum" unicode="^" horiz-adv-x="581" 
d="M386 355l-95 215l-95 -215h-176l161 351h219l161 -351h-175z" />
    <glyph glyph-name="underscore" unicode="_" horiz-adv-x="537" 
d="M0 -46h537v-147h-537v147z" />
    <glyph glyph-name="grave" unicode="`" horiz-adv-x="398" 
d="M176 553l-126 166h190l108 -166h-172z" />
    <glyph glyph-name="a" unicode="a" horiz-adv-x="641" 
d="M597 284v-284h-183v61q-31 -38 -78.5 -57.5t-115.5 -19.5q-70 0 -117.5 22t-68.5 67q-13 31 -13 64q0 36 13 67q28 61 102 83t189 22h88v7q0 17 -2 27t-6 19q-17 40 -86 40q-68 0 -85 -37q-5 -13 -5 -24h-185q2 38 15 65q26 59 93 85.5t165 26.5q104 0 168 -27t90 -88
q22 -47 22 -119zM365 121q29 13 41 39q8 19 8 48v6h-83q-48 0 -76.5 -6.5t-37.5 -25.5q-4 -10 -4 -21q0 -12 4 -21q14 -32 78 -32q41 0 70 13z" />
    <glyph glyph-name="b" unicode="b" horiz-adv-x="688" 
d="M669 251q0 -75 -26 -130q-29 -66 -88.5 -101.5t-140.5 -35.5q-60 0 -107.5 20.5t-79.5 60.5v-65h-179v706h184v-263q32 37 78.5 56t103.5 19q81 0 140.5 -36t88.5 -101q26 -60 26 -130zM475 251q0 44 -11 67q-14 30 -43 45.5t-69 15.5q-55 0 -89 -31t-34 -89v-17
q0 -38 15.5 -65t43.5 -40.5t64 -13.5q40 0 69 15.5t43 45.5q11 23 11 67z" />
    <glyph glyph-name="c" unicode="c" horiz-adv-x="667" 
d="M152.5 20.5q-76.5 37.5 -109.5 112.5q-24 53 -24 118q0 64 24 118q32 73 108 111t181 38q160 0 247 -80q61 -54 66 -140h-197q-3 31 -27 55q-31 26 -88 26q-39 0 -66.5 -15t-40.5 -44q-7 -13 -9.5 -29t-2.5 -40q0 -23 2.5 -39t9.5 -29q13 -29 40.5 -44.5t66.5 -15.5
q58 0 88 27q12 11 19 26t9 32h198q-3 -45 -19.5 -80.5t-48.5 -64.5q-44 -39 -106.5 -59.5t-140.5 -20.5q-103 0 -179.5 37.5z" />
    <glyph glyph-name="d" unicode="d" horiz-adv-x="688" 
d="M640 706v-706h-179v64q-32 -40 -79.5 -60t-107.5 -20q-81 0 -140.5 35.5t-88.5 101.5q-26 55 -26 130q0 70 26 130q29 65 88.5 101t140.5 36q57 0 103.5 -18.5t78.5 -55.5v262h184zM459 259q0 58 -33.5 89t-89.5 31q-40 0 -69 -15.5t-43 -45.5q-11 -27 -11 -67t11 -67
q14 -30 43 -45.5t69 -15.5q56 0 89.5 31t33.5 88v17z" />
    <glyph glyph-name="e" unicode="e" horiz-adv-x="668" 
d="M459 167h186q-10 -66 -59 -110q-42 -39 -104.5 -56.5t-138.5 -17.5q-110 0 -189.5 39.5t-111.5 113.5q-23 51 -23 115q0 34 5.5 62.5t17.5 54.5q33 74 109.5 112t180.5 38q107 0 181.5 -40.5t107.5 -115.5q15 -34 21.5 -70.5t6.5 -85.5h-444q3 -24 10 -37q13 -31 47 -46
t82 -15q30 0 55.5 6.5t39.5 19.5q15 12 20 33zM259.5 381q-30.5 -15 -44.5 -45q-7 -14 -10 -32h259q-3 16 -9 32q-14 30 -45 45t-76 15q-44 0 -74.5 -15z" />
    <glyph glyph-name="f" unicode="f" horiz-adv-x="426" 
d="M89 362h-76v139h76v33q0 66 23.5 108.5t74 63t130.5 20.5q26 0 52 -3t44 -8v-140q-27 10 -61 10q-37 0 -58 -16t-21 -47v-21h139v-139h-139v-362h-184v362z" />
    <glyph glyph-name="g" unicode="g" horiz-adv-x="683" 
d="M635 501v-463q0 -74 -24 -126q-59 -131 -274 -131q-167 0 -243 69q-25 22 -39.5 50.5t-20.5 65.5h194q3 -18 19 -33q29 -26 87 -26q82 0 106 53q10 21 10 53v62q-64 -79 -182 -79q-79 0 -137 35t-87 99q-13 28 -19 59t-6 68q0 74 25 128q28 64 86.5 98.5t137.5 34.5
q121 0 185 -82v65h182zM418.5 161.5q32.5 29.5 32.5 85.5v18q0 57 -32 86t-87 29q-40 0 -67.5 -14.5t-40.5 -42.5q-11 -26 -11 -66q0 -22 2.5 -38t8.5 -29q13 -29 40.5 -43.5t67.5 -14.5q54 0 86.5 29.5z" />
    <glyph glyph-name="h" unicode="h" horiz-adv-x="663" 
d="M566 464q53 -54 53 -157v-307h-183v272q0 55 -24.5 81t-72.5 26q-53 0 -80 -31t-27 -89v-259h-184v706h184v-271q63 83 180 83q101 0 154 -54z" />
    <glyph glyph-name="i" unicode="i" horiz-adv-x="280" 
d="M92 566q-22 11 -34 31.5t-12 46.5t12.5 46.5t34 32t48.5 11.5t48.5 -11.5t34 -32t12.5 -46.5t-12.5 -46.5t-34 -31.5t-48.5 -11t-49 11zM48 501h184v-501h-184v501z" />
    <glyph glyph-name="j" unicode="j" horiz-adv-x="284" 
d="M95 566q-22 11 -34 31.5t-12 46.5t12.5 46.5t34 32t48.5 11.5t48.5 -11.5t34 -32t12.5 -46.5t-12 -46.5t-34 -31.5t-49 -11t-49 11zM-43 -209v150q21 -3 39 -3q29 0 42.5 14t13.5 43v506h184v-521q0 -68 -20.5 -110.5t-64.5 -63t-115 -20.5q-37 0 -79 5z" />
    <glyph glyph-name="k" unicode="k" horiz-adv-x="629" 
d="M413 0l-181 211v-211h-184v706h184v-368l162 163h235l-233 -223l253 -278h-236z" />
    <glyph glyph-name="l" unicode="l" horiz-adv-x="280" 
d="M48 706h184v-706h-184v706z" />
    <glyph glyph-name="m" unicode="m" horiz-adv-x="1018" 
d="M923 465q52 -53 52 -152v-313h-184v279q0 100 -90 100q-48 0 -73 -28t-25 -80v-271h-183v279q0 100 -91 100q-48 0 -72.5 -28t-24.5 -81v-270h-184v501h184v-65q30 39 76 60.5t106 21.5q63 0 107.5 -24t65.5 -69q33 47 79 70t110 23q95 0 147 -53z" />
    <glyph glyph-name="n" unicode="n" horiz-adv-x="663" 
d="M566 464q53 -54 53 -157v-307h-183v272q0 55 -24.5 81t-72.5 26q-53 0 -80 -31t-27 -89v-259h-184v501h184v-66q63 83 180 83q101 0 154 -54z" />
    <glyph glyph-name="o" unicode="o" horiz-adv-x="678" 
d="M151.5 24q-77.5 40 -110.5 116q-22 48 -22 111t22 111q33 76 110.5 116t187.5 40t187 -39.5t110 -113.5q23 -52 23 -114q0 -63 -23 -115q-33 -74 -110 -113t-187 -39t-187.5 40zM411.5 138q29.5 15 42.5 45q11 25 11 68q0 44 -11 67q-13 30 -42.5 45.5t-72.5 15.5
q-42 0 -71.5 -16t-43.5 -45q-11 -25 -11 -67q0 -44 11 -67q13 -30 42.5 -45.5t72.5 -15.5t72.5 15z" />
    <glyph glyph-name="p" unicode="p" horiz-adv-x="688" 
d="M669 251q0 -75 -26 -130q-29 -65 -88.5 -101t-140.5 -36q-57 0 -103.5 19t-78.5 56v-262h-184v704h179v-64q32 40 79.5 60.5t107.5 20.5q81 0 140.5 -36t88.5 -101q26 -57 26 -130zM475 251q0 44 -11 67q-14 30 -43 45t-69 15q-55 0 -89 -31t-34 -88v-16q0 -38 15.5 -65
t43.5 -40.5t64 -13.5q40 0 69 15.5t43 45.5q11 23 11 66z" />
    <glyph glyph-name="q" unicode="q" horiz-adv-x="688" 
d="M640 501v-704h-184v262q-32 -37 -78.5 -56t-103.5 -19q-81 0 -140.5 36t-88.5 101q-26 55 -26 130q0 73 26 130q29 65 88.5 101t140.5 36q60 0 107.5 -20.5t79.5 -60.5v64h179zM425.5 155q33.5 31 33.5 88v16q0 58 -33.5 88.5t-89.5 30.5q-40 0 -69 -15t-43 -45
q-11 -27 -11 -67q0 -39 11 -66q14 -30 43 -45.5t69 -15.5q56 0 89.5 31z" />
    <glyph glyph-name="r" unicode="r" horiz-adv-x="451" 
d="M48 501h182v-48q23 35 48 49.5t58 14.5q49 0 78.5 -28t29.5 -75q0 -30 -13 -53.5t-36.5 -36.5t-53.5 -13q-31 0 -55 14t-35 38q-11 -5 -15 -14t-4 -35v-314h-184v501z" />
    <glyph glyph-name="s" unicode="s" horiz-adv-x="568" 
d="M124.5 8q-63.5 26 -87.5 80q-14 32 -16 77h183q0 -22 7 -35q15 -36 73 -36q26 0 43 6.5t23 19.5q4 7 4 16q0 10 -4 17q-5 11 -20 19t-42 15t-58 13l-24 5q-59 14 -99 36t-58 60q-11 27 -11 56q0 33 13 59q23 51 87 76.5t148 25.5q85 0 146 -25t84 -76q14 -30 14 -65h-177
q0 18 -6 30q-15 32 -64 32q-46 0 -56 -22q-4 -8 -4 -16q0 -10 4 -15q8 -17 35.5 -26t78.5 -19l24 -5q69 -15 111 -39t59 -63q11 -22 11 -56q0 -36 -12 -65q-25 -54 -92.5 -80t-160.5 -26t-156.5 26z" />
    <glyph glyph-name="t" unicode="t" horiz-adv-x="438" 
d="M143 33q-47 44 -47 140v189h-79v139h79v121h183v-121h141v-139h-141v-152q0 -41 18.5 -59t55.5 -18q30 0 63 8v-139q-67 -13 -128 -13q-98 0 -145 44z" />
    <glyph glyph-name="u" unicode="u" horiz-adv-x="663" 
d="M615 501v-501h-184v67q-65 -84 -181 -84q-100 0 -153.5 54t-53.5 157v307h184v-271q0 -55 24.5 -81t72.5 -26q53 0 80 31t27 89v258h184z" />
    <glyph glyph-name="v" unicode="v" horiz-adv-x="625" 
d="M-5 502h195l123 -306l123 306h194l-221 -502h-193z" />
    <glyph glyph-name="w" unicode="w" horiz-adv-x="958" 
d="M963 502l-198 -502h-187l-99 289l-99 -289h-188l-197 502h197l96 -297l104 297h173l104 -296l96 296h198z" />
    <glyph glyph-name="x" unicode="x" horiz-adv-x="644" 
d="M212 256l-213 245h224l99 -127l100 127h223l-211 -245l222 -256h-223l-111 138l-110 -138h-224z" />
    <glyph glyph-name="y" unicode="y" horiz-adv-x="627" 
d="M632 501l-323 -704h-185l96 206l-225 498h196l126 -318l125 318h190z" />
    <glyph glyph-name="z" unicode="z" horiz-adv-x="557" 
d="M306 141h235v-141h-535l257 362h-230v139h516z" />
    <glyph glyph-name="braceleft" unicode="{" horiz-adv-x="436" 
d="M265.5 332q-23.5 -31 -73.5 -39q50 -8 73.5 -38.5t23.5 -90.5v-141q0 -35 8 -55.5t29.5 -31t61.5 -10.5h29v-129h-85q-62 0 -105 22.5t-64.5 63.5t-21.5 94v151q0 36 -8.5 56.5t-28 29t-56.5 8.5v142q37 0 57 9t28 29t8 57v151q0 53 21.5 94t64.5 63.5t105 22.5h85v-129
h-29q-40 0 -61.5 -10.5t-29.5 -31t-8 -55.5v-141q0 -60 -23.5 -91z" />
    <glyph glyph-name="bar" unicode="|" horiz-adv-x="381" 
d="M104 756h173v-959h-173v959z" />
    <glyph glyph-name="braceright" unicode="}" horiz-adv-x="436" 
d="M303.5 402.5q8.5 -20.5 28.5 -29.5t57 -9v-142q-37 0 -57 -8.5t-28.5 -29t-8.5 -56.5v-151q0 -54 -21 -94.5t-64 -63t-106 -22.5h-84v129h28q40 0 61.5 10.5t29.5 31t8 55.5v141q0 60 23.5 90.5t73.5 38.5q-50 8 -73.5 39t-23.5 91v141q0 35 -8 55.5t-29.5 31t-61.5 10.5
h-28v129h84q63 0 106 -22.5t64 -63t21 -94.5v-151q0 -36 8.5 -56.5z" />
    <glyph glyph-name="asciitilde" unicode="~" horiz-adv-x="613" 
d="M352.5 190q-25.5 11 -57.5 32q-23 17 -37.5 24.5t-29.5 7.5q-21 0 -32.5 -18.5t-13.5 -55.5h-123q3 117 39 172.5t104 55.5q32 0 59 -11.5t57 -32.5q25 -17 39 -24t29 -7q21 0 32 18.5t13 54.5h123q-4 -116 -40.5 -171.5t-103.5 -55.5q-32 0 -57.5 11z" />
    <glyph glyph-name="uni00A0" unicode="&#xa0;" horiz-adv-x="205" 
 />
    <glyph glyph-name="exclamdown" unicode="&#xa1;" horiz-adv-x="339" 
d="M115.5 328q-23.5 13 -36.5 36t-13 53q0 47 28 75t75 28q30 0 54 -12.5t37 -36t13 -54.5q0 -30 -13.5 -53t-37 -36t-53.5 -13t-53.5 13zM96 257h147l25 -460h-198z" />
    <glyph glyph-name="cent" unicode="&#xa2;" horiz-adv-x="674" 
d="M654 311q-6 -89 -68 -145q-36 -33 -88 -53t-114 -25v-88h-87v88q-92 6 -159 43.5t-96 104.5q-23 56 -23 117q0 65 24 118q29 67 95.5 104.5t158.5 44.5v86h87v-86q63 -5 115 -24.5t89 -53.5q61 -55 65 -140h-194q-3 34 -29 57q-19 16 -50 22v-253q28 5 50 22q13 11 21 27
t9 34h194zM302 228v253q-55 -10 -78 -56q-7 -14 -9.5 -30.5t-2.5 -40.5t2.5 -40.5t9.5 -29.5q21 -45 78 -56z" />
    <glyph glyph-name="sterling" unicode="&#xa3;" horiz-adv-x="740" 
d="M715 263q-1 -91 -24 -145q-27 -60 -86.5 -89t-157.5 -29h-424v138h91v181h-91v88h91v39q0 46 6.5 83t20.5 67q30 67 98.5 99t179.5 32q108 0 173 -30t94 -93q24 -54 24 -133h-191q0 42 -11 67q-23 47 -90 47q-72 0 -94 -52q-14 -31 -14 -80v-46h204v-88h-204v-181h81
q50 0 79 13.5t42 41.5q12 27 12 70h191z" />
    <glyph glyph-name="currency" unicode="&#xa4;" horiz-adv-x="677" 
d="M546 183l102 -116h-135l-51 59q-55 -24 -127 -24q-65 0 -122 22l-50 -57h-135l100 113q-30 30 -46 67q-22 47 -22 106q0 58 22 107q17 38 47 67l-101 111h137l49 -56q55 22 121 22q69 0 127 -24l50 58h136l-103 -114q25 -26 43 -64q22 -45 22 -107q0 -60 -21 -107
q-17 -36 -43 -63zM263.5 252q28.5 -17 71.5 -17t72 17t43 49q10 21 10 52t-10 52q-14 32 -43 49t-72 17t-72 -17.5t-43 -48.5q-10 -25 -10 -52t10 -52q15 -32 43.5 -49z" />
    <glyph glyph-name="yen" unicode="&#xa5;" horiz-adv-x="715" 
d="M469 347h191v-81h-205v-36h205v-81h-205v-149h-198v149h-201v81h201v36h-201v81h187l-257 359h223l149 -222l155 222h217z" />
    <glyph glyph-name="brokenbar" unicode="&#xa6;" horiz-adv-x="381" 
d="M104 756h173v-329h-173v329zM104 127h173v-330h-173v330z" />
    <glyph glyph-name="section" unicode="&#xa7;" horiz-adv-x="586" 
d="M560 -38q0 -39 -14 -72q-26 -55 -93 -82t-163 -27q-92 0 -157 25t-90 82q-8 16 -12 36.5t-4 50.5h186q0 -26 7 -40q9 -19 26 -28t46 -9q27 0 45 7.5t25 23.5q5 15 5 26q0 12 -6 28q-7 15 -23 26t-37 19.5t-65 23.5q-55 20 -88 34t-62 36.5t-44 55.5q-15 30 -15 72
q0 34 13 62q26 58 114 85q-75 34 -100 88q-13 28 -13 64q0 38 14 69q24 54 89.5 81.5t152.5 27.5q86 0 148.5 -27t88.5 -82q14 -31 14 -73h-180q0 18 -6 30q-7 16 -24.5 25t-42.5 9q-47 0 -62 -29q-4 -14 -4 -21q0 -10 5 -23q7 -15 24.5 -26.5t44 -22t53.5 -19.5
q47 -17 81.5 -33t63.5 -40t44 -57q14 -31 14 -76q0 -38 -13 -64q-22 -51 -91 -79q32 -15 54.5 -35.5t35.5 -49.5q15 -31 15 -72zM239 313q-22 -11 -30 -30q-6 -12 -6 -25q0 -15 6 -27q8 -19 31 -29.5t54 -10.5t53 10t30 28q6 12 6 28q0 13 -5 26q-9 20 -31.5 30.5
t-54.5 10.5q-31 0 -53 -11z" />
    <glyph glyph-name="dieresis" unicode="&#xa8;" horiz-adv-x="524" 
d="M94.5 566q-20.5 11 -32.5 31t-12 45t12 45t32.5 31.5t46.5 11.5t47.5 -11.5t33.5 -31.5t12 -45t-12 -45t-33.5 -31t-47.5 -11t-46.5 11zM335 565.5q-21 11.5 -33 31t-12 44.5t12 45t33 31.5t47 11.5t47 -11.5t33 -31.5t12 -45t-12 -44.5t-33 -31t-47 -11.5t-47 11.5z" />
    <glyph glyph-name="copyright" unicode="&#xa9;" horiz-adv-x="884" 
d="M276 3.5q-76 24.5 -130 70.5t-83 109q-17 37 -26 80.5t-9 89.5q0 88 35 166q29 65 84 112t130.5 71.5t166.5 24.5q89 0 163.5 -23.5t129.5 -69.5t85 -111q34 -76 34 -170q0 -91 -34 -169q-28 -63 -84 -109t-132 -71t-162 -25q-92 0 -168 24.5zM631 96.5
q77 43.5 113 123.5q26 56 26 132q0 78 -27 137q-35 79 -112.5 121.5t-187.5 42.5q-111 0 -189.5 -43t-113.5 -123q-26 -56 -26 -134q0 -79 26 -135q36 -79 113 -122t189 -43t189 43.5zM297 149.5q-62 32.5 -90 94.5q-21 47 -21 109q0 63 21 109q28 63 90 95.5t145 32.5
q59 0 108 -16.5t83 -47.5q28 -26 43.5 -59.5t16.5 -72.5h-154q-2 20 -13 34q-12 19 -34 29t-50 10q-32 0 -55 -12.5t-34 -37.5t-11 -64t11 -62q11 -25 34.5 -38t56.5 -13q30 0 51 10.5t32 28.5q10 14 12 32h155q-1 -39 -16.5 -72.5t-43.5 -58.5q-34 -31 -83 -47t-108 -16
q-84 0 -146 32.5z" />
    <glyph glyph-name="ordfeminine" unicode="&#xaa;" horiz-adv-x="460" 
d="M429 551v-199h-145v39q-46 -51 -132 -51q-48 0 -81 15.5t-47 47.5q-9 21 -9 45q0 27 10 48q18 40 65 57.5t131 17.5h63v4q0 10 -1 17.5t-4 13.5q-6 12 -18.5 17.5t-32.5 5.5q-37 0 -48 -21q-3 -6 -3 -15h-147q2 27 12 48q35 77 185 77q76 0 121 -19t65 -64q16 -33 16 -84
zM283 478.5q1 7.5 1 16.5v7h-57q-24 0 -38.5 -4t-19.5 -15q-3 -6 -3 -14t3 -14q9 -19 47 -19q49 0 62 29q4 6 5 13.5z" />
    <glyph glyph-name="guillemotleft" unicode="&#xab;" horiz-adv-x="638" 
d="M14 289l163 168h178l-163 -168l163 -168h-178zM283 289l163 168h178l-163 -168l163 -168h-178z" />
    <glyph glyph-name="logicalnot" unicode="&#xac;" horiz-adv-x="613" 
d="M427 307h-379v136h517v-397h-138v261z" />
    <glyph glyph-name="uni00AD" unicode="&#xad;" horiz-adv-x="446" 
d="M48 367h350v-147h-350v147z" />
    <glyph glyph-name="registered" unicode="&#xae;" horiz-adv-x="501" 
d="M481 512q0 -55 -18 -92q-24 -54 -79.5 -84t-133.5 -30t-133 30t-80 84q-18 41 -18 92q0 50 18 90q25 55 80 85.5t133 30.5t133.5 -30t79.5 -84q18 -37 18 -92zM423 512q0 22 -3.5 39.5t-10.5 34.5q-36 81 -159 81t-159 -81q-7 -17 -10 -34.5t-3 -39.5q0 -43 14 -74
q37 -81 158 -81q122 0 159 81q14 34 14 74zM327 500q19 -6 27 -20t8 -38v-43h-82v42q0 16 -7.5 24t-26.5 8h-23v-74h-82v226h131q92 0 92 -67q0 -42 -37 -58zM274.5 533q7.5 5 7.5 16t-7.5 16.5t-24.5 5.5h-27v-43h27q17 0 24.5 5z" />
    <glyph glyph-name="macron" unicode="&#xaf;" horiz-adv-x="463" 
d="M50 700h363v-119h-363v119z" />
    <glyph glyph-name="degree" unicode="&#xb0;" horiz-adv-x="425" 
d="M114.5 394.5q-43.5 22.5 -67.5 63t-24 91.5t24 91.5t67.5 63.5t98.5 23t98 -23t67 -63.5t24 -91.5t-24 -91.5t-67 -63t-98 -22.5t-98.5 22.5zM260 502q18 17 18 47t-18 48t-47 18q-30 0 -48 -18t-18 -48t18 -47t48 -17q29 0 47 17z" />
    <glyph glyph-name="plusminus" unicode="&#xb1;" horiz-adv-x="613" 
d="M565 442v-131h-189v-120h-141v120h-187v131h187v118h141v-118h189zM48 158h517v-131h-517v131z" />
    <glyph glyph-name="twosuperior" unicode="&#xb2;" horiz-adv-x="429" 
d="M2 445l207 190q28 26 38.5 40t10.5 29q0 10 -4 15q-9 19 -42 19q-35 0 -48 -25q-5 -10 -5 -27h-141q0 35 13 65q40 88 183 88q66 0 113.5 -19.5t65.5 -59.5q11 -25 11 -52t-12 -48t-35 -41q-28 -25 -85 -66h136v-115h-406v7z" />
    <glyph glyph-name="threesuperior" unicode="&#xb3;" horiz-adv-x="434" 
d="M413 547q0 -24 -9 -44q-18 -40 -69 -59t-123 -19q-68 0 -116.5 20t-67.5 62q-15 32 -15 78l132 1q2 -23 7 -36q14 -27 54 -27q43 0 54 23q4 10 4 17q0 10 -4 17q-10 21 -61 21h-21v76h23q47 0 56 20q2 6 2 14q0 10 -4 17q-11 17 -47 17q-40 0 -51 -24q-2 -6 -3 -11.5
t-1 -7.5h-131q0 32 10 53q19 42 68.5 63t115.5 21q63 0 111.5 -19t64.5 -56q9 -18 9 -41q0 -16 -7 -34q-16 -34 -64 -50q57 -11 75 -49q8 -19 8 -43z" />
    <glyph glyph-name="acute" unicode="&#xb4;" horiz-adv-x="398" 
d="M158 719h190l-126 -166h-172z" />
    <glyph glyph-name="mu" unicode="&#xb5;" horiz-adv-x="668" 
d="M619 501v-501h-183v63q-27 -38 -65.5 -59t-87.5 -21q-33 0 -61 11q9 -68 9 -137v-60h-183v704h184v-268q0 -57 24 -83.5t73 -26.5q53 0 80 30.5t27 89.5v258h183z" />
    <glyph glyph-name="paragraph" unicode="&#xb6;" horiz-adv-x="878" 
d="M360 231h-83q-187 0 -242 122q-11 24 -16 52t-5 63q0 36 5 64t16 52q27 60 89 91t157 31h588v-144h-85v-765h-165v765h-95v-765h-164v434z" />
    <glyph glyph-name="periodcentered" unicode="&#xb7;" horiz-adv-x="353" 
d="M123 205q-24 13 -37 36t-13 53q0 47 28.5 75t75.5 28q30 0 53.5 -12.5t36.5 -36t13 -54.5q0 -30 -13 -53t-36.5 -36t-53.5 -13t-54 13z" />
    <glyph glyph-name="cedilla" unicode="&#xb8;" horiz-adv-x="397" 
d="M318 -35.5q29 -27.5 29 -73.5q0 -61 -44.5 -86.5t-127.5 -25.5q-68 0 -125 18l21 84q23 -8 43 -11.5t44 -3.5q31 0 47 7t16 24q0 16 -15.5 23t-49.5 7h-74l29 102h131l-11 -36q58 -1 87 -28.5z" />
    <glyph glyph-name="onesuperior" unicode="&#xb9;" horiz-adv-x="291" 
d="M95 712h-91l21 114h211v-388h-141v274z" />
    <glyph glyph-name="ordmasculine" unicode="&#xba;" horiz-adv-x="485" 
d="M110.5 368.5q-56.5 27.5 -80.5 80.5q-16 33 -16 81q0 46 16 81q24 53 80.5 80t131.5 27q76 0 132.5 -27t80.5 -80q16 -35 16 -81q0 -48 -16 -81q-24 -53 -80.5 -80.5t-132.5 -27.5q-75 0 -131.5 27.5zM285.5 459.5q17.5 9.5 25.5 27.5q8 16 8 43q0 24 -8 42t-25.5 27.5
t-43.5 9.5t-43.5 -9.5t-24.5 -27.5q-8 -16 -8 -42q0 -27 8 -43q7 -18 25 -27.5t43 -9.5q26 0 43.5 9.5z" />
    <glyph glyph-name="guillemotright" unicode="&#xbb;" horiz-adv-x="638" 
d="M14 121l163 168l-163 168h178l164 -168l-164 -168h-178zM283 121l163 168l-163 168h178l164 -168l-164 -168h-178z" />
    <glyph glyph-name="onequarter" unicode="&#xbc;" horiz-adv-x="951" 
d="M95 592h-91l21 114h211v-388h-141v274zM603 706h119l-517 -706h-119zM737 66h-277v2l162 320h252v-214h68v-108h-68v-66h-137v66zM737 174v174l-82 -174h82z" />
    <glyph glyph-name="onehalf" unicode="&#xbd;" horiz-adv-x="915" 
d="M95 592h-91l21 114h211v-388h-141v274zM603 706h119l-517 -706h-119zM488 7l207 190q28 26 38.5 40t10.5 29q0 10 -4 15q-9 19 -42 19q-35 0 -48 -25q-5 -10 -5 -27h-141q0 35 13 65q40 88 183 88q66 0 113.5 -19.5t65.5 -59.5q11 -25 11 -52t-12 -48t-35 -41
q-28 -25 -85 -66h136v-115h-406v7z" />
    <glyph glyph-name="threequarters" unicode="&#xbe;" horiz-adv-x="1084" 
d="M413 427q0 -24 -9 -44q-18 -40 -69 -59t-123 -19q-68 0 -116.5 20t-67.5 62q-15 32 -15 78l132 1q2 -23 7 -36q14 -27 54 -27q43 0 54 23q4 10 4 17q0 10 -4 17q-10 21 -61 21h-21v76h23q47 0 56 20q2 6 2 14q0 10 -4 17q-11 17 -47 17q-40 0 -51 -24q-2 -6 -3 -11.5
t-1 -7.5h-131q0 32 10 53q19 42 68.5 63t115.5 21q63 0 111.5 -19t64.5 -56q9 -18 9 -41q0 -16 -7 -34q-16 -34 -64 -50q57 -11 75 -49q8 -19 8 -43zM736 706h119l-517 -706h-119zM869 66h-277v2l162 320h252v-214h68v-108h-68v-66h-137v66zM869 174v174l-82 -174h82z" />
    <glyph glyph-name="questiondown" unicode="&#xbf;" horiz-adv-x="602" 
d="M253.5 329q-23.5 13 -36.5 36t-13 53q0 47 28.5 75t75.5 28q30 0 53.5 -12.5t36.5 -36t13 -54.5q0 -30 -13 -53t-36.5 -36t-53.5 -13q-31 0 -54.5 13zM154.5 -197.5q-60.5 21.5 -93 64t-32.5 102.5q0 33 12.5 63.5t44.5 77.5t107 146h203q-8 -10 -22 -30
q-73 -97 -101.5 -137t-40 -64.5t-11.5 -47.5q0 -31 20.5 -47.5t61.5 -16.5q31 0 50.5 10t29.5 31q4 9 5.5 18.5t1.5 24.5h183q0 -31 -4 -54t-13 -43q-26 -59 -91 -89t-165 -30q-85 0 -145.5 21.5z" />
    <glyph glyph-name="Agrave" unicode="&#xc0;" horiz-adv-x="833" 
d="M584 135h-334l-52 -135h-208l286 706h281l286 -706h-207zM530 278l-112 293h-2l-112 -293h226zM355 757l-134 153h199l117 -153h-182z" />
    <glyph glyph-name="Aacute" unicode="&#xc1;" horiz-adv-x="833" 
d="M584 135h-334l-52 -135h-208l286 706h281l286 -706h-207zM530 278l-112 293h-2l-112 -293h226zM413 910h199l-134 -153h-182z" />
    <glyph glyph-name="Acircumflex" unicode="&#xc2;" horiz-adv-x="833" 
d="M584 135h-334l-52 -135h-208l286 706h281l286 -706h-207zM530 278l-112 293h-2l-112 -293h226zM303 910h226l128 -153h-175l-66 76l-65 -76h-175z" />
    <glyph glyph-name="Atilde" unicode="&#xc3;" horiz-adv-x="833" 
d="M584 135h-334l-52 -135h-208l286 706h281l286 -706h-207zM530 278l-112 293h-2l-112 -293h226zM463.5 758q-19.5 7 -49.5 21q-29 14 -43 19t-29 5q-36 0 -42 -48h-111q6 82 40.5 122t97.5 40q27 0 46.5 -7t49.5 -24q23 -12 35 -17t27 -5q19 0 29.5 11.5t16.5 36.5h113
q-4 -80 -38 -120.5t-95 -40.5q-28 0 -47.5 7z" />
    <glyph glyph-name="Adieresis" unicode="&#xc4;" horiz-adv-x="833" 
d="M584 135h-334l-52 -135h-208l286 706h281l286 -706h-207zM530 278l-112 293h-2l-112 -293h226zM240.5 764q-20.5 11 -32 30.5t-11.5 44.5t11.5 44.5t32 31t46.5 11.5t47 -11.5t32.5 -31t11.5 -44.5t-11.5 -44.5t-32.5 -30.5t-47 -11t-46.5 11zM498 764q-21 11 -32.5 30.5
t-11.5 44.5t11.5 44.5t32.5 31t47 11.5t46.5 -11.5t32.5 -31t12 -44.5t-12 -44.5t-32.5 -30.5t-46.5 -11t-47 11z" />
    <glyph glyph-name="Aring" unicode="&#xc5;" horiz-adv-x="833" 
d="M584 135h-334l-52 -135h-208l286 706h281l286 -706h-207zM530 278l-112 293h-2l-112 -293h226zM339 743q-34 16 -53 45.5t-19 68.5t19 68.5t53 45.5t78 16q43 0 77 -16t53 -45.5t19 -68.5t-19 -68.5t-53 -45.5t-77 -16q-44 0 -78 16zM456.5 820.5q14.5 13.5 14.5 36.5
t-14.5 37t-39.5 14t-40 -14t-15 -37q0 -22 15 -36t40 -14t39.5 13.5z" />
    <glyph glyph-name="AE" unicode="&#xc6;" horiz-adv-x="1003" 
d="M622 554l25 -126h314v-146h-284l26 -130h261v-152h-432l-25 136h-252l-54 -136h-211l307 706h667v-152h-342zM480 277l-54 289h-2l-114 -289h170z" />
    <glyph glyph-name="Ccedilla" unicode="&#xc7;" horiz-adv-x="854" 
d="M829 280q-2 -61 -25.5 -112t-66.5 -90q-38 -35 -91.5 -58.5t-116.5 -33.5q37 -10 55 -35t18 -62q0 -61 -44.5 -86.5t-127.5 -25.5q-69 0 -125 19l21 84q22 -8 42.5 -12t44.5 -4q31 0 47 7t16 25q0 16 -15.5 22.5t-49.5 6.5h-74l17 59q-106 14 -181 64t-112 133
q-33 77 -33 172q0 96 33 171q44 98 142.5 150.5t234.5 52.5q90 0 166 -25t129 -73q44 -39 67.5 -92t26.5 -115h-208q-3 29 -15.5 53.5t-32.5 42.5q-48 44 -136 44q-65 0 -110 -24.5t-66 -71.5q-10 -22 -15 -49.5t-5 -63.5q0 -70 19 -113q21 -48 67.5 -72t110.5 -24
q44 0 80 11.5t61 34.5q19 17 30.5 40.5t13.5 49.5h208z" />
    <glyph glyph-name="Egrave" unicode="&#xc8;" horiz-adv-x="643" 
d="M58 706h546v-152h-350v-125h347v-146h-347v-131h350v-152h-546v706zM273 757l-134 153h199l117 -153h-182z" />
    <glyph glyph-name="Eacute" unicode="&#xc9;" horiz-adv-x="643" 
d="M58 706h546v-152h-350v-125h347v-146h-347v-131h350v-152h-546v706zM331 910h199l-134 -153h-182z" />
    <glyph glyph-name="Ecircumflex" unicode="&#xca;" horiz-adv-x="643" 
d="M58 706h546v-152h-350v-125h347v-146h-347v-131h350v-152h-546v706zM221 910h226l128 -153h-175l-66 76l-65 -76h-175z" />
    <glyph glyph-name="Edieresis" unicode="&#xcb;" horiz-adv-x="643" 
d="M58 706h546v-152h-350v-125h347v-146h-347v-131h350v-152h-546v706zM158.5 764q-20.5 11 -32 30.5t-11.5 44.5t11.5 44.5t32 31t46.5 11.5t47 -11.5t32.5 -31t11.5 -44.5t-11.5 -44.5t-32.5 -30.5t-47 -11t-46.5 11zM416 764q-21 11 -32.5 30.5t-11.5 44.5t11.5 44.5
t32.5 31t47 11.5t46.5 -11.5t32.5 -31t12 -44.5t-12 -44.5t-32.5 -30.5t-46.5 -11t-47 11z" />
    <glyph glyph-name="Igrave" unicode="&#xcc;" horiz-adv-x="311" 
d="M58 706h196v-706h-196v706zM94 757l-134 153h199l117 -153h-182z" />
    <glyph glyph-name="Iacute" unicode="&#xcd;" horiz-adv-x="311" 
d="M58 706h196v-706h-196v706zM152 910h199l-134 -153h-182z" />
    <glyph glyph-name="Icircumflex" unicode="&#xce;" horiz-adv-x="311" 
d="M58 706h196v-706h-196v706zM43 910h222l100 -153h-164l-47 74l-45 -74h-165z" />
    <glyph glyph-name="Idieresis" unicode="&#xcf;" horiz-adv-x="311" 
d="M58 706h196v-706h-196v706zM13.5 767q-18.5 11 -29.5 30.5t-11 42.5q0 24 11 43.5t29.5 31t42.5 11.5t43 -11.5t30 -31t11 -43.5q0 -23 -11 -42.5t-30 -30.5t-43 -11t-42.5 11zM214 766q-19 11 -30 30.5t-11 42.5q0 24 11 43.5t30 31t43 11.5t42.5 -11.5t29.5 -31
t11 -43.5q0 -23 -11 -42.5t-29.5 -30.5t-42.5 -11t-43 11z" />
    <glyph glyph-name="Eth" unicode="&#xd0;" horiz-adv-x="828" 
d="M800 353q0 -99 -32 -167q-41 -92 -131.5 -139t-223.5 -47h-355v299h-59v113h59v294h355q134 0 224.5 -47.5t130.5 -139.5q32 -72 32 -166zM589 353q0 62 -18 102q-21 45 -65 67.5t-115 22.5h-137v-133h169v-113h-169v-138h137q71 0 115.5 23t65.5 68q17 38 17 101z" />
    <glyph glyph-name="Ntilde" unicode="&#xd1;" horiz-adv-x="843" 
d="M58 706h207l328 -451v451h192v-706h-212l-323 444v-444h-192v706zM472.5 758q-19.5 7 -49.5 21q-29 14 -43 19t-29 5q-36 0 -42 -48h-111q6 82 40.5 122t97.5 40q27 0 46.5 -7t49.5 -24q23 -12 35 -17t27 -5q19 0 29.5 11.5t16.5 36.5h113q-4 -80 -38 -120.5t-95 -40.5
q-28 0 -47.5 7z" />
    <glyph glyph-name="Ograve" unicode="&#xd2;" horiz-adv-x="875" 
d="M207 27.5q-95 48.5 -139 141.5q-40 78 -40 184q0 95 34 172q43 98 140.5 150t235.5 52q137 0 233.5 -51t139.5 -147q35 -80 35 -176q0 -99 -36 -180q-45 -94 -141 -144t-232 -50q-135 0 -230 48.5zM550.5 170.5q45.5 25.5 66.5 73.5q10 22 14.5 48t4.5 61q0 36 -5 63
t-15 49q-22 48 -67 72t-112 24q-66 0 -111.5 -25t-67.5 -72q-10 -22 -14.5 -48.5t-4.5 -62.5q0 -34 5 -60.5t15 -49.5q21 -48 67 -73t112 -25q67 0 112.5 25.5zM376 757l-134 153h199l117 -153h-182z" />
    <glyph glyph-name="Oacute" unicode="&#xd3;" horiz-adv-x="875" 
d="M207 27.5q-95 48.5 -139 141.5q-40 78 -40 184q0 95 34 172q43 98 140.5 150t235.5 52q137 0 233.5 -51t139.5 -147q35 -80 35 -176q0 -99 -36 -180q-45 -94 -141 -144t-232 -50q-135 0 -230 48.5zM550.5 170.5q45.5 25.5 66.5 73.5q10 22 14.5 48t4.5 61q0 36 -5 63
t-15 49q-22 48 -67 72t-112 24q-66 0 -111.5 -25t-67.5 -72q-10 -22 -14.5 -48.5t-4.5 -62.5q0 -34 5 -60.5t15 -49.5q21 -48 67 -73t112 -25q67 0 112.5 25.5zM434 910h199l-134 -153h-182z" />
    <glyph glyph-name="Ocircumflex" unicode="&#xd4;" horiz-adv-x="875" 
d="M207 27.5q-95 48.5 -139 141.5q-40 78 -40 184q0 95 34 172q43 98 140.5 150t235.5 52q137 0 233.5 -51t139.5 -147q35 -80 35 -176q0 -99 -36 -180q-45 -94 -141 -144t-232 -50q-135 0 -230 48.5zM550.5 170.5q45.5 25.5 66.5 73.5q10 22 14.5 48t4.5 61q0 36 -5 63
t-15 49q-22 48 -67 72t-112 24q-66 0 -111.5 -25t-67.5 -72q-10 -22 -14.5 -48.5t-4.5 -62.5q0 -34 5 -60.5t15 -49.5q21 -48 67 -73t112 -25q67 0 112.5 25.5zM324 910h226l128 -153h-175l-66 76l-65 -76h-175z" />
    <glyph glyph-name="Otilde" unicode="&#xd5;" horiz-adv-x="875" 
d="M207 27.5q-95 48.5 -139 141.5q-40 78 -40 184q0 95 34 172q43 98 140.5 150t235.5 52q137 0 233.5 -51t139.5 -147q35 -80 35 -176q0 -99 -36 -180q-45 -94 -141 -144t-232 -50q-135 0 -230 48.5zM550.5 170.5q45.5 25.5 66.5 73.5q10 22 14.5 48t4.5 61q0 36 -5 63
t-15 49q-22 48 -67 72t-112 24q-66 0 -111.5 -25t-67.5 -72q-10 -22 -14.5 -48.5t-4.5 -62.5q0 -34 5 -60.5t15 -49.5q21 -48 67 -73t112 -25q67 0 112.5 25.5zM483.5 758q-19.5 7 -49.5 21q-29 14 -43 19t-29 5q-36 0 -42 -48h-111q6 82 40.5 122t97.5 40q27 0 46.5 -7
t49.5 -24q23 -12 35 -17t27 -5q19 0 29.5 11.5t16.5 36.5h113q-4 -80 -38 -120.5t-95 -40.5q-28 0 -47.5 7z" />
    <glyph glyph-name="Odieresis" unicode="&#xd6;" horiz-adv-x="875" 
d="M207 27.5q-95 48.5 -139 141.5q-40 78 -40 184q0 95 34 172q43 98 140.5 150t235.5 52q137 0 233.5 -51t139.5 -147q35 -80 35 -176q0 -99 -36 -180q-45 -94 -141 -144t-232 -50q-135 0 -230 48.5zM550.5 170.5q45.5 25.5 66.5 73.5q10 22 14.5 48t4.5 61q0 36 -5 63
t-15 49q-22 48 -67 72t-112 24q-66 0 -111.5 -25t-67.5 -72q-10 -22 -14.5 -48.5t-4.5 -62.5q0 -34 5 -60.5t15 -49.5q21 -48 67 -73t112 -25q67 0 112.5 25.5zM261.5 764q-20.5 11 -32 30.5t-11.5 44.5t11.5 44.5t32 31t46.5 11.5t47 -11.5t32.5 -31t11.5 -44.5
t-11.5 -44.5t-32.5 -30.5t-47 -11t-46.5 11zM519 764q-21 11 -32.5 30.5t-11.5 44.5t11.5 44.5t32.5 31t47 11.5t46.5 -11.5t32.5 -31t12 -44.5t-12 -44.5t-32.5 -30.5t-46.5 -11t-47 11z" />
    <glyph glyph-name="multiply" unicode="&#xd7;" horiz-adv-x="613" 
d="M402 294l143 -144l-96 -94l-142 143l-144 -144l-95 95l144 144l-144 143l95 95l144 -143l142 142l96 -94z" />
    <glyph glyph-name="Oslash" unicode="&#xd8;" horiz-adv-x="875" 
d="M811 529q35 -80 35 -176q0 -99 -36 -180q-45 -94 -141 -144t-232 -50q-163 0 -266 70l-55 -49h-141l127 114q-22 29 -34 55q-40 78 -40 184q0 95 34 172q43 98 140.5 150t235.5 52q80 0 147.5 -17.5t118.5 -52.5l52 49h145l-127 -115q21 -26 37 -62zM243.5 415.5
q-4.5 -26.5 -4.5 -62.5q0 -61 17 -104l305 281q-47 31 -124 31q-66 0 -111.5 -25t-67.5 -72q-10 -22 -14.5 -48.5zM631.5 292q4.5 26 4.5 61q0 63 -16 104l-305 -281q50 -31 123 -31q67 0 112.5 25.5t66.5 73.5q10 22 14.5 48z" />
    <glyph glyph-name="Ugrave" unicode="&#xd9;" horiz-adv-x="786" 
d="M128.5 55.5q-85.5 76.5 -85.5 231.5v419h196v-406q0 -81 37 -119t116 -38q80 0 117 38t37 119v406h196v-419q0 -156 -85 -232t-264 -76t-264.5 76.5zM332 757l-134 153h199l117 -153h-182z" />
    <glyph glyph-name="Uacute" unicode="&#xda;" horiz-adv-x="786" 
d="M128.5 55.5q-85.5 76.5 -85.5 231.5v419h196v-406q0 -81 37 -119t116 -38q80 0 117 38t37 119v406h196v-419q0 -156 -85 -232t-264 -76t-264.5 76.5zM389 910h199l-134 -153h-182z" />
    <glyph glyph-name="Ucircumflex" unicode="&#xdb;" horiz-adv-x="786" 
d="M128.5 55.5q-85.5 76.5 -85.5 231.5v419h196v-406q0 -81 37 -119t116 -38q80 0 117 38t37 119v406h196v-419q0 -156 -85 -232t-264 -76t-264.5 76.5zM279 910h226l128 -153h-175l-66 76l-65 -76h-175z" />
    <glyph glyph-name="Udieresis" unicode="&#xdc;" horiz-adv-x="786" 
d="M128.5 55.5q-85.5 76.5 -85.5 231.5v419h196v-406q0 -81 37 -119t116 -38q80 0 117 38t37 119v406h196v-419q0 -156 -85 -232t-264 -76t-264.5 76.5zM217.5 764q-20.5 11 -32 30.5t-11.5 44.5t11.5 44.5t32 31t46.5 11.5t47 -11.5t32.5 -31t11.5 -44.5t-11.5 -44.5
t-32.5 -30.5t-47 -11t-46.5 11zM475 764q-21 11 -32.5 30.5t-11.5 44.5t11.5 44.5t32.5 31t47 11.5t46.5 -11.5t32.5 -31t12 -44.5t-12 -44.5t-32.5 -30.5t-46.5 -11t-47 11z" />
    <glyph glyph-name="Yacute" unicode="&#xdd;" horiz-adv-x="724" 
d="M264 308l-274 398h221l151 -226l151 226h221l-274 -398v-308h-196v308zM360 910h199l-134 -153h-182z" />
    <glyph glyph-name="Thorn" unicode="&#xde;" horiz-adv-x="693" 
d="M58 706h196v-105h150q197 0 253 -126q22 -50 22 -120t-22 -120q-56 -126 -253 -126h-150v-109h-196v706zM358 254q46 0 73.5 12.5t39.5 39.5q9 20 9 49t-9 50q-23 51 -113 51h-104v-202h104z" />
    <glyph glyph-name="germandbls" unicode="&#xdf;" horiz-adv-x="667" 
d="M648 212q0 -55 -18 -94q-55 -120 -273 -120q-42 0 -81 3v121q13 -1 39 -1q53 0 85 13t45 42q9 23 9 52q0 31 -9 52q-26 57 -127 57h-39v116h32q48 0 76 11.5t39 35.5q6 14 6 33q0 14 -6 32q-20 41 -86 41q-37 0 -60.5 -12.5t-35.5 -39.5q-12 -25 -12 -74v-480h-184v470
q0 71 23 125q31 66 96 99t174 33q105 0 170.5 -28t90.5 -84q14 -33 14 -70q0 -36 -13 -65q-25 -55 -91 -77q85 -22 118 -96q18 -40 18 -95z" />
    <glyph glyph-name="agrave" unicode="&#xe0;" horiz-adv-x="641" 
d="M597 284v-284h-183v61q-31 -38 -78.5 -57.5t-115.5 -19.5q-70 0 -117.5 22t-68.5 67q-13 31 -13 64q0 36 13 67q28 61 102 83t189 22h88v7q0 17 -2 27t-6 19q-17 40 -86 40q-68 0 -85 -37q-5 -13 -5 -24h-185q2 38 15 65q26 59 93 85.5t165 26.5q104 0 168 -27t90 -88
q22 -47 22 -119zM365 121q29 13 41 39q8 19 8 48v6h-83q-48 0 -76.5 -6.5t-37.5 -25.5q-4 -10 -4 -21q0 -12 4 -21q14 -32 78 -32q41 0 70 13zM266 553l-126 166h190l108 -166h-172z" />
    <glyph glyph-name="aacute" unicode="&#xe1;" horiz-adv-x="641" 
d="M597 284v-284h-183v61q-31 -38 -78.5 -57.5t-115.5 -19.5q-70 0 -117.5 22t-68.5 67q-13 31 -13 64q0 36 13 67q28 61 102 83t189 22h88v7q0 17 -2 27t-6 19q-17 40 -86 40q-68 0 -85 -37q-5 -13 -5 -24h-185q2 38 15 65q26 59 93 85.5t165 26.5q104 0 168 -27t90 -88
q22 -47 22 -119zM365 121q29 13 41 39q8 19 8 48v6h-83q-48 0 -76.5 -6.5t-37.5 -25.5q-4 -10 -4 -21q0 -12 4 -21q14 -32 78 -32q41 0 70 13zM317 719h190l-126 -166h-172z" />
    <glyph glyph-name="acircumflex" unicode="&#xe2;" horiz-adv-x="641" 
d="M597 284v-284h-183v61q-31 -38 -78.5 -57.5t-115.5 -19.5q-70 0 -117.5 22t-68.5 67q-13 31 -13 64q0 36 13 67q28 61 102 83t189 22h88v7q0 17 -2 27t-6 19q-17 40 -86 40q-68 0 -85 -37q-5 -13 -5 -24h-185q2 38 15 65q26 59 93 85.5t165 26.5q104 0 168 -27t90 -88
q22 -47 22 -119zM365 121q29 13 41 39q8 19 8 48v6h-83q-48 0 -76.5 -6.5t-37.5 -25.5q-4 -10 -4 -21q0 -12 4 -21q14 -32 78 -32q41 0 70 13zM215 719h217l112 -166h-163l-58 85l-57 -85h-163z" />
    <glyph glyph-name="atilde" unicode="&#xe3;" horiz-adv-x="641" 
d="M597 284v-284h-183v61q-31 -38 -78.5 -57.5t-115.5 -19.5q-70 0 -117.5 22t-68.5 67q-13 31 -13 64q0 36 13 67q28 61 102 83t189 22h88v7q0 17 -2 27t-6 19q-17 40 -86 40q-68 0 -85 -37q-5 -13 -5 -24h-185q2 38 15 65q26 59 93 85.5t165 26.5q104 0 168 -27t90 -88
q22 -47 22 -119zM365 121q29 13 41 39q8 19 8 48v6h-83q-48 0 -76.5 -6.5t-37.5 -25.5q-4 -10 -4 -21q0 -12 4 -21q14 -32 78 -32q41 0 70 13zM365.5 558.5q-21.5 7.5 -43.5 21.5q-8 5 -22.5 14t-24.5 13t-20 4q-19 0 -29 -14t-12 -44h-106q6 88 36 130.5t91 42.5
q26 0 47.5 -7.5t45.5 -23.5q6 -4 19 -12.5t23.5 -12.5t20.5 -4q18 0 27 13.5t13 44.5h107q-4 -91 -34 -132t-90 -41q-27 0 -48.5 7.5z" />
    <glyph glyph-name="adieresis" unicode="&#xe4;" horiz-adv-x="641" 
d="M597 284v-284h-183v61q-31 -38 -78.5 -57.5t-115.5 -19.5q-70 0 -117.5 22t-68.5 67q-13 31 -13 64q0 36 13 67q28 61 102 83t189 22h88v7q0 17 -2 27t-6 19q-17 40 -86 40q-68 0 -85 -37q-5 -13 -5 -24h-185q2 38 15 65q26 59 93 85.5t165 26.5q104 0 168 -27t90 -88
q22 -47 22 -119zM365 121q29 13 41 39q8 19 8 48v6h-83q-48 0 -76.5 -6.5t-37.5 -25.5q-4 -10 -4 -21q0 -12 4 -21q14 -32 78 -32q41 0 70 13zM155.5 566q-20.5 11 -32.5 31t-12 45t12 45t32.5 31.5t46.5 11.5t47.5 -11.5t33.5 -31.5t12 -45t-12 -45t-33.5 -31t-47.5 -11
t-46.5 11zM396 565.5q-21 11.5 -33 31t-12 44.5t12 45t33 31.5t47 11.5t47 -11.5t33 -31.5t12 -45t-12 -44.5t-33 -31t-47 -11.5t-47 11.5z" />
    <glyph glyph-name="aring" unicode="&#xe5;" horiz-adv-x="641" 
d="M597 284v-284h-183v61q-31 -38 -78.5 -57.5t-115.5 -19.5q-70 0 -117.5 22t-68.5 67q-13 31 -13 64q0 36 13 67q28 61 102 83t189 22h88v7q0 17 -2 27t-6 19q-17 40 -86 40q-68 0 -85 -37q-5 -13 -5 -24h-185q2 38 15 65q26 59 93 85.5t165 26.5q104 0 168 -27t90 -88
q22 -47 22 -119zM365 121q29 13 41 39q8 19 8 48v6h-83q-48 0 -76.5 -6.5t-37.5 -25.5q-4 -10 -4 -21q0 -12 4 -21q14 -32 78 -32q41 0 70 13zM246 558q-34 16 -53 45.5t-19 68.5t19 68.5t53 45.5t78 16q43 0 77 -16t53 -45.5t19 -68.5t-19 -68.5t-53 -45.5t-77 -16
q-44 0 -78 16zM363.5 635.5q14.5 13.5 14.5 36.5t-14.5 37t-39.5 14t-40 -14t-15 -37q0 -22 15 -36t40 -14t39.5 13.5z" />
    <glyph glyph-name="ae" unicode="&#xe6;" horiz-adv-x="1017" 
d="M804 167h190q-10 -70 -59 -116q-38 -35 -95 -51.5t-126 -16.5q-79 0 -140 24t-99 70q-40 -47 -96.5 -70.5t-137.5 -23.5q-78 0 -132 23.5t-75 69.5q-13 29 -13 62q0 35 13 66q26 61 100.5 83t190.5 22h88v6q0 17 -1.5 27.5t-6.5 20.5q-19 39 -86 39q-68 0 -85 -37
q-5 -13 -5 -24h-185q1 34 15 65q26 59 93 85.5t165 26.5q71 0 120.5 -12t81.5 -39q71 51 183 51q99 0 167 -39.5t101 -110.5q14 -33 20.5 -72t7.5 -90h-399q3 -24 10 -41q13 -28 39 -43t64 -15q23 0 41.5 6.5t31.5 17.5q16 15 19 36zM646 382q-24 -14 -36 -41
q-7 -15 -10 -37h210q-3 22 -10 37q-12 27 -36.5 41t-59.5 14q-34 0 -58 -14zM414 214h-83q-48 0 -76 -6t-38 -25q-4 -12 -4 -21q0 -13 4 -22q15 -32 78 -32q42 0 70.5 12.5t39.5 38.5q5 9 7 20.5t2 28.5v6z" />
    <glyph glyph-name="ccedilla" unicode="&#xe7;" horiz-adv-x="667" 
d="M647 208q-3 -45 -19.5 -80.5t-48.5 -64.5q-65 -57 -168 -74q44 -7 66 -33t22 -66q0 -61 -44.5 -87t-127.5 -26q-65 0 -125 19l21 84q21 -8 41.5 -11.5t45.5 -3.5q31 0 47 7t16 24q0 16 -15.5 22.5t-49.5 6.5h-74l18 64q-74 12 -128.5 48.5t-80.5 95.5q-24 53 -24 118
q0 64 24 118q32 73 108 111t181 38q160 0 247 -80q61 -54 66 -140h-197q-3 31 -27 55q-31 26 -88 26q-39 0 -66.5 -15t-40.5 -44q-7 -13 -9.5 -29t-2.5 -40q0 -23 2.5 -39t9.5 -29q13 -29 40.5 -44.5t66.5 -15.5q58 0 88 27q12 11 19 26t9 32h198z" />
    <glyph glyph-name="egrave" unicode="&#xe8;" horiz-adv-x="668" 
d="M459 167h186q-10 -66 -59 -110q-42 -39 -104.5 -56.5t-138.5 -17.5q-110 0 -189.5 39.5t-111.5 113.5q-23 51 -23 115q0 34 5.5 62.5t17.5 54.5q33 74 109.5 112t180.5 38q107 0 181.5 -40.5t107.5 -115.5q15 -34 21.5 -70.5t6.5 -85.5h-444q3 -24 10 -37q13 -31 47 -46
t82 -15q30 0 55.5 6.5t39.5 19.5q15 12 20 33zM259.5 381q-30.5 -15 -44.5 -45q-7 -14 -10 -32h259q-3 16 -9 32q-14 30 -45 45t-76 15q-44 0 -74.5 -15zM277 553l-126 166h190l108 -166h-172z" />
    <glyph glyph-name="eacute" unicode="&#xe9;" horiz-adv-x="668" 
d="M459 167h186q-10 -66 -59 -110q-42 -39 -104.5 -56.5t-138.5 -17.5q-110 0 -189.5 39.5t-111.5 113.5q-23 51 -23 115q0 34 5.5 62.5t17.5 54.5q33 74 109.5 112t180.5 38q107 0 181.5 -40.5t107.5 -115.5q15 -34 21.5 -70.5t6.5 -85.5h-444q3 -24 10 -37q13 -31 47 -46
t82 -15q30 0 55.5 6.5t39.5 19.5q15 12 20 33zM259.5 381q-30.5 -15 -44.5 -45q-7 -14 -10 -32h259q-3 16 -9 32q-14 30 -45 45t-76 15q-44 0 -74.5 -15zM328 719h190l-126 -166h-172z" />
    <glyph glyph-name="ecircumflex" unicode="&#xea;" horiz-adv-x="668" 
d="M459 167h186q-10 -66 -59 -110q-42 -39 -104.5 -56.5t-138.5 -17.5q-110 0 -189.5 39.5t-111.5 113.5q-23 51 -23 115q0 34 5.5 62.5t17.5 54.5q33 74 109.5 112t180.5 38q107 0 181.5 -40.5t107.5 -115.5q15 -34 21.5 -70.5t6.5 -85.5h-444q3 -24 10 -37q13 -31 47 -46
t82 -15q30 0 55.5 6.5t39.5 19.5q15 12 20 33zM259.5 381q-30.5 -15 -44.5 -45q-7 -14 -10 -32h259q-3 16 -9 32q-14 30 -45 45t-76 15q-44 0 -74.5 -15zM226 719h217l112 -166h-163l-58 85l-57 -85h-163z" />
    <glyph glyph-name="edieresis" unicode="&#xeb;" horiz-adv-x="668" 
d="M459 167h186q-10 -66 -59 -110q-42 -39 -104.5 -56.5t-138.5 -17.5q-110 0 -189.5 39.5t-111.5 113.5q-23 51 -23 115q0 34 5.5 62.5t17.5 54.5q33 74 109.5 112t180.5 38q107 0 181.5 -40.5t107.5 -115.5q15 -34 21.5 -70.5t6.5 -85.5h-444q3 -24 10 -37q13 -31 47 -46
t82 -15q30 0 55.5 6.5t39.5 19.5q15 12 20 33zM259.5 381q-30.5 -15 -44.5 -45q-7 -14 -10 -32h259q-3 16 -9 32q-14 30 -45 45t-76 15q-44 0 -74.5 -15zM166.5 566q-20.5 11 -32.5 31t-12 45t12 45t32.5 31.5t46.5 11.5t47.5 -11.5t33.5 -31.5t12 -45t-12 -45t-33.5 -31
t-47.5 -11t-46.5 11zM407 565.5q-21 11.5 -33 31t-12 44.5t12 45t33 31.5t47 11.5t47 -11.5t33 -31.5t12 -45t-12 -44.5t-33 -31t-47 -11.5t-47 11.5z" />
    <glyph glyph-name="igrave" unicode="&#xec;" horiz-adv-x="280" 
d="M48 501h184v-501h-184v501zM81 553l-111 166h189l91 -166h-169z" />
    <glyph glyph-name="iacute" unicode="&#xed;" horiz-adv-x="280" 
d="M48 501h184v-501h-184v501zM122 719h189l-111 -166h-169z" />
    <glyph glyph-name="icircumflex" unicode="&#xee;" horiz-adv-x="280" 
d="M48 501h184v-501h-184v501zM51 719h179l86 -166h-135l-41 85l-40 -85h-136z" />
    <glyph glyph-name="idieresis" unicode="&#xef;" horiz-adv-x="280" 
d="M48 501h184v-501h-184v501zM-8.5 581.5q-22.5 22.5 -22.5 59.5t22.5 60.5t58.5 23.5q35 0 57.5 -23.5t22.5 -60.5t-22.5 -59.5t-57.5 -22.5q-36 0 -58.5 22.5zM174.5 581q-22.5 23 -22.5 60t22.5 60.5t58.5 23.5t58 -23t22 -61q0 -37 -22 -60t-58 -23t-58.5 23z" />
    <glyph glyph-name="eth" unicode="&#xf0;" horiz-adv-x="690" 
d="M655 355.5q9 -42.5 9 -93.5q0 -73 -24 -127q-33 -75 -111 -113.5t-198 -38.5q-108 0 -184 35t-108 104q-20 46 -20 105q0 63 22 110q29 65 93 101t152 36q86 0 147 -36q-27 46 -77 106l-251 -60v104l171 41l-79 75v2h224l35 -34l153 36v-104l-75 -18q61 -73 92 -144
q20 -44 29 -86.5zM468 234q0 32 -11 57q-14 29 -44 44.5t-72 15.5t-72.5 -15.5t-43.5 -45.5q-11 -24 -11 -57q0 -34 10 -55q13 -29 44 -44.5t73 -15.5q43 0 73.5 15t43.5 45q10 21 10 56z" />
    <glyph glyph-name="ntilde" unicode="&#xf1;" horiz-adv-x="663" 
d="M566 464q53 -54 53 -157v-307h-183v272q0 55 -24.5 81t-72.5 26q-53 0 -80 -31t-27 -89v-259h-184v501h184v-66q63 83 180 83q101 0 154 -54zM377.5 558.5q-21.5 7.5 -43.5 21.5q-8 5 -22.5 14t-24.5 13t-20 4q-19 0 -29 -14t-12 -44h-106q6 88 36 130.5t91 42.5
q26 0 47.5 -7.5t45.5 -23.5q6 -4 19 -12.5t23.5 -12.5t20.5 -4q18 0 27 13.5t13 44.5h107q-4 -91 -34 -132t-90 -41q-27 0 -48.5 7.5z" />
    <glyph glyph-name="ograve" unicode="&#xf2;" horiz-adv-x="678" 
d="M151.5 24q-77.5 40 -110.5 116q-22 48 -22 111t22 111q33 76 110.5 116t187.5 40t187 -39.5t110 -113.5q23 -52 23 -114q0 -63 -23 -115q-33 -74 -110 -113t-187 -39t-187.5 40zM411.5 138q29.5 15 42.5 45q11 25 11 68q0 44 -11 67q-13 30 -42.5 45.5t-72.5 15.5
q-42 0 -71.5 -16t-43.5 -45q-11 -25 -11 -67q0 -44 11 -67q13 -30 42.5 -45.5t72.5 -15.5t72.5 15zM282 553l-126 166h190l108 -166h-172z" />
    <glyph glyph-name="oacute" unicode="&#xf3;" horiz-adv-x="678" 
d="M151.5 24q-77.5 40 -110.5 116q-22 48 -22 111t22 111q33 76 110.5 116t187.5 40t187 -39.5t110 -113.5q23 -52 23 -114q0 -63 -23 -115q-33 -74 -110 -113t-187 -39t-187.5 40zM411.5 138q29.5 15 42.5 45q11 25 11 68q0 44 -11 67q-13 30 -42.5 45.5t-72.5 15.5
q-42 0 -71.5 -16t-43.5 -45q-11 -25 -11 -67q0 -44 11 -67q13 -30 42.5 -45.5t72.5 -15.5t72.5 15zM333 719h190l-126 -166h-172z" />
    <glyph glyph-name="ocircumflex" unicode="&#xf4;" horiz-adv-x="678" 
d="M151.5 24q-77.5 40 -110.5 116q-22 48 -22 111t22 111q33 76 110.5 116t187.5 40t187 -39.5t110 -113.5q23 -52 23 -114q0 -63 -23 -115q-33 -74 -110 -113t-187 -39t-187.5 40zM411.5 138q29.5 15 42.5 45q11 25 11 68q0 44 -11 67q-13 30 -42.5 45.5t-72.5 15.5
q-42 0 -71.5 -16t-43.5 -45q-11 -25 -11 -67q0 -44 11 -67q13 -30 42.5 -45.5t72.5 -15.5t72.5 15zM231 719h217l112 -166h-163l-58 85l-57 -85h-163z" />
    <glyph glyph-name="otilde" unicode="&#xf5;" horiz-adv-x="678" 
d="M151.5 24q-77.5 40 -110.5 116q-22 48 -22 111t22 111q33 76 110.5 116t187.5 40t187 -39.5t110 -113.5q23 -52 23 -114q0 -63 -23 -115q-33 -74 -110 -113t-187 -39t-187.5 40zM411.5 138q29.5 15 42.5 45q11 25 11 68q0 44 -11 67q-13 30 -42.5 45.5t-72.5 15.5
q-42 0 -71.5 -16t-43.5 -45q-11 -25 -11 -67q0 -44 11 -67q13 -30 42.5 -45.5t72.5 -15.5t72.5 15zM381.5 558.5q-21.5 7.5 -43.5 21.5q-8 5 -22.5 14t-24.5 13t-20 4q-19 0 -29 -14t-12 -44h-106q6 88 36 130.5t91 42.5q26 0 47.5 -7.5t45.5 -23.5q6 -4 19 -12.5
t23.5 -12.5t20.5 -4q18 0 27 13.5t13 44.5h107q-4 -91 -34 -132t-90 -41q-27 0 -48.5 7.5z" />
    <glyph glyph-name="odieresis" unicode="&#xf6;" horiz-adv-x="678" 
d="M151.5 24q-77.5 40 -110.5 116q-22 48 -22 111t22 111q33 76 110.5 116t187.5 40t187 -39.5t110 -113.5q23 -52 23 -114q0 -63 -23 -115q-33 -74 -110 -113t-187 -39t-187.5 40zM411.5 138q29.5 15 42.5 45q11 25 11 68q0 44 -11 67q-13 30 -42.5 45.5t-72.5 15.5
q-42 0 -71.5 -16t-43.5 -45q-11 -25 -11 -67q0 -44 11 -67q13 -30 42.5 -45.5t72.5 -15.5t72.5 15zM171.5 566q-20.5 11 -32.5 31t-12 45t12 45t32.5 31.5t46.5 11.5t47.5 -11.5t33.5 -31.5t12 -45t-12 -45t-33.5 -31t-47.5 -11t-46.5 11zM412 565.5q-21 11.5 -33 31
t-12 44.5t12 45t33 31.5t47 11.5t47 -11.5t33 -31.5t12 -45t-12 -44.5t-33 -31t-47 -11.5t-47 11.5z" />
    <glyph glyph-name="divide" unicode="&#xf7;" horiz-adv-x="613" 
d="M244 438q-24 23 -24 60t23.5 59.5t62.5 22.5q38 0 61.5 -22.5t23.5 -59.5t-23.5 -60t-61.5 -23t-62 23zM48 362h517v-136h-517v136zM244 30q-24 23 -24 60q0 38 23.5 60.5t62.5 22.5q38 0 61.5 -22.5t23.5 -60.5q0 -37 -23.5 -60t-61.5 -23t-62 23z" />
    <glyph glyph-name="oslash" unicode="&#xf8;" horiz-adv-x="678" 
d="M636 365q23 -52 23 -114q0 -63 -23 -115q-33 -74 -110 -113t-187 -39q-115 0 -192 43l-30 -27h-119l85 76q-25 26 -42 64q-22 48 -22 111t22 111q33 76 110.5 116t187.5 40q114 0 192 -42l26 25h121l-82 -74q26 -29 40 -62zM213 251q0 -35 7 -57l188 171q-27 14 -69 14
t-71.5 -16t-43.5 -45q-11 -25 -11 -67zM465 251q0 35 -7 57l-188 -171q30 -14 69 -14q43 0 72.5 15t42.5 45q11 25 11 68z" />
    <glyph glyph-name="ugrave" unicode="&#xf9;" horiz-adv-x="663" 
d="M615 501v-501h-184v67q-65 -84 -181 -84q-100 0 -153.5 54t-53.5 157v307h184v-271q0 -55 24.5 -81t72.5 -26q53 0 80 31t27 89v258h184zM273 553l-126 166h190l108 -166h-172z" />
    <glyph glyph-name="uacute" unicode="&#xfa;" horiz-adv-x="663" 
d="M615 501v-501h-184v67q-65 -84 -181 -84q-100 0 -153.5 54t-53.5 157v307h184v-271q0 -55 24.5 -81t72.5 -26q53 0 80 31t27 89v258h184zM324 719h190l-126 -166h-172z" />
    <glyph glyph-name="ucircumflex" unicode="&#xfb;" horiz-adv-x="663" 
d="M615 501v-501h-184v67q-65 -84 -181 -84q-100 0 -153.5 54t-53.5 157v307h184v-271q0 -55 24.5 -81t72.5 -26q53 0 80 31t27 89v258h184zM221 719h217l112 -166h-163l-58 85l-57 -85h-163z" />
    <glyph glyph-name="udieresis" unicode="&#xfc;" horiz-adv-x="663" 
d="M615 501v-501h-184v67q-65 -84 -181 -84q-100 0 -153.5 54t-53.5 157v307h184v-271q0 -55 24.5 -81t72.5 -26q53 0 80 31t27 89v258h184zM161.5 566q-20.5 11 -32.5 31t-12 45t12 45t32.5 31.5t46.5 11.5t47.5 -11.5t33.5 -31.5t12 -45t-12 -45t-33.5 -31t-47.5 -11
t-46.5 11zM402 565.5q-21 11.5 -33 31t-12 44.5t12 45t33 31.5t47 11.5t47 -11.5t33 -31.5t12 -45t-12 -44.5t-33 -31t-47 -11.5t-47 11.5z" />
    <glyph glyph-name="yacute" unicode="&#xfd;" horiz-adv-x="627" 
d="M632 501l-323 -704h-185l96 206l-225 498h196l126 -318l125 318h190zM310 719h190l-126 -166h-172z" />
    <glyph glyph-name="thorn" unicode="&#xfe;" horiz-adv-x="688" 
d="M669 250q0 -73 -26 -130q-29 -65 -88.5 -100.5t-140.5 -35.5q-58 0 -104 18.5t-78 55.5v-261h-184v909h184v-264q32 37 78.5 56t103.5 19q81 0 140.5 -36t88.5 -101q26 -57 26 -130zM475 250q0 44 -11 67q-14 30 -43 45t-69 15q-55 0 -89 -30.5t-34 -87.5v-17
q0 -57 34 -88t89 -31q40 0 69 15t43 45q11 25 11 67z" />
    <glyph glyph-name="ydieresis" unicode="&#xff;" horiz-adv-x="627" 
d="M632 501l-323 -704h-185l96 206l-225 498h196l126 -318l125 318h190zM148.5 566q-20.5 11 -32.5 31t-12 45t12 45t32.5 31.5t46.5 11.5t47.5 -11.5t33.5 -31.5t12 -45t-12 -45t-33.5 -31t-47.5 -11t-46.5 11zM389 565.5q-21 11.5 -33 31t-12 44.5t12 45t33 31.5t47 11.5
t47 -11.5t33 -31.5t12 -45t-12 -44.5t-33 -31t-47 -11.5t-47 11.5z" />
    <glyph glyph-name="Amacron" unicode="&#x100;" horiz-adv-x="833" 
d="M584 135h-334l-52 -135h-208l286 706h281l286 -706h-207zM530 278l-112 293h-2l-112 -293h226zM233 894h368v-120h-368v120z" />
    <glyph glyph-name="amacron" unicode="&#x101;" horiz-adv-x="641" 
d="M597 284v-284h-183v61q-31 -38 -78.5 -57.5t-115.5 -19.5q-70 0 -117.5 22t-68.5 67q-13 31 -13 64q0 36 13 67q28 61 102 83t189 22h88v7q0 17 -2 27t-6 19q-17 40 -86 40q-68 0 -85 -37q-5 -13 -5 -24h-185q2 38 15 65q26 59 93 85.5t165 26.5q104 0 168 -27t90 -88
q22 -47 22 -119zM365 121q29 13 41 39q8 19 8 48v6h-83q-48 0 -76.5 -6.5t-37.5 -25.5q-4 -10 -4 -21q0 -12 4 -21q14 -32 78 -32q41 0 70 13zM142 700h363v-119h-363v119z" />
    <glyph glyph-name="Abreve" unicode="&#x102;" horiz-adv-x="833" 
d="M584 135h-334l-52 -135h-208l286 706h281l286 -706h-207zM530 278l-112 293h-2l-112 -293h226zM266.5 793.5q-53.5 40.5 -58.5 116.5h131q5 -31 24 -45.5t55 -14.5t54 14t25 46h128q-5 -76 -57 -116.5t-150 -40.5t-151.5 40.5z" />
    <glyph glyph-name="abreve" unicode="&#x103;" horiz-adv-x="641" 
d="M597 284v-284h-183v61q-31 -38 -78.5 -57.5t-115.5 -19.5q-70 0 -117.5 22t-68.5 67q-13 31 -13 64q0 36 13 67q28 61 102 83t189 22h88v7q0 17 -2 27t-6 19q-17 40 -86 40q-68 0 -85 -37q-5 -13 -5 -24h-185q2 38 15 65q26 59 93 85.5t165 26.5q104 0 168 -27t90 -88
q22 -47 22 -119zM365 121q29 13 41 39q8 19 8 48v6h-83q-48 0 -76.5 -6.5t-37.5 -25.5q-4 -10 -4 -21q0 -12 4 -21q14 -32 78 -32q41 0 70 13zM173.5 589.5q-53.5 44.5 -58.5 129.5h127q6 -38 25.5 -55.5t56.5 -17.5q38 0 57 17t25 56h126q-5 -85 -57.5 -129.5t-150.5 -44.5
q-97 0 -150.5 44.5z" />
    <glyph glyph-name="Aogonek" unicode="&#x104;" horiz-adv-x="833" 
d="M845 -113v-93q-38 -13 -94 -13q-65 0 -105 25.5t-40 75.5q0 74 97 118h-67l-52 135h-334l-52 -135h-208l286 706h281l286 -706q-45 -21 -67.5 -41.5t-22.5 -44.5q0 -17 13 -26t35 -9q25 0 44 8zM530 278l-112 293h-2l-112 -293h226z" />
    <glyph glyph-name="aogonek" unicode="&#x105;" horiz-adv-x="641" 
d="M599 -113v-93q-38 -13 -94 -13q-65 0 -104.5 25.5t-39.5 75.5q0 74 96 118h-43v61q-31 -38 -78.5 -57.5t-115.5 -19.5q-70 0 -117.5 22t-68.5 67q-13 31 -13 64q0 36 13 67q28 61 102 83t189 22h88v7q0 17 -2 27t-6 19q-17 40 -86 40q-68 0 -85 -37q-5 -13 -5 -24h-185
q2 38 15 65q26 59 93 85.5t165 26.5q104 0 168 -27t90 -88q22 -47 22 -119v-284q-45 -21 -67.5 -41.5t-22.5 -44.5q0 -17 13 -26t36 -9q24 0 43 8zM365 121q29 13 41 39q8 19 8 48v6h-83q-48 0 -76.5 -6.5t-37.5 -25.5q-4 -10 -4 -21q0 -12 4 -21q14 -32 78 -32q41 0 70 13z
" />
    <glyph glyph-name="Cacute" unicode="&#x106;" horiz-adv-x="854" 
d="M202.5 30.5q-97.5 51.5 -141.5 150.5q-33 77 -33 172q0 96 33 171q44 98 142.5 150.5t234.5 52.5q90 0 166 -25t129 -73q44 -39 67.5 -92t26.5 -115h-208q-3 29 -15.5 53.5t-32.5 42.5q-48 44 -136 44q-65 0 -110 -24.5t-66 -71.5q-10 -22 -15 -49.5t-5 -63.5
q0 -70 19 -113q21 -48 67.5 -72t110.5 -24q44 0 80 11.5t61 34.5q19 17 30.5 40.5t13.5 49.5h208q-2 -61 -25.5 -112t-66.5 -90q-53 -48 -131 -73.5t-168 -25.5q-138 0 -235.5 51.5zM434 910h199l-134 -153h-182z" />
    <glyph glyph-name="cacute" unicode="&#x107;" horiz-adv-x="667" 
d="M152.5 20.5q-76.5 37.5 -109.5 112.5q-24 53 -24 118q0 64 24 118q32 73 108 111t181 38q160 0 247 -80q61 -54 66 -140h-197q-3 31 -27 55q-31 26 -88 26q-39 0 -66.5 -15t-40.5 -44q-7 -13 -9.5 -29t-2.5 -40q0 -23 2.5 -39t9.5 -29q13 -29 40.5 -44.5t66.5 -15.5
q58 0 88 27q12 11 19 26t9 32h198q-3 -45 -19.5 -80.5t-48.5 -64.5q-44 -39 -106.5 -59.5t-140.5 -20.5q-103 0 -179.5 37.5zM328 719h190l-126 -166h-172z" />
    <glyph glyph-name="Ccircumflex" unicode="&#x108;" horiz-adv-x="854" 
d="M202.5 30.5q-97.5 51.5 -141.5 150.5q-33 77 -33 172q0 96 33 171q44 98 142.5 150.5t234.5 52.5q90 0 166 -25t129 -73q44 -39 67.5 -92t26.5 -115h-208q-3 29 -15.5 53.5t-32.5 42.5q-48 44 -136 44q-65 0 -110 -24.5t-66 -71.5q-10 -22 -15 -49.5t-5 -63.5
q0 -70 19 -113q21 -48 67.5 -72t110.5 -24q44 0 80 11.5t61 34.5q19 17 30.5 40.5t13.5 49.5h208q-2 -61 -25.5 -112t-66.5 -90q-53 -48 -131 -73.5t-168 -25.5q-138 0 -235.5 51.5zM324 910h226l128 -153h-175l-66 76l-65 -76h-175z" />
    <glyph glyph-name="ccircumflex" unicode="&#x109;" horiz-adv-x="667" 
d="M152.5 20.5q-76.5 37.5 -109.5 112.5q-24 53 -24 118q0 64 24 118q32 73 108 111t181 38q160 0 247 -80q61 -54 66 -140h-197q-3 31 -27 55q-31 26 -88 26q-39 0 -66.5 -15t-40.5 -44q-7 -13 -9.5 -29t-2.5 -40q0 -23 2.5 -39t9.5 -29q13 -29 40.5 -44.5t66.5 -15.5
q58 0 88 27q12 11 19 26t9 32h198q-3 -45 -19.5 -80.5t-48.5 -64.5q-44 -39 -106.5 -59.5t-140.5 -20.5q-103 0 -179.5 37.5zM226 719h217l112 -166h-163l-58 85l-57 -85h-163z" />
    <glyph glyph-name="Cdotaccent" unicode="&#x10a;" horiz-adv-x="854" 
d="M202.5 30.5q-97.5 51.5 -141.5 150.5q-33 77 -33 172q0 96 33 171q44 98 142.5 150.5t234.5 52.5q90 0 166 -25t129 -73q44 -39 67.5 -92t26.5 -115h-208q-3 29 -15.5 53.5t-32.5 42.5q-48 44 -136 44q-65 0 -110 -24.5t-66 -71.5q-10 -22 -15 -49.5t-5 -63.5
q0 -70 19 -113q21 -48 67.5 -72t110.5 -24q44 0 80 11.5t61 34.5q19 17 30.5 40.5t13.5 49.5h208q-2 -61 -25.5 -112t-66.5 -90q-53 -48 -131 -73.5t-168 -25.5q-138 0 -235.5 51.5zM387.5 765.5q-22.5 12.5 -35 33.5t-12.5 47t12.5 47t35 33t50.5 12t50 -12t34.5 -33
t12.5 -47t-12.5 -47t-35 -33.5t-49.5 -12.5q-28 0 -50.5 12.5z" />
    <glyph glyph-name="cdotaccent" unicode="&#x10b;" horiz-adv-x="667" 
d="M152.5 20.5q-76.5 37.5 -109.5 112.5q-24 53 -24 118q0 64 24 118q32 73 108 111t181 38q160 0 247 -80q61 -54 66 -140h-197q-3 31 -27 55q-31 26 -88 26q-39 0 -66.5 -15t-40.5 -44q-7 -13 -9.5 -29t-2.5 -40q0 -23 2.5 -39t9.5 -29q13 -29 40.5 -44.5t66.5 -15.5
q58 0 88 27q12 11 19 26t9 32h198q-3 -45 -19.5 -80.5t-48.5 -64.5q-44 -39 -106.5 -59.5t-140.5 -20.5q-103 0 -179.5 37.5zM285.5 565.5q-21.5 11.5 -34 32.5t-12.5 47t12.5 47t34 32.5t48.5 11.5t49 -11.5t34.5 -32.5t12.5 -47t-12.5 -47t-34.5 -32.5t-49 -11.5
t-48.5 11.5z" />
    <glyph glyph-name="Ccaron" unicode="&#x10c;" horiz-adv-x="854" 
d="M202.5 30.5q-97.5 51.5 -141.5 150.5q-33 77 -33 172q0 96 33 171q44 98 142.5 150.5t234.5 52.5q90 0 166 -25t129 -73q44 -39 67.5 -92t26.5 -115h-208q-3 29 -15.5 53.5t-32.5 42.5q-48 44 -136 44q-65 0 -110 -24.5t-66 -71.5q-10 -22 -15 -49.5t-5 -63.5
q0 -70 19 -113q21 -48 67.5 -72t110.5 -24q44 0 80 11.5t61 34.5q19 17 30.5 40.5t13.5 49.5h208q-2 -61 -25.5 -112t-66.5 -90q-53 -48 -131 -73.5t-168 -25.5q-138 0 -235.5 51.5zM550 757h-225l-128 153h175l66 -76l65 76h175z" />
    <glyph glyph-name="ccaron" unicode="&#x10d;" horiz-adv-x="667" 
d="M152.5 20.5q-76.5 37.5 -109.5 112.5q-24 53 -24 118q0 64 24 118q32 73 108 111t181 38q160 0 247 -80q61 -54 66 -140h-197q-3 31 -27 55q-31 26 -88 26q-39 0 -66.5 -15t-40.5 -44q-7 -13 -9.5 -29t-2.5 -40q0 -23 2.5 -39t9.5 -29q13 -29 40.5 -44.5t66.5 -15.5
q58 0 88 27q12 11 19 26t9 32h198q-3 -45 -19.5 -80.5t-48.5 -64.5q-44 -39 -106.5 -59.5t-140.5 -20.5q-103 0 -179.5 37.5zM442 554h-216l-112 166h163l57 -86l57 86h164z" />
    <glyph glyph-name="Dcaron" unicode="&#x10e;" horiz-adv-x="828" 
d="M58 706h355q134 0 224.5 -47.5t130.5 -139.5q32 -72 32 -166q0 -99 -32 -167q-41 -92 -131.5 -139t-223.5 -47h-355v706zM391 161q71 0 115.5 23t65.5 68q17 38 17 101q0 62 -18 102q-21 45 -65 67.5t-115 22.5h-137v-384h137zM517 757h-225l-128 153h175l66 -76l65 76
h175z" />
    <glyph glyph-name="dcaron" unicode="&#x10f;" horiz-adv-x="844" 
d="M640 706v-706h-179v64q-32 -40 -79.5 -60t-107.5 -20q-81 0 -140.5 35.5t-88.5 101.5q-26 55 -26 130q0 70 26 130q29 65 88.5 101t140.5 36q57 0 103.5 -18.5t78.5 -55.5v262h184zM459 259q0 58 -33.5 89t-89.5 31q-40 0 -69 -15.5t-43 -45.5q-11 -27 -11 -67t11 -67
q14 -30 43 -45.5t69 -15.5q56 0 89.5 31t33.5 88v17zM693 706h171l-53 -173h-145z" />
    <glyph glyph-name="Dcroat" unicode="&#x110;" horiz-adv-x="828" 
d="M800 353q0 -99 -32 -167q-41 -92 -131.5 -139t-223.5 -47h-355v299h-59v113h59v294h355q134 0 224.5 -47.5t130.5 -139.5q32 -72 32 -166zM589 353q0 62 -18 102q-21 45 -65 67.5t-115 22.5h-137v-133h169v-113h-169v-138h137q71 0 115.5 23t65.5 68q17 38 17 101z" />
    <glyph glyph-name="dcroat" unicode="&#x111;" horiz-adv-x="688" 
d="M689 562h-49v-562h-179v64q-32 -40 -79.5 -60t-107.5 -20q-81 0 -140.5 35.5t-88.5 101.5q-26 55 -26 130q0 70 26 130q29 65 88.5 101t140.5 36q57 0 103.5 -18.5t78.5 -55.5v118h-193v94h193v50h184v-50h49v-94zM459 259q0 58 -33.5 89t-89.5 31q-40 0 -69 -15.5
t-43 -45.5q-11 -27 -11 -67t11 -67q14 -30 43 -45.5t69 -15.5q56 0 89.5 31t33.5 88v17z" />
    <glyph glyph-name="Emacron" unicode="&#x112;" horiz-adv-x="643" 
d="M58 706h546v-152h-350v-125h347v-146h-347v-131h350v-152h-546v706zM151 894h368v-120h-368v120z" />
    <glyph glyph-name="emacron" unicode="&#x113;" horiz-adv-x="668" 
d="M459 167h186q-10 -66 -59 -110q-42 -39 -104.5 -56.5t-138.5 -17.5q-110 0 -189.5 39.5t-111.5 113.5q-23 51 -23 115q0 34 5.5 62.5t17.5 54.5q33 74 109.5 112t180.5 38q107 0 181.5 -40.5t107.5 -115.5q15 -34 21.5 -70.5t6.5 -85.5h-444q3 -24 10 -37q13 -31 47 -46
t82 -15q30 0 55.5 6.5t39.5 19.5q15 12 20 33zM259.5 381q-30.5 -15 -44.5 -45q-7 -14 -10 -32h259q-3 16 -9 32q-14 30 -45 45t-76 15q-44 0 -74.5 -15zM153 700h363v-119h-363v119z" />
    <glyph glyph-name="Ebreve" unicode="&#x114;" horiz-adv-x="643" 
d="M58 706h546v-152h-350v-125h347v-146h-347v-131h350v-152h-546v706zM184.5 793.5q-53.5 40.5 -58.5 116.5h131q5 -31 24 -45.5t55 -14.5t54 14t25 46h128q-5 -76 -57 -116.5t-150 -40.5t-151.5 40.5z" />
    <glyph glyph-name="ebreve" unicode="&#x115;" horiz-adv-x="668" 
d="M459 167h186q-10 -66 -59 -110q-42 -39 -104.5 -56.5t-138.5 -17.5q-110 0 -189.5 39.5t-111.5 113.5q-23 51 -23 115q0 34 5.5 62.5t17.5 54.5q33 74 109.5 112t180.5 38q107 0 181.5 -40.5t107.5 -115.5q15 -34 21.5 -70.5t6.5 -85.5h-444q3 -24 10 -37q13 -31 47 -46
t82 -15q30 0 55.5 6.5t39.5 19.5q15 12 20 33zM259.5 381q-30.5 -15 -44.5 -45q-7 -14 -10 -32h259q-3 16 -9 32q-14 30 -45 45t-76 15q-44 0 -74.5 -15zM184.5 589.5q-53.5 44.5 -58.5 129.5h127q6 -38 25.5 -55.5t56.5 -17.5q38 0 57 17t25 56h126q-5 -85 -57.5 -129.5
t-150.5 -44.5q-97 0 -150.5 44.5z" />
    <glyph glyph-name="Edotaccent" unicode="&#x116;" horiz-adv-x="643" 
d="M58 706h546v-152h-350v-125h347v-146h-347v-131h350v-152h-546v706zM284.5 765.5q-22.5 12.5 -35 33.5t-12.5 47t12.5 47t35 33t50.5 12t50 -12t34.5 -33t12.5 -47t-12.5 -47t-35 -33.5t-49.5 -12.5q-28 0 -50.5 12.5z" />
    <glyph glyph-name="edotaccent" unicode="&#x117;" horiz-adv-x="668" 
d="M459 167h186q-10 -66 -59 -110q-42 -39 -104.5 -56.5t-138.5 -17.5q-110 0 -189.5 39.5t-111.5 113.5q-23 51 -23 115q0 34 5.5 62.5t17.5 54.5q33 74 109.5 112t180.5 38q107 0 181.5 -40.5t107.5 -115.5q15 -34 21.5 -70.5t6.5 -85.5h-444q3 -24 10 -37q13 -31 47 -46
t82 -15q30 0 55.5 6.5t39.5 19.5q15 12 20 33zM259.5 381q-30.5 -15 -44.5 -45q-7 -14 -10 -32h259q-3 16 -9 32q-14 30 -45 45t-76 15q-44 0 -74.5 -15zM285.5 565.5q-21.5 11.5 -34 32.5t-12.5 47t12.5 47t34 32.5t48.5 11.5t49 -11.5t34.5 -32.5t12.5 -47t-12.5 -47
t-34.5 -32.5t-49 -11.5t-48.5 11.5z" />
    <glyph glyph-name="Eogonek" unicode="&#x118;" horiz-adv-x="643" 
d="M605 -113v-93q-38 -13 -94 -13q-65 0 -104.5 25.5t-39.5 75.5q0 74 97 118h-406v706h546v-152h-350v-125h347v-146h-347v-131h350v-152q-45 -21 -67.5 -41.5t-22.5 -44.5q0 -17 13 -26t35 -9q24 0 43 8z" />
    <glyph glyph-name="eogonek" unicode="&#x119;" horiz-adv-x="668" 
d="M459 167h186q-7 -45 -33.5 -80.5t-78.5 -73.5q-45 -32 -63 -51.5t-18 -43.5q0 -20 13 -30t36 -10t42 8v-93q-39 -12 -92 -12q-66 0 -106 27.5t-40 78.5q0 56 52 96h-14q-110 0 -189.5 39.5t-111.5 113.5q-23 51 -23 115q0 34 5.5 62.5t17.5 54.5q33 74 109.5 112
t180.5 38q107 0 181.5 -40.5t107.5 -115.5q15 -34 21.5 -70.5t6.5 -85.5h-444q3 -24 10 -37q13 -31 47 -46t82 -15q30 0 55.5 6.5t39.5 19.5q15 12 20 33zM259.5 381q-30.5 -15 -44.5 -45q-7 -14 -10 -32h259q-3 16 -9 32q-14 30 -45 45t-76 15q-44 0 -74.5 -15z" />
    <glyph glyph-name="Ecaron" unicode="&#x11a;" horiz-adv-x="643" 
d="M58 706h546v-152h-350v-125h347v-146h-347v-131h350v-152h-546v706zM447 757h-225l-128 153h175l66 -76l65 76h175z" />
    <glyph glyph-name="ecaron" unicode="&#x11b;" horiz-adv-x="668" 
d="M459 167h186q-10 -66 -59 -110q-42 -39 -104.5 -56.5t-138.5 -17.5q-110 0 -189.5 39.5t-111.5 113.5q-23 51 -23 115q0 34 5.5 62.5t17.5 54.5q33 74 109.5 112t180.5 38q107 0 181.5 -40.5t107.5 -115.5q15 -34 21.5 -70.5t6.5 -85.5h-444q3 -24 10 -37q13 -31 47 -46
t82 -15q30 0 55.5 6.5t39.5 19.5q15 12 20 33zM259.5 381q-30.5 -15 -44.5 -45q-7 -14 -10 -32h259q-3 16 -9 32q-14 30 -45 45t-76 15q-44 0 -74.5 -15zM442 554h-216l-112 166h163l57 -86l57 86h164z" />
    <glyph glyph-name="Gcircumflex" unicode="&#x11c;" horiz-adv-x="870" 
d="M842 393v-30q0 -56 -9 -101.5t-28 -88.5q-44 -96 -136.5 -145t-225.5 -49q-139 0 -239 51.5t-143 148.5q-33 77 -33 174q0 96 35 174q45 99 143 149.5t238 50.5q92 0 169 -24t130 -72q36 -33 61.5 -79.5t31.5 -94.5h-210q-8 40 -38 66q-24 22 -61 33t-81 11
q-69 0 -117.5 -25t-69.5 -74q-11 -24 -15.5 -50t-4.5 -65t4.5 -65.5t15.5 -49.5q22 -49 71 -74t118 -25q65 0 112.5 21t66.5 63q9 21 11 37h-199v133h403zM330 910h226l128 -153h-175l-66 76l-65 -76h-175z" />
    <glyph glyph-name="gcircumflex" unicode="&#x11d;" horiz-adv-x="683" 
d="M635 501v-463q0 -74 -24 -126q-59 -131 -274 -131q-167 0 -243 69q-25 22 -39.5 50.5t-20.5 65.5h194q3 -18 19 -33q29 -26 87 -26q82 0 106 53q10 21 10 53v62q-64 -79 -182 -79q-79 0 -137 35t-87 99q-13 28 -19 59t-6 68q0 74 25 128q28 64 86.5 98.5t137.5 34.5
q121 0 185 -82v65h182zM418.5 161.5q32.5 29.5 32.5 85.5v18q0 57 -32 86t-87 29q-40 0 -67.5 -14.5t-40.5 -42.5q-11 -26 -11 -66q0 -22 2.5 -38t8.5 -29q13 -29 40.5 -43.5t67.5 -14.5q54 0 86.5 29.5zM227 719h217l112 -166h-163l-58 85l-57 -85h-163z" />
    <glyph glyph-name="Gbreve" unicode="&#x11e;" horiz-adv-x="870" 
d="M842 393v-30q0 -56 -9 -101.5t-28 -88.5q-44 -96 -136.5 -145t-225.5 -49q-139 0 -239 51.5t-143 148.5q-33 77 -33 174q0 96 35 174q45 99 143 149.5t238 50.5q92 0 169 -24t130 -72q36 -33 61.5 -79.5t31.5 -94.5h-210q-8 40 -38 66q-24 22 -61 33t-81 11
q-69 0 -117.5 -25t-69.5 -74q-11 -24 -15.5 -50t-4.5 -65t4.5 -65.5t15.5 -49.5q22 -49 71 -74t118 -25q65 0 112.5 21t66.5 63q9 21 11 37h-199v133h403zM293.5 793.5q-53.5 40.5 -58.5 116.5h131q5 -31 24 -45.5t55 -14.5t54 14t25 46h128q-5 -76 -57 -116.5t-150 -40.5
t-151.5 40.5z" />
    <glyph glyph-name="gbreve" unicode="&#x11f;" horiz-adv-x="683" 
d="M635 501v-463q0 -74 -24 -126q-59 -131 -274 -131q-167 0 -243 69q-25 22 -39.5 50.5t-20.5 65.5h194q3 -18 19 -33q29 -26 87 -26q82 0 106 53q10 21 10 53v62q-64 -79 -182 -79q-79 0 -137 35t-87 99q-13 28 -19 59t-6 68q0 74 25 128q28 64 86.5 98.5t137.5 34.5
q121 0 185 -82v65h182zM418.5 161.5q32.5 29.5 32.5 85.5v18q0 57 -32 86t-87 29q-40 0 -67.5 -14.5t-40.5 -42.5q-11 -26 -11 -66q0 -22 2.5 -38t8.5 -29q13 -29 40.5 -43.5t67.5 -14.5q54 0 86.5 29.5zM186.5 589.5q-53.5 44.5 -58.5 129.5h127q6 -38 25.5 -55.5
t56.5 -17.5q38 0 57 17t25 56h126q-5 -85 -57.5 -129.5t-150.5 -44.5q-97 0 -150.5 44.5z" />
    <glyph glyph-name="Gdotaccent" unicode="&#x120;" horiz-adv-x="870" 
d="M842 393v-30q0 -56 -9 -101.5t-28 -88.5q-44 -96 -136.5 -145t-225.5 -49q-139 0 -239 51.5t-143 148.5q-33 77 -33 174q0 96 35 174q45 99 143 149.5t238 50.5q92 0 169 -24t130 -72q36 -33 61.5 -79.5t31.5 -94.5h-210q-8 40 -38 66q-24 22 -61 33t-81 11
q-69 0 -117.5 -25t-69.5 -74q-11 -24 -15.5 -50t-4.5 -65t4.5 -65.5t15.5 -49.5q22 -49 71 -74t118 -25q65 0 112.5 21t66.5 63q9 21 11 37h-199v133h403zM393.5 765.5q-22.5 12.5 -35 33.5t-12.5 47t12.5 47t35 33t50.5 12t50 -12t34.5 -33t12.5 -47t-12.5 -47t-35 -33.5
t-49.5 -12.5q-28 0 -50.5 12.5z" />
    <glyph glyph-name="gdotaccent" unicode="&#x121;" horiz-adv-x="683" 
d="M635 501v-463q0 -74 -24 -126q-59 -131 -274 -131q-167 0 -243 69q-25 22 -39.5 50.5t-20.5 65.5h194q3 -18 19 -33q29 -26 87 -26q82 0 106 53q10 21 10 53v62q-64 -79 -182 -79q-79 0 -137 35t-87 99q-13 28 -19 59t-6 68q0 74 25 128q28 64 86.5 98.5t137.5 34.5
q121 0 185 -82v65h182zM418.5 161.5q32.5 29.5 32.5 85.5v18q0 57 -32 86t-87 29q-40 0 -67.5 -14.5t-40.5 -42.5q-11 -26 -11 -66q0 -22 2.5 -38t8.5 -29q13 -29 40.5 -43.5t67.5 -14.5q54 0 86.5 29.5zM286.5 565.5q-21.5 11.5 -34 32.5t-12.5 47t12.5 47t34 32.5
t48.5 11.5t49 -11.5t34.5 -32.5t12.5 -47t-12.5 -47t-34.5 -32.5t-49 -11.5t-48.5 11.5z" />
    <glyph glyph-name="Gcommaaccent" unicode="&#x122;" horiz-adv-x="870" 
d="M842 393v-30q0 -56 -9 -101.5t-28 -88.5q-44 -96 -136.5 -145t-225.5 -49q-139 0 -239 51.5t-143 148.5q-33 77 -33 174q0 96 35 174q45 99 143 149.5t238 50.5q92 0 169 -24t130 -72q36 -33 61.5 -79.5t31.5 -94.5h-210q-8 40 -38 66q-24 22 -61 33t-81 11
q-69 0 -117.5 -25t-69.5 -74q-11 -24 -15.5 -50t-4.5 -65t4.5 -65.5t15.5 -49.5q22 -49 71 -74t118 -25q65 0 112.5 21t66.5 63q9 21 11 37h-199v133h403zM351 -54h189l-55 -149h-165z" />
    <glyph glyph-name="gcommaaccent" unicode="&#x123;" horiz-adv-x="683" 
d="M635 501v-463q0 -74 -24 -126q-59 -131 -274 -131q-167 0 -243 69q-25 22 -39.5 50.5t-20.5 65.5h194q3 -18 19 -33q29 -26 87 -26q82 0 106 53q10 21 10 53v62q-64 -79 -182 -79q-79 0 -137 35t-87 99q-13 28 -19 59t-6 68q0 74 25 128q28 64 86.5 98.5t137.5 34.5
q121 0 185 -82v65h182zM418.5 161.5q32.5 29.5 32.5 85.5v18q0 57 -32 86t-87 29q-40 0 -67.5 -14.5t-40.5 -42.5q-11 -26 -11 -66q0 -22 2.5 -38t8.5 -29q13 -29 40.5 -43.5t67.5 -14.5q54 0 86.5 29.5zM403 566h-188l55 149h165z" />
    <glyph glyph-name="Hcircumflex" unicode="&#x124;" horiz-adv-x="832" 
d="M58 706h196v-273h324v273h196v-706h-196v276h-324v-276h-196v706zM302 910h226l128 -153h-175l-66 76l-65 -76h-175z" />
    <glyph glyph-name="hcircumflex" unicode="&#x125;" horiz-adv-x="663" 
d="M566 464q53 -54 53 -157v-307h-183v272q0 55 -24.5 81t-72.5 26q-53 0 -80 -31t-27 -89v-259h-184v706h184v-271q63 83 180 83q101 0 154 -54zM218 910h226l128 -153h-175l-66 76l-65 -76h-175z" />
    <glyph glyph-name="Hbar" unicode="&#x126;" horiz-adv-x="832" 
d="M774 706v-706h-196v276h-324v-276h-196v706h196v-85h324v85h196zM578 433v87h-324v-87h324z" />
    <glyph glyph-name="hbar" unicode="&#x127;" horiz-adv-x="663" 
d="M566 464q53 -54 53 -157v-307h-183v272q0 55 -24.5 81t-72.5 26q-53 0 -80 -31t-27 -89v-259h-184v562h-50v94h50v50h184v-50h192v-94h-192v-127q63 83 180 83q101 0 154 -54z" />
    <glyph glyph-name="Itilde" unicode="&#x128;" horiz-adv-x="311" 
d="M58 706h196v-706h-196v706zM176.5 760.5q-17.5 7.5 -37.5 23.5q-17 13 -25.5 18t-18.5 5q-15 0 -21 -12.5t-8 -37.5h-97q4 76 31.5 115.5t85.5 39.5q27 0 45 -8.5t37 -24.5q15 -12 22.5 -16.5t16.5 -4.5q16 0 22 11.5t9 39.5h98q-4 -78 -31 -117t-85 -39q-26 0 -43.5 7.5
z" />
    <glyph glyph-name="itilde" unicode="&#x129;" horiz-adv-x="280" 
d="M48 501h184v-501h-184v501zM164 559.5q-17 8.5 -35 26.5q-12 13 -20 18.5t-17 5.5q-14 0 -19.5 -13.5t-7.5 -43.5h-97q2 61 13 98.5t33.5 56t59.5 18.5q25 0 42 -8.5t35 -26.5q14 -14 21 -19t16 -5q14 0 19.5 13.5t7.5 43.5h97q-2 -61 -13 -98.5t-33.5 -56t-59.5 -18.5
q-25 0 -42 8.5z" />
    <glyph glyph-name="Imacron" unicode="&#x12a;" horiz-adv-x="311" 
d="M58 706h196v-706h-196v706zM-2 892h314v-119h-314v119z" />
    <glyph glyph-name="imacron" unicode="&#x12b;" horiz-adv-x="280" 
d="M48 501h184v-501h-184v501zM-9 700h299v-119h-299v119z" />
    <glyph glyph-name="Ibreve" unicode="&#x12c;" horiz-adv-x="311" 
d="M58 706h196v-706h-196v706zM22 791q-47 41 -49 119h128q3 -33 16 -46.5t40 -13.5q26 0 38 13.5t16 46.5h128q-2 -78 -48.5 -119t-134.5 -41q-87 0 -134 41z" />
    <glyph glyph-name="ibreve" unicode="&#x12d;" horiz-adv-x="280" 
d="M48 501h184v-501h-184v501zM15 589q-44 45 -45 130h117q1 -43 13.5 -60t39.5 -17t39.5 17t13.5 60h118q-3 -86 -46.5 -130.5t-124.5 -44.5t-125 45z" />
    <glyph glyph-name="Iogonek" unicode="&#x12e;" horiz-adv-x="311" 
d="M257 -113v-94q-35 -12 -83 -12q-60 0 -97.5 25t-37.5 73q0 41 20 70.5t56 50.5h-57v706h196v-706q-34 -22 -51 -43.5t-17 -45.5q0 -16 9.5 -24t26.5 -8q20 0 35 8z" />
    <glyph glyph-name="iogonek" unicode="&#x12f;" horiz-adv-x="280" 
d="M92 566q-22 11 -34 31.5t-12 46.5t12.5 46.5t34 32t48.5 11.5t48.5 -11.5t34 -32t12.5 -46.5t-12.5 -46.5t-34 -31.5t-48.5 -11t-49 11zM173.5 -113q9.5 -8 26.5 -8q20 0 35 8v-94q-34 -12 -83 -12q-60 0 -97.5 25t-37.5 73q0 41 20 70.5t56 50.5h-45v501h184v-501
q-34 -22 -51 -43.5t-17 -45.5q0 -16 9.5 -24z" />
    <glyph glyph-name="Idotaccent" unicode="&#x130;" horiz-adv-x="311" 
d="M58 706h196v-706h-196v706zM105.5 765.5q-22.5 12.5 -35 33.5t-12.5 47t12.5 47t35 33t50.5 12t50 -12t34.5 -33t12.5 -47t-12.5 -47t-35 -33.5t-49.5 -12.5q-28 0 -50.5 12.5z" />
    <glyph glyph-name="dotlessi" unicode="&#x131;" horiz-adv-x="280" 
d="M48 501h184v-501h-184v501z" />
    <glyph glyph-name="IJ" unicode="&#x132;" horiz-adv-x="703" 
d="M58 706h196v-706h-196v706zM320 0v165q20 -3 43 -3q38 0 59.5 10.5t31 34.5t9.5 67v432h196v-461q0 -87 -26 -142.5t-81.5 -82.5t-145.5 -27q-40 0 -86 7z" />
    <glyph glyph-name="ij" unicode="&#x133;" horiz-adv-x="564" 
d="M92 566q-22 11 -34 31.5t-12 46.5t12.5 46.5t34 32t48.5 11.5t48.5 -11.5t34 -32t12.5 -46.5t-12.5 -46.5t-34 -31.5t-48.5 -11t-49 11zM48 501h184v-501h-184v501zM375 566q-22 11 -34 31.5t-12 46.5t12.5 46.5t34 32t48.5 11.5t48.5 -11.5t34 -32t12.5 -46.5t-12 -46.5
t-34 -31.5t-49 -11t-49 11zM237 -209v150q21 -3 39 -3q29 0 42.5 14t13.5 43v506h184v-521q0 -68 -20.5 -110.5t-64.5 -63t-115 -20.5q-37 0 -79 5z" />
    <glyph glyph-name="Jcircumflex" unicode="&#x134;" horiz-adv-x="392" 
d="M9 0v165q20 -3 43 -3q38 0 59.5 10.5t31 34.5t9.5 67v432h196v-461q0 -87 -26 -142.5t-81.5 -82.5t-145.5 -27q-40 0 -86 7zM140 910h222l100 -153h-164l-47 74l-45 -74h-165z" />
    <glyph glyph-name="jcircumflex" unicode="&#x135;" horiz-adv-x="284" 
d="M-43 -209v150q21 -3 39 -3q29 0 42.5 14t13.5 43v506h184v-521q0 -68 -20.5 -110.5t-64.5 -63t-115 -20.5q-37 0 -79 5zM54 719h179l86 -166h-135l-41 85l-40 -85h-136z" />
    <glyph glyph-name="Kcommaaccent" unicode="&#x136;" horiz-adv-x="777" 
d="M537 0l-283 315v-315h-196v706h196v-261l251 261h241l-316 -320l356 -386h-249zM292 -54h189l-55 -149h-165z" />
    <glyph glyph-name="kcommaaccent" unicode="&#x137;" horiz-adv-x="629" 
d="M413 0l-181 211v-211h-184v706h184v-368l162 163h235l-233 -223l253 -278h-236zM226 -54h189l-55 -149h-165z" />
    <glyph glyph-name="kgreenlandic" unicode="&#x138;" horiz-adv-x="630" 
d="M413 0l-181 211v-211h-184v501h184v-163l162 163h235l-234 -223l255 -278h-237z" />
    <glyph glyph-name="Lacute" unicode="&#x139;" horiz-adv-x="495" 
d="M58 706h196v-543h232v-163h-428v706zM164 910h199l-134 -153h-182z" />
    <glyph glyph-name="lacute" unicode="&#x13a;" horiz-adv-x="280" 
d="M48 706h184v-706h-184v706zM137 910h199l-134 -153h-182z" />
    <glyph glyph-name="Lcommaaccent" unicode="&#x13b;" horiz-adv-x="495" 
d="M58 706h196v-543h232v-163h-428v706zM182 -54h189l-55 -149h-165z" />
    <glyph glyph-name="lcommaaccent" unicode="&#x13c;" horiz-adv-x="280" 
d="M48 706h184v-706h-184v706zM48 -54h189l-55 -149h-165z" />
    <glyph glyph-name="Lcaron" unicode="&#x13d;" horiz-adv-x="495" 
d="M58 706h196v-543h232v-163h-428v706zM318 706h171l-53 -173h-145z" />
    <glyph glyph-name="lcaron" unicode="&#x13e;" horiz-adv-x="436" 
d="M48 706h184v-706h-184v706zM285 706h171l-53 -173h-145z" />
    <glyph glyph-name="Ldot" unicode="&#x13f;" horiz-adv-x="575" 
d="M58 706h196v-543h232v-163h-428v706zM390 332q-24 13 -37 36t-13 53q0 47 28.5 75t75.5 28q30 0 53.5 -12.5t36.5 -36t13 -54.5q0 -30 -13 -53t-36.5 -36t-53.5 -13t-54 13z" />
    <glyph glyph-name="ldot" unicode="&#x140;" horiz-adv-x="501" 
d="M48 706h184v-706h-184v706zM337 280q-24 13 -37 36t-13 53q0 47 28.5 75t75.5 28q30 0 53.5 -12.5t36.5 -36t13 -54.5q0 -30 -13 -53t-36.5 -36t-53.5 -13t-54 13z" />
    <glyph glyph-name="Lslash" unicode="&#x141;" horiz-adv-x="495" 
d="M486 163v-163h-428v265l-62 -35v130l62 36v310h196v-225l144 83v-131l-144 -83v-187h232z" />
    <glyph glyph-name="lslash" unicode="&#x142;" horiz-adv-x="312" 
d="M314 400l-70 -48v-352h-183v264l-63 -42v139l63 42v303h183v-214l70 47v-139z" />
    <glyph glyph-name="Nacute" unicode="&#x143;" horiz-adv-x="843" 
d="M58 706h207l328 -451v451h192v-706h-212l-323 444v-444h-192v706zM423 910h199l-134 -153h-182z" />
    <glyph glyph-name="nacute" unicode="&#x144;" horiz-adv-x="663" 
d="M566 464q53 -54 53 -157v-307h-183v272q0 55 -24.5 81t-72.5 26q-53 0 -80 -31t-27 -89v-259h-184v501h184v-66q63 83 180 83q101 0 154 -54zM329 719h190l-126 -166h-172z" />
    <glyph glyph-name="Ncommaaccent" unicode="&#x145;" horiz-adv-x="843" 
d="M58 706h207l328 -451v451h192v-706h-212l-323 444v-444h-192v706zM316 -54h189l-55 -149h-165z" />
    <glyph glyph-name="ncommaaccent" unicode="&#x146;" horiz-adv-x="663" 
d="M566 464q53 -54 53 -157v-307h-183v272q0 55 -24.5 81t-72.5 26q-53 0 -80 -31t-27 -89v-259h-184v501h184v-66q63 83 180 83q101 0 154 -54zM241 -54h189l-55 -149h-165z" />
    <glyph glyph-name="Ncaron" unicode="&#x147;" horiz-adv-x="843" 
d="M58 706h207l328 -451v451h192v-706h-212l-323 444v-444h-192v706zM538 757h-225l-128 153h175l66 -76l65 76h175z" />
    <glyph glyph-name="ncaron" unicode="&#x148;" horiz-adv-x="663" 
d="M566 464q53 -54 53 -157v-307h-183v272q0 55 -24.5 81t-72.5 26q-53 0 -80 -31t-27 -89v-259h-184v501h184v-66q63 83 180 83q101 0 154 -54zM442 554h-216l-112 166h163l57 -86l57 86h164z" />
    <glyph glyph-name="napostrophe" unicode="&#x149;" horiz-adv-x="869" 
d="M92 706h187l-121 -290h-136zM772 464q53 -54 53 -157v-307h-183v272q0 55 -24.5 81t-72.5 26q-53 0 -80 -31t-27 -89v-259h-184v501h184v-66q63 83 180 83q101 0 154 -54z" />
    <glyph glyph-name="Eng" unicode="&#x14a;" horiz-adv-x="843" 
d="M785 706v-722q0 -67 -21.5 -109t-66.5 -62.5t-117 -20.5q-39 0 -82 5v149q21 -3 36 -3q30 0 44.5 14t14.5 39v15l-343 433v-444h-192v706h207l328 -416v416h192z" />
    <glyph glyph-name="eng" unicode="&#x14b;" horiz-adv-x="663" 
d="M565.5 464q53.5 -54 53.5 -157v-322q0 -68 -20.5 -110t-64 -62.5t-114.5 -20.5q-37 0 -79 5v150q10 -2 19.5 -2.5t19.5 -0.5q29 0 42.5 14t13.5 42v272q0 55 -24.5 81t-72.5 26q-53 0 -80 -31t-27 -89v-259h-184v501h184v-66q63 83 179 83q101 0 154.5 -54z" />
    <glyph glyph-name="Omacron" unicode="&#x14c;" horiz-adv-x="875" 
d="M207 27.5q-95 48.5 -139 141.5q-40 78 -40 184q0 95 34 172q43 98 140.5 150t235.5 52q137 0 233.5 -51t139.5 -147q35 -80 35 -176q0 -99 -36 -180q-45 -94 -141 -144t-232 -50q-135 0 -230 48.5zM550.5 170.5q45.5 25.5 66.5 73.5q10 22 14.5 48t4.5 61q0 36 -5 63
t-15 49q-22 48 -67 72t-112 24q-66 0 -111.5 -25t-67.5 -72q-10 -22 -14.5 -48.5t-4.5 -62.5q0 -34 5 -60.5t15 -49.5q21 -48 67 -73t112 -25q67 0 112.5 25.5zM253 894h368v-120h-368v120z" />
    <glyph glyph-name="omacron" unicode="&#x14d;" horiz-adv-x="678" 
d="M151.5 24q-77.5 40 -110.5 116q-22 48 -22 111t22 111q33 76 110.5 116t187.5 40t187 -39.5t110 -113.5q23 -52 23 -114q0 -63 -23 -115q-33 -74 -110 -113t-187 -39t-187.5 40zM411.5 138q29.5 15 42.5 45q11 25 11 68q0 44 -11 67q-13 30 -42.5 45.5t-72.5 15.5
q-42 0 -71.5 -16t-43.5 -45q-11 -25 -11 -67q0 -44 11 -67q13 -30 42.5 -45.5t72.5 -15.5t72.5 15zM158 700h363v-119h-363v119z" />
    <glyph glyph-name="Obreve" unicode="&#x14e;" horiz-adv-x="875" 
d="M207 27.5q-95 48.5 -139 141.5q-40 78 -40 184q0 95 34 172q43 98 140.5 150t235.5 52q137 0 233.5 -51t139.5 -147q35 -80 35 -176q0 -99 -36 -180q-45 -94 -141 -144t-232 -50q-135 0 -230 48.5zM550.5 170.5q45.5 25.5 66.5 73.5q10 22 14.5 48t4.5 61q0 36 -5 63
t-15 49q-22 48 -67 72t-112 24q-66 0 -111.5 -25t-67.5 -72q-10 -22 -14.5 -48.5t-4.5 -62.5q0 -34 5 -60.5t15 -49.5q21 -48 67 -73t112 -25q67 0 112.5 25.5zM287.5 793.5q-53.5 40.5 -58.5 116.5h131q5 -31 24 -45.5t55 -14.5t54 14t25 46h128q-5 -76 -57 -116.5
t-150 -40.5t-151.5 40.5z" />
    <glyph glyph-name="obreve" unicode="&#x14f;" horiz-adv-x="678" 
d="M151.5 24q-77.5 40 -110.5 116q-22 48 -22 111t22 111q33 76 110.5 116t187.5 40t187 -39.5t110 -113.5q23 -52 23 -114q0 -63 -23 -115q-33 -74 -110 -113t-187 -39t-187.5 40zM411.5 138q29.5 15 42.5 45q11 25 11 68q0 44 -11 67q-13 30 -42.5 45.5t-72.5 15.5
q-42 0 -71.5 -16t-43.5 -45q-11 -25 -11 -67q0 -44 11 -67q13 -30 42.5 -45.5t72.5 -15.5t72.5 15zM189.5 589.5q-53.5 44.5 -58.5 129.5h127q6 -38 25.5 -55.5t56.5 -17.5q38 0 57 17t25 56h126q-5 -85 -57.5 -129.5t-150.5 -44.5q-97 0 -150.5 44.5z" />
    <glyph glyph-name="Ohungarumlaut" unicode="&#x150;" horiz-adv-x="875" 
d="M207 27.5q-95 48.5 -139 141.5q-40 78 -40 184q0 95 34 172q43 98 140.5 150t235.5 52q137 0 233.5 -51t139.5 -147q35 -80 35 -176q0 -99 -36 -180q-45 -94 -141 -144t-232 -50q-135 0 -230 48.5zM550.5 170.5q45.5 25.5 66.5 73.5q10 22 14.5 48t4.5 61q0 36 -5 63
t-15 49q-22 48 -67 72t-112 24q-66 0 -111.5 -25t-67.5 -72q-10 -22 -14.5 -48.5t-4.5 -62.5q0 -34 5 -60.5t15 -49.5q21 -48 67 -73t112 -25q67 0 112.5 25.5zM348 910h165l-135 -153h-144zM566 910h165l-134 -153h-145z" />
    <glyph glyph-name="ohungarumlaut" unicode="&#x151;" horiz-adv-x="678" 
d="M151.5 24q-77.5 40 -110.5 116q-22 48 -22 111t22 111q33 76 110.5 116t187.5 40t187 -39.5t110 -113.5q23 -52 23 -114q0 -63 -23 -115q-33 -74 -110 -113t-187 -39t-187.5 40zM411.5 138q29.5 15 42.5 45q11 25 11 68q0 44 -11 67q-13 30 -42.5 45.5t-72.5 15.5
q-42 0 -71.5 -16t-43.5 -45q-11 -25 -11 -67q0 -44 11 -67q13 -30 42.5 -45.5t72.5 -15.5t72.5 15zM246 719h165l-133 -166h-143zM466 719h165l-133 -166h-143z" />
    <glyph glyph-name="OE" unicode="&#x152;" horiz-adv-x="1202" 
d="M813 554v-126h347v-145h-347v-131h350v-152h-607q-58 -14 -125 -14q-134 0 -230 49.5t-139 143.5q-34 77 -34 174t34 173q43 95 139 144.5t231 49.5q67 0 125 -14h606v-152h-350zM324.5 169q44.5 -25 107.5 -25q64 0 108 25t65 73q10 22 14 48.5t4 62.5q0 37 -4.5 64
t-14.5 50q-43 94 -173 94q-64 0 -107.5 -24t-64.5 -71q-10 -22 -15 -49t-5 -64q0 -67 20 -112q21 -47 65.5 -72z" />
    <glyph glyph-name="oe" unicode="&#x153;" horiz-adv-x="1024" 
d="M811 167h190q-10 -68 -56 -112q-38 -36 -96 -54t-127 -18q-65 0 -117.5 15.5t-89.5 46.5q-75 -61 -198 -61q-100 0 -171 38t-103 109q-24 53 -24 120q0 68 24 120q32 71 103 109t171 38q60 0 110 -15.5t87 -44.5q36 29 85.5 44.5t109.5 15.5q99 0 167 -39.5t101 -110.5
q15 -34 21.5 -73.5t6.5 -88.5h-399q3 -22 11 -40q26 -58 102 -58q25 0 44 7t31 19q14 14 17 33zM618 342q-8 -18 -11 -38h210q-3 23 -10 38q-12 27 -36 41t-59 14q-69 0 -94 -55zM417 251q0 49 -12 76q-12 25 -34 38.5t-54 13.5q-33 0 -55 -13.5t-34 -38.5q-12 -27 -12 -76
t12 -76q12 -25 34 -38.5t55 -13.5q32 0 54 13.5t34 37.5q12 28 12 77z" />
    <glyph glyph-name="Racute" unicode="&#x154;" horiz-adv-x="733" 
d="M283 265h-29v-265h-196v706h368q91 0 152 -30.5t88 -89.5q19 -44 19 -101q0 -62 -20 -105q-40 -93 -161 -111l236 -269h-235zM254 388h117q42 0 69 10.5t38 34.5q8 16 8 44q0 26 -7 41q-12 25 -39 35.5t-69 10.5h-117v-176zM348 910h199l-134 -153h-182z" />
    <glyph glyph-name="racute" unicode="&#x155;" horiz-adv-x="449" 
d="M48 501h182v-48q23 35 48 49.5t58 14.5q49 0 78.5 -28t29.5 -75q0 -30 -13 -53.5t-36.5 -36.5t-53.5 -13q-31 0 -55 14t-35 38q-11 -5 -15 -14t-4 -35v-314h-184v501zM234 719h190l-126 -166h-172z" />
    <glyph glyph-name="Rcommaaccent" unicode="&#x156;" horiz-adv-x="733" 
d="M283 265h-29v-265h-196v706h368q91 0 152 -30.5t88 -89.5q19 -44 19 -101q0 -62 -20 -105q-40 -93 -161 -111l236 -269h-235zM254 388h117q42 0 69 10.5t38 34.5q8 16 8 44q0 26 -7 41q-12 25 -39 35.5t-69 10.5h-117v-176zM281 -54h189l-55 -149h-165z" />
    <glyph glyph-name="rcommaaccent" unicode="&#x157;" horiz-adv-x="449" 
d="M48 501h182v-48q23 35 48 49.5t58 14.5q49 0 78.5 -28t29.5 -75q0 -30 -13 -53.5t-36.5 -36.5t-53.5 -13q-31 0 -55 14t-35 38q-11 -5 -15 -14t-4 -35v-314h-184v501zM43 -54h189l-55 -149h-165z" />
    <glyph glyph-name="Rcaron" unicode="&#x158;" horiz-adv-x="733" 
d="M283 265h-29v-265h-196v706h368q91 0 152 -30.5t88 -89.5q19 -44 19 -101q0 -62 -20 -105q-40 -93 -161 -111l236 -269h-235zM254 388h117q42 0 69 10.5t38 34.5q8 16 8 44q0 26 -7 41q-12 25 -39 35.5t-69 10.5h-117v-176zM463 757h-225l-128 153h175l66 -76l65 76h175z
" />
    <glyph glyph-name="rcaron" unicode="&#x159;" horiz-adv-x="449" 
d="M48 501h182v-48q23 35 48 49.5t58 14.5q49 0 78.5 -28t29.5 -75q0 -30 -13 -53.5t-36.5 -36.5t-53.5 -13q-31 0 -55 14t-35 38q-11 -5 -15 -14t-4 -35v-314h-184v501zM348 554h-216l-112 166h163l57 -86l57 86h164z" />
    <glyph glyph-name="Sacute" unicode="&#x15a;" horiz-adv-x="727" 
d="M159 16q-82 37 -114 109q-17 39 -19 95h210q0 -24 8 -45q27 -56 123 -56q44 0 74 11.5t40 32.5q5 13 5 28q0 16 -5 26q-8 19 -32 32.5t-54.5 22t-81.5 19.5q-43 9 -58 13q-78 18 -127 47.5t-71 78.5q-16 35 -16 78t17 80q30 66 110 102.5t191 36.5t190 -36t110 -105
q18 -39 19 -90h-204q-1 13 -3 24t-6 20q-24 52 -110 52q-38 0 -66 -10.5t-37 -30.5q-4 -9 -4 -22t4 -22q8 -17 29 -28.5t49 -19.5t77 -19q17 -3 51 -11q58 -14 101 -30t76 -42t50 -63q16 -37 16 -84q0 -49 -18 -90q-32 -70 -116 -105.5t-204 -35.5q-122 0 -204 37zM352 910
h199l-134 -153h-182z" />
    <glyph glyph-name="sacute" unicode="&#x15b;" horiz-adv-x="568" 
d="M124.5 8q-63.5 26 -87.5 80q-14 32 -16 77h183q0 -22 7 -35q15 -36 73 -36q26 0 43 6.5t23 19.5q4 7 4 16q0 10 -4 17q-5 11 -20 19t-42 15t-58 13l-24 5q-59 14 -99 36t-58 60q-11 27 -11 56q0 33 13 59q23 51 87 76.5t148 25.5q85 0 146 -25t84 -76q14 -30 14 -65h-177
q0 18 -6 30q-15 32 -64 32q-46 0 -56 -22q-4 -8 -4 -16q0 -10 4 -15q8 -17 35.5 -26t78.5 -19l24 -5q69 -15 111 -39t59 -63q11 -22 11 -56q0 -36 -12 -65q-25 -54 -92.5 -80t-160.5 -26t-156.5 26zM279 719h190l-126 -166h-172z" />
    <glyph glyph-name="Scircumflex" unicode="&#x15c;" horiz-adv-x="727" 
d="M159 16q-82 37 -114 109q-17 39 -19 95h210q0 -24 8 -45q27 -56 123 -56q44 0 74 11.5t40 32.5q5 13 5 28q0 16 -5 26q-8 19 -32 32.5t-54.5 22t-81.5 19.5q-43 9 -58 13q-78 18 -127 47.5t-71 78.5q-16 35 -16 78t17 80q30 66 110 102.5t191 36.5t190 -36t110 -105
q18 -39 19 -90h-204q-1 13 -3 24t-6 20q-24 52 -110 52q-38 0 -66 -10.5t-37 -30.5q-4 -9 -4 -22t4 -22q8 -17 29 -28.5t49 -19.5t77 -19q17 -3 51 -11q58 -14 101 -30t76 -42t50 -63q16 -37 16 -84q0 -49 -18 -90q-32 -70 -116 -105.5t-204 -35.5q-122 0 -204 37zM245 910
h226l128 -153h-175l-66 76l-65 -76h-175z" />
    <glyph glyph-name="scircumflex" unicode="&#x15d;" horiz-adv-x="568" 
d="M124.5 8q-63.5 26 -87.5 80q-14 32 -16 77h183q0 -22 7 -35q15 -36 73 -36q26 0 43 6.5t23 19.5q4 7 4 16q0 10 -4 17q-5 11 -20 19t-42 15t-58 13l-24 5q-59 14 -99 36t-58 60q-11 27 -11 56q0 33 13 59q23 51 87 76.5t148 25.5q85 0 146 -25t84 -76q14 -30 14 -65h-177
q0 18 -6 30q-15 32 -64 32q-46 0 -56 -22q-4 -8 -4 -16q0 -10 4 -15q8 -17 35.5 -26t78.5 -19l24 -5q69 -15 111 -39t59 -63q11 -22 11 -56q0 -36 -12 -65q-25 -54 -92.5 -80t-160.5 -26t-156.5 26zM177 719h217l112 -166h-163l-58 85l-57 -85h-163z" />
    <glyph glyph-name="Scedilla" unicode="&#x15e;" horiz-adv-x="727" 
d="M701 210q0 -49 -18 -90q-25 -55 -83 -89t-142 -46q35 -10 53 -34.5t18 -61.5q0 -61 -44.5 -86.5t-127.5 -25.5q-69 0 -125 19l21 84q22 -8 42.5 -12t44.5 -4q31 0 47 7t16 25q0 16 -15.5 22.5t-49.5 6.5h-74l17 59q-89 11 -149.5 46.5t-86.5 94.5q-17 39 -19 95h210
q0 -24 8 -45q27 -56 123 -56q44 0 74 11.5t40 32.5q5 13 5 28q0 16 -5 26q-8 19 -32 32.5t-54.5 22t-81.5 19.5q-43 9 -58 13q-78 18 -127 47.5t-71 78.5q-16 35 -16 78t17 80q30 66 110 102.5t191 36.5t190 -36t110 -105q18 -39 19 -90h-204q-1 13 -3 24t-6 20
q-24 52 -110 52q-38 0 -66 -10.5t-37 -30.5q-4 -9 -4 -22t4 -22q8 -17 29 -28.5t49 -19.5t77 -19q17 -3 51 -11q58 -14 101 -30t76 -42t50 -63q16 -37 16 -84z" />
    <glyph glyph-name="scedilla" unicode="&#x15f;" horiz-adv-x="568" 
d="M546 153q0 -36 -12 -65q-19 -40 -62 -65t-105 -35q42 -7 63.5 -33t21.5 -65q0 -61 -44.5 -87t-127.5 -26q-65 0 -125 19l21 84q21 -8 41.5 -11.5t45.5 -3.5q31 0 47 7t16 24q0 15 -15.5 22t-49.5 7h-75l18 62q-63 9 -105.5 34t-61.5 67q-14 32 -16 77h183q0 -22 7 -35
q15 -36 73 -36q26 0 43 6.5t23 19.5q4 7 4 16q0 10 -4 17q-5 11 -20 19t-42 15t-58 13l-24 5q-59 14 -99 36t-58 60q-11 27 -11 56q0 33 13 59q23 51 87 76.5t148 25.5q85 0 146 -25t84 -76q14 -30 14 -65h-177q0 18 -6 30q-15 32 -64 32q-46 0 -56 -22q-4 -8 -4 -16
q0 -10 4 -15q8 -17 35.5 -26t78.5 -19l24 -5q69 -15 111 -39t59 -63q11 -22 11 -56z" />
    <glyph glyph-name="Scaron" unicode="&#x160;" horiz-adv-x="727" 
d="M159 16q-82 37 -114 109q-17 39 -19 95h210q0 -24 8 -45q27 -56 123 -56q44 0 74 11.5t40 32.5q5 13 5 28q0 16 -5 26q-8 19 -32 32.5t-54.5 22t-81.5 19.5q-43 9 -58 13q-78 18 -127 47.5t-71 78.5q-16 35 -16 78t17 80q30 66 110 102.5t191 36.5t190 -36t110 -105
q18 -39 19 -90h-204q-1 13 -3 24t-6 20q-24 52 -110 52q-38 0 -66 -10.5t-37 -30.5q-4 -9 -4 -22t4 -22q8 -17 29 -28.5t49 -19.5t77 -19q17 -3 51 -11q58 -14 101 -30t76 -42t50 -63q16 -37 16 -84q0 -49 -18 -90q-32 -70 -116 -105.5t-204 -35.5q-122 0 -204 37zM470 757
h-225l-128 153h175l66 -76l65 76h175z" />
    <glyph glyph-name="scaron" unicode="&#x161;" horiz-adv-x="568" 
d="M124.5 8q-63.5 26 -87.5 80q-14 32 -16 77h183q0 -22 7 -35q15 -36 73 -36q26 0 43 6.5t23 19.5q4 7 4 16q0 10 -4 17q-5 11 -20 19t-42 15t-58 13l-24 5q-59 14 -99 36t-58 60q-11 27 -11 56q0 33 13 59q23 51 87 76.5t148 25.5q85 0 146 -25t84 -76q14 -30 14 -65h-177
q0 18 -6 30q-15 32 -64 32q-46 0 -56 -22q-4 -8 -4 -16q0 -10 4 -15q8 -17 35.5 -26t78.5 -19l24 -5q69 -15 111 -39t59 -63q11 -22 11 -56q0 -36 -12 -65q-25 -54 -92.5 -80t-160.5 -26t-156.5 26zM393 554h-216l-112 166h163l57 -86l57 86h164z" />
    <glyph glyph-name="uni0162" unicode="&#x162;" horiz-adv-x="580" 
d="M341 0l-2 -7q57 -1 86 -28.5t29 -73.5q0 -61 -44.5 -86.5t-127.5 -25.5q-68 0 -125 18l21 84q23 -8 43 -11.5t44 -3.5q31 0 47.5 7t16.5 24q0 16 -16 23t-50 7h-74l21 73h-18v549h-183v157h562v-157h-183v-549h-47z" />
    <glyph glyph-name="uni0163" unicode="&#x163;" horiz-adv-x="438" 
d="M406.5 -41q22.5 -26 22.5 -67q0 -61 -44.5 -87t-127.5 -26q-65 0 -125 19l21 84q23 -8 43 -11.5t44 -3.5q31 0 47 7t16 24q0 16 -15.5 23t-49.5 7h-74l22 78q-46 18 -68 59t-22 108v189h-79v139h79v121h183v-121h141v-139h-141v-152q0 -41 18.5 -59t55.5 -18q30 0 63 8
v-139q-41 -8 -78 -11q46 -6 68.5 -32z" />
    <glyph glyph-name="Tcaron" unicode="&#x164;" horiz-adv-x="580" 
d="M192 549h-183v157h562v-157h-183v-549h-196v549zM403 757h-225l-128 153h175l66 -76l65 76h175z" />
    <glyph glyph-name="tcaron" unicode="&#x165;" horiz-adv-x="504" 
d="M143 33q-47 44 -47 140v189h-79v139h79v121h183v-121h141v-139h-141v-152q0 -41 18.5 -59t55.5 -18q30 0 63 8v-139q-67 -13 -128 -13q-98 0 -145 44zM339 706h171l-53 -173h-145z" />
    <glyph glyph-name="Tbar" unicode="&#x166;" horiz-adv-x="580" 
d="M388 549v-128h130v-111h-130v-310h-196v310h-131v111h131v128h-183v157h562v-157h-183z" />
    <glyph glyph-name="tbar" unicode="&#x167;" horiz-adv-x="438" 
d="M279 362v-55h139v-96h-139v-1q0 -41 18.5 -59t55.5 -18q30 0 63 8v-139q-67 -13 -128 -13q-98 0 -145 44t-47 140v38h-78v96h78v55h-79v139h79v121h183v-121h141v-139h-141z" />
    <glyph glyph-name="Utilde" unicode="&#x168;" horiz-adv-x="786" 
d="M128.5 55.5q-85.5 76.5 -85.5 231.5v419h196v-406q0 -81 37 -119t116 -38q80 0 117 38t37 119v406h196v-419q0 -156 -85 -232t-264 -76t-264.5 76.5zM439.5 758q-19.5 7 -49.5 21q-29 14 -43 19t-29 5q-36 0 -42 -48h-111q6 82 40.5 122t97.5 40q27 0 46.5 -7t49.5 -24
q23 -12 35 -17t27 -5q19 0 29.5 11.5t16.5 36.5h113q-4 -80 -38 -120.5t-95 -40.5q-28 0 -47.5 7z" />
    <glyph glyph-name="utilde" unicode="&#x169;" horiz-adv-x="663" 
d="M615 501v-501h-184v67q-65 -84 -181 -84q-100 0 -153.5 54t-53.5 157v307h184v-271q0 -55 24.5 -81t72.5 -26q53 0 80 31t27 89v258h184zM372.5 558.5q-21.5 7.5 -43.5 21.5q-8 5 -22.5 14t-24.5 13t-20 4q-19 0 -29 -14t-12 -44h-106q6 88 36 130.5t91 42.5
q26 0 47.5 -7.5t45.5 -23.5q6 -4 19 -12.5t23.5 -12.5t20.5 -4q18 0 27 13.5t13 44.5h107q-4 -91 -34 -132t-90 -41q-27 0 -48.5 7.5z" />
    <glyph glyph-name="Umacron" unicode="&#x16a;" horiz-adv-x="786" 
d="M128.5 55.5q-85.5 76.5 -85.5 231.5v419h196v-406q0 -81 37 -119t116 -38q80 0 117 38t37 119v406h196v-419q0 -156 -85 -232t-264 -76t-264.5 76.5zM209 894h368v-120h-368v120z" />
    <glyph glyph-name="umacron" unicode="&#x16b;" horiz-adv-x="663" 
d="M615 501v-501h-184v67q-65 -84 -181 -84q-100 0 -153.5 54t-53.5 157v307h184v-271q0 -55 24.5 -81t72.5 -26q53 0 80 31t27 89v258h184zM149 700h363v-119h-363v119z" />
    <glyph glyph-name="Ubreve" unicode="&#x16c;" horiz-adv-x="786" 
d="M128.5 55.5q-85.5 76.5 -85.5 231.5v419h196v-406q0 -81 37 -119t116 -38q80 0 117 38t37 119v406h196v-419q0 -156 -85 -232t-264 -76t-264.5 76.5zM243.5 793.5q-53.5 40.5 -58.5 116.5h131q5 -31 24 -45.5t55 -14.5t54 14t25 46h128q-5 -76 -57 -116.5t-150 -40.5
t-151.5 40.5z" />
    <glyph glyph-name="ubreve" unicode="&#x16d;" horiz-adv-x="663" 
d="M615 501v-501h-184v67q-65 -84 -181 -84q-100 0 -153.5 54t-53.5 157v307h184v-271q0 -55 24.5 -81t72.5 -26q53 0 80 31t27 89v258h184zM180.5 589.5q-53.5 44.5 -58.5 129.5h127q6 -38 25.5 -55.5t56.5 -17.5q38 0 57 17t25 56h126q-5 -85 -57.5 -129.5t-150.5 -44.5
q-97 0 -150.5 44.5z" />
    <glyph glyph-name="Uring" unicode="&#x16e;" horiz-adv-x="786" 
d="M128.5 55.5q-85.5 76.5 -85.5 231.5v419h196v-406q0 -81 37 -119t116 -38q80 0 117 38t37 119v406h196v-419q0 -156 -85 -232t-264 -76t-264.5 76.5zM315 743q-34 16 -53 45.5t-19 68.5t19 68.5t53 45.5t78 16q43 0 77 -16t53 -45.5t19 -68.5t-19 -68.5t-53 -45.5
t-77 -16q-44 0 -78 16zM432.5 820.5q14.5 13.5 14.5 36.5t-14.5 37t-39.5 14t-40 -14t-15 -37q0 -22 15 -36t40 -14t39.5 13.5z" />
    <glyph glyph-name="uring" unicode="&#x16f;" horiz-adv-x="663" 
d="M615 501v-501h-184v67q-65 -84 -181 -84q-100 0 -153.5 54t-53.5 157v307h184v-271q0 -55 24.5 -81t72.5 -26q53 0 80 31t27 89v258h184zM252 558q-34 16 -53 45.5t-19 68.5t19 68.5t53 45.5t78 16q43 0 77 -16t53 -45.5t19 -68.5t-19 -68.5t-53 -45.5t-77 -16
q-44 0 -78 16zM369.5 635.5q14.5 13.5 14.5 36.5t-14.5 37t-39.5 14t-40 -14t-15 -37q0 -22 15 -36t40 -14t39.5 13.5z" />
    <glyph glyph-name="Uhungarumlaut" unicode="&#x170;" horiz-adv-x="786" 
d="M128.5 55.5q-85.5 76.5 -85.5 231.5v419h196v-406q0 -81 37 -119t116 -38q80 0 117 38t37 119v406h196v-419q0 -156 -85 -232t-264 -76t-264.5 76.5zM303 910h165l-135 -153h-144zM521 910h165l-134 -153h-145z" />
    <glyph glyph-name="uhungarumlaut" unicode="&#x171;" horiz-adv-x="663" 
d="M615 501v-501h-184v67q-65 -84 -181 -84q-100 0 -153.5 54t-53.5 157v307h184v-271q0 -55 24.5 -81t72.5 -26q53 0 80 31t27 89v258h184zM237 719h165l-133 -166h-143zM457 719h165l-133 -166h-143z" />
    <glyph glyph-name="Uogonek" unicode="&#x172;" horiz-adv-x="786" 
d="M742 706v-419q0 -109 -38.5 -173.5t-109.5 -102.5q-46 -25 -67.5 -46.5t-21.5 -46.5q0 -20 13 -30t35 -10q24 0 43 8v-93q-39 -12 -92 -12q-66 0 -106 27.5t-40 78.5q0 53 47 92h-12q-179 0 -264.5 76.5t-85.5 231.5v419h196v-406q0 -81 37 -119t116 -38q80 0 117 38
t37 119v406h196z" />
    <glyph glyph-name="uogonek" unicode="&#x173;" horiz-adv-x="663" 
d="M616 -113v-93q-38 -13 -94 -13q-65 0 -104.5 25.5t-39.5 75.5q0 74 97 118h-44v67q-65 -84 -181 -84q-100 0 -153.5 54t-53.5 157v307h184v-271q0 -55 24.5 -81t72.5 -26q53 0 80 31t27 89v258h184v-501q-45 -21 -67.5 -41.5t-22.5 -44.5q0 -17 13 -26t35 -9q24 0 43 8z
" />
    <glyph glyph-name="Wcircumflex" unicode="&#x174;" horiz-adv-x="1146" 
d="M1155 706l-234 -706h-201l-147 469l-146 -469h-201l-236 706h206l137 -447l136 447h209l135 -445l137 445h205zM460 910h226l128 -153h-175l-66 76l-65 -76h-175z" />
    <glyph glyph-name="wcircumflex" unicode="&#x175;" horiz-adv-x="958" 
d="M963 502l-198 -502h-187l-99 289l-99 -289h-188l-197 502h197l96 -297l104 297h173l104 -296l96 296h198zM369 719h217l112 -166h-163l-58 85l-57 -85h-163z" />
    <glyph glyph-name="Ycircumflex" unicode="&#x176;" horiz-adv-x="724" 
d="M264 308l-274 398h221l151 -226l151 226h221l-274 -398v-308h-196v308zM250 910h226l128 -153h-175l-66 76l-65 -76h-175z" />
    <glyph glyph-name="ycircumflex" unicode="&#x177;" horiz-adv-x="627" 
d="M632 501l-323 -704h-185l96 206l-225 498h196l126 -318l125 318h190zM208 719h217l112 -166h-163l-58 85l-57 -85h-163z" />
    <glyph glyph-name="Ydieresis" unicode="&#x178;" horiz-adv-x="724" 
d="M264 308l-274 398h221l151 -226l151 226h221l-274 -398v-308h-196v308zM187.5 764q-20.5 11 -32 30.5t-11.5 44.5t11.5 44.5t32 31t46.5 11.5t47 -11.5t32.5 -31t11.5 -44.5t-11.5 -44.5t-32.5 -30.5t-47 -11t-46.5 11zM445 764q-21 11 -32.5 30.5t-11.5 44.5t11.5 44.5
t32.5 31t47 11.5t46.5 -11.5t32.5 -31t12 -44.5t-12 -44.5t-32.5 -30.5t-46.5 -11t-47 11z" />
    <glyph glyph-name="Zacute" unicode="&#x179;" horiz-adv-x="703" 
d="M364 549h-339v157h662l-350 -548h353v-158h-683zM343 910h199l-134 -153h-182z" />
    <glyph glyph-name="zacute" unicode="&#x17a;" horiz-adv-x="557" 
d="M306 141h235v-141h-535l257 362h-230v139h516zM279 719h190l-126 -166h-172z" />
    <glyph glyph-name="Zdotaccent" unicode="&#x17b;" horiz-adv-x="703" 
d="M364 549h-339v157h662l-350 -548h353v-158h-683zM296.5 765.5q-22.5 12.5 -35 33.5t-12.5 47t12.5 47t35 33t50.5 12t50 -12t34.5 -33t12.5 -47t-12.5 -47t-35 -33.5t-49.5 -12.5q-28 0 -50.5 12.5z" />
    <glyph glyph-name="zdotaccent" unicode="&#x17c;" horiz-adv-x="557" 
d="M306 141h235v-141h-535l257 362h-230v139h516zM235.5 565.5q-21.5 11.5 -34 32.5t-12.5 47t12.5 47t34 32.5t48.5 11.5t49 -11.5t34.5 -32.5t12.5 -47t-12.5 -47t-34.5 -32.5t-49 -11.5t-48.5 11.5z" />
    <glyph glyph-name="Zcaron" unicode="&#x17d;" horiz-adv-x="703" 
d="M364 549h-339v157h662l-350 -548h353v-158h-683zM459 757h-225l-128 153h175l66 -76l65 76h175z" />
    <glyph glyph-name="zcaron" unicode="&#x17e;" horiz-adv-x="557" 
d="M306 141h235v-141h-535l257 362h-230v139h516zM392 554h-216l-112 166h163l57 -86l57 86h164z" />
    <glyph glyph-name="Schwa" unicode="&#x18f;" horiz-adv-x="870" 
d="M842 353q0 -97 -33 -174q-43 -97 -143 -148.5t-239 -51.5q-133 0 -225.5 49t-136.5 145q-19 43 -28 88.5t-9 101.5v30h602q-4 43 -19 75q-21 49 -69.5 74t-116.5 25q-45 0 -82 -11t-61 -33q-28 -25 -38 -66h-210q6 48 31.5 94.5t62.5 79.5q53 48 129.5 72t168.5 24
q140 0 238.5 -50.5t142.5 -149.5q35 -78 35 -174zM540.5 164q49.5 25 71.5 74q6 14 8 22h-388q2 -16 11 -37q19 -43 67 -63.5t113 -20.5q68 0 117.5 25z" />
    <glyph glyph-name="florin" unicode="&#x192;" horiz-adv-x="488" 
d="M57 -8q-26 3 -44 8v141q26 -9 60 -9q37 0 58 18.5t21 53.5v144h-136v88h136v86q0 70 23.5 115t73.5 67t130 22q26 0 52 -3t44 -8v-141q-25 10 -61 10q-78 0 -78 -77v-71h139v-88h-139v-157q0 -70 -23.5 -114.5t-73.5 -66t-130 -21.5q-26 0 -52 3z" />
    <glyph glyph-name="Aringacute" unicode="&#x1fa;" horiz-adv-x="833" 
d="M584 135h-334l-52 -135h-208l286 706h281l286 -706h-207zM530 278l-112 293h-2l-112 -293h226zM339 743q-34 16 -53 45.5t-19 68.5t19 68.5t53 45.5t78 16q43 0 77 -16t53 -45.5t19 -68.5t-19 -68.5t-53 -45.5t-77 -16q-44 0 -78 16zM456.5 820.5q14.5 13.5 14.5 36.5
t-14.5 37t-39.5 14t-40 -14t-15 -37q0 -22 15 -36t40 -14t39.5 13.5zM413 1191h199l-134 -153h-182z" />
    <glyph glyph-name="aringacute" unicode="&#x1fb;" horiz-adv-x="641" 
d="M597 284v-284h-183v61q-31 -38 -78.5 -57.5t-115.5 -19.5q-70 0 -117.5 22t-68.5 67q-13 31 -13 64q0 36 13 67q28 61 102 83t189 22h88v7q0 17 -2 27t-6 19q-17 40 -86 40q-68 0 -85 -37q-5 -13 -5 -24h-185q2 38 15 65q26 59 93 85.5t165 26.5q104 0 168 -27t90 -88
q22 -47 22 -119zM365 121q29 13 41 39q8 19 8 48v6h-83q-48 0 -76.5 -6.5t-37.5 -25.5q-4 -10 -4 -21q0 -12 4 -21q14 -32 78 -32q41 0 70 13zM246 558q-34 16 -53 45.5t-19 68.5t19 68.5t53 45.5t78 16q43 0 77 -16t53 -45.5t19 -68.5t-19 -68.5t-53 -45.5t-77 -16
q-44 0 -78 16zM363.5 635.5q14.5 13.5 14.5 36.5t-14.5 37t-39.5 14t-40 -14t-15 -37q0 -22 15 -36t40 -14t39.5 13.5zM317 1020h190l-126 -166h-172z" />
    <glyph glyph-name="AEacute" unicode="&#x1fc;" horiz-adv-x="1003" 
d="M622 554l25 -126h314v-146h-284l26 -130h261v-152h-432l-25 136h-252l-54 -136h-211l307 706h667v-152h-342zM480 277l-54 289h-2l-114 -289h170zM525 910h199l-134 -153h-182z" />
    <glyph glyph-name="aeacute" unicode="&#x1fd;" horiz-adv-x="1017" 
d="M804 167h190q-10 -70 -59 -116q-38 -35 -95 -51.5t-126 -16.5q-79 0 -140 24t-99 70q-40 -47 -96.5 -70.5t-137.5 -23.5q-78 0 -132 23.5t-75 69.5q-13 29 -13 62q0 35 13 66q26 61 100.5 83t190.5 22h88v6q0 17 -1.5 27.5t-6.5 20.5q-19 39 -86 39q-68 0 -85 -37
q-5 -13 -5 -24h-185q1 34 15 65q26 59 93 85.5t165 26.5q71 0 120.5 -12t81.5 -39q71 51 183 51q99 0 167 -39.5t101 -110.5q14 -33 20.5 -72t7.5 -90h-399q3 -24 10 -41q13 -28 39 -43t64 -15q23 0 41.5 6.5t31.5 17.5q16 15 19 36zM646 382q-24 -14 -36 -41
q-7 -15 -10 -37h210q-3 22 -10 37q-12 27 -36.5 41t-59.5 14q-34 0 -58 -14zM414 214h-83q-48 0 -76 -6t-38 -25q-4 -12 -4 -21q0 -13 4 -22q15 -32 78 -32q42 0 70.5 12.5t39.5 38.5q5 9 7 20.5t2 28.5v6zM524 719h190l-126 -166h-172z" />
    <glyph glyph-name="Oslashacute" unicode="&#x1fe;" horiz-adv-x="875" 
d="M811 529q35 -80 35 -176q0 -99 -36 -180q-45 -94 -141 -144t-232 -50q-163 0 -266 70l-55 -49h-141l127 114q-22 29 -34 55q-40 78 -40 184q0 95 34 172q43 98 140.5 150t235.5 52q80 0 147.5 -17.5t118.5 -52.5l52 49h145l-127 -115q21 -26 37 -62zM243.5 415.5
q-4.5 -26.5 -4.5 -62.5q0 -61 17 -104l305 281q-47 31 -124 31q-66 0 -111.5 -25t-67.5 -72q-10 -22 -14.5 -48.5zM631.5 292q4.5 26 4.5 61q0 63 -16 104l-305 -281q50 -31 123 -31q67 0 112.5 25.5t66.5 73.5q10 22 14.5 48zM434 910h199l-134 -153h-182z" />
    <glyph glyph-name="oslashacute" unicode="&#x1ff;" horiz-adv-x="678" 
d="M636 365q23 -52 23 -114q0 -63 -23 -115q-33 -74 -110 -113t-187 -39q-115 0 -192 43l-30 -27h-119l85 76q-25 26 -42 64q-22 48 -22 111t22 111q33 76 110.5 116t187.5 40q114 0 192 -42l26 25h121l-82 -74q26 -29 40 -62zM213 251q0 -35 7 -57l188 171q-27 14 -69 14
t-71.5 -16t-43.5 -45q-11 -25 -11 -67zM465 251q0 35 -7 57l-188 -171q30 -14 69 -14q43 0 72.5 15t42.5 45q11 25 11 68zM333 719h190l-126 -166h-172z" />
    <glyph glyph-name="Scommaaccent" unicode="&#x218;" horiz-adv-x="727" 
d="M159 16q-82 37 -114 109q-17 39 -19 95h210q0 -24 8 -45q27 -56 123 -56q44 0 74 11.5t40 32.5q5 13 5 28q0 16 -5 26q-8 19 -32 32.5t-54.5 22t-81.5 19.5q-43 9 -58 13q-78 18 -127 47.5t-71 78.5q-16 35 -16 78t17 80q30 66 110 102.5t191 36.5t190 -36t110 -105
q18 -39 19 -90h-204q-1 13 -3 24t-6 20q-24 52 -110 52q-38 0 -66 -10.5t-37 -30.5q-4 -9 -4 -22t4 -22q8 -17 29 -28.5t49 -19.5t77 -19q17 -3 51 -11q58 -14 101 -30t76 -42t50 -63q16 -37 16 -84q0 -49 -18 -90q-32 -70 -116 -105.5t-204 -35.5q-122 0 -204 37zM276 -56
h189l-55 -149h-165z" />
    <glyph glyph-name="scommaaccent" unicode="&#x219;" horiz-adv-x="568" 
d="M124.5 8q-63.5 26 -87.5 80q-14 32 -16 77h183q0 -22 7 -35q15 -36 73 -36q26 0 43 6.5t23 19.5q4 7 4 16q0 10 -4 17q-5 11 -20 19t-42 15t-58 13l-24 5q-59 14 -99 36t-58 60q-11 27 -11 56q0 33 13 59q23 51 87 76.5t148 25.5q85 0 146 -25t84 -76q14 -30 14 -65h-177
q0 18 -6 30q-15 32 -64 32q-46 0 -56 -22q-4 -8 -4 -16q0 -10 4 -15q8 -17 35.5 -26t78.5 -19l24 -5q69 -15 111 -39t59 -63q11 -22 11 -56q0 -36 -12 -65q-25 -54 -92.5 -80t-160.5 -26t-156.5 26zM195 -55h189l-55 -149h-165z" />
    <glyph glyph-name="uni021A" unicode="&#x21a;" horiz-adv-x="580" 
d="M192 549h-183v157h562v-157h-183v-549h-196v549zM197 -54h189l-55 -149h-165z" />
    <glyph glyph-name="uni021B" unicode="&#x21b;" horiz-adv-x="438" 
d="M143 33q-47 44 -47 140v189h-79v139h79v121h183v-121h141v-139h-141v-152q0 -41 18.5 -59t55.5 -18q30 0 63 8v-139q-67 -13 -128 -13q-98 0 -145 44zM172 -53h189l-55 -149h-165z" />
    <glyph glyph-name="dotlessj" unicode="&#x237;" horiz-adv-x="284" 
d="M-43 -209v150q21 -3 39 -3q29 0 42.5 14t13.5 43v506h184v-521q0 -68 -20.5 -110.5t-64.5 -63t-115 -20.5q-37 0 -79 5z" />
    <glyph glyph-name="schwa" unicode="&#x259;" horiz-adv-x="668" 
d="M649 250q0 -65 -23 -116q-33 -74 -109.5 -112.5t-180.5 -38.5q-107 0 -181.5 40.5t-107.5 115.5q-15 34 -21.5 70t-6.5 86h445q-3 22 -11 38q-13 31 -47 46t-82 15q-30 0 -55.5 -6.5t-39.5 -20.5q-15 -12 -20 -32h-186q10 65 59 109q79 74 243 74q110 0 189.5 -39
t111.5 -113q23 -51 23 -116zM408.5 120.5q30.5 15.5 44.5 45.5q7 16 10 32h-259q3 -22 9 -33q14 -30 45 -45t76 -15q44 0 74.5 15.5z" />
    <glyph glyph-name="circumflex" unicode="&#x2c6;" horiz-adv-x="541" 
d="M162 719h217l112 -166h-163l-58 85l-57 -85h-163z" />
    <glyph glyph-name="caron" unicode="&#x2c7;" horiz-adv-x="541" 
d="M378 554h-216l-112 166h163l57 -86l57 86h164z" />
    <glyph glyph-name="uni02C9" unicode="&#x2c9;" horiz-adv-x="463" 
d="M50 700h363v-119h-363v119z" />
    <glyph glyph-name="breve" unicode="&#x2d8;" horiz-adv-x="517" 
d="M108.5 589.5q-53.5 44.5 -58.5 129.5h127q6 -38 25.5 -55.5t56.5 -17.5q38 0 57 17t25 56h126q-5 -85 -57.5 -129.5t-150.5 -44.5q-97 0 -150.5 44.5z" />
    <glyph glyph-name="dotaccent" unicode="&#x2d9;" horiz-adv-x="291" 
d="M96.5 565.5q-21.5 11.5 -34 32.5t-12.5 47t12.5 47t34 32.5t48.5 11.5t49 -11.5t34.5 -32.5t12.5 -47t-12.5 -47t-34.5 -32.5t-49 -11.5t-48.5 11.5z" />
    <glyph glyph-name="ring" unicode="&#x2da;" horiz-adv-x="399" 
d="M122 558q-34 16 -53 45.5t-19 68.5t19 68.5t53 45.5t78 16q43 0 77 -16t53 -45.5t19 -68.5t-19 -68.5t-53 -45.5t-77 -16q-44 0 -78 16zM239.5 635.5q14.5 13.5 14.5 36.5t-14.5 37t-39.5 14t-40 -14t-15 -37q0 -22 15 -36t40 -14t39.5 13.5z" />
    <glyph glyph-name="ogonek" unicode="&#x2db;" horiz-adv-x="339" 
d="M89.5 -193.5q-39.5 25.5 -39.5 75.5q0 76 101 120l136 -2q-45 -21 -67.5 -41.5t-22.5 -44.5q0 -17 13 -26t35 -9q24 0 43 8v-93q-38 -13 -94 -13q-65 0 -104.5 25.5z" />
    <glyph glyph-name="tilde" unicode="&#x2dc;" horiz-adv-x="530" 
d="M307.5 558.5q-21.5 7.5 -43.5 21.5q-8 5 -22.5 14t-24.5 13t-20 4q-19 0 -29 -14t-12 -44h-106q6 88 36 130.5t91 42.5q26 0 47.5 -7.5t45.5 -23.5q6 -4 19 -12.5t23.5 -12.5t20.5 -4q18 0 27 13.5t13 44.5h107q-4 -91 -34 -132t-90 -41q-27 0 -48.5 7.5z" />
    <glyph glyph-name="hungarumlaut" unicode="&#x2dd;" horiz-adv-x="596" 
d="M161 719h165l-133 -166h-143zM381 719h165l-133 -166h-143z" />
    <glyph glyph-name="gravecomb" unicode="&#x300;" 
d="M-222 553l-126 166h190l108 -166h-172z" />
    <glyph glyph-name="acutecomb" unicode="&#x301;" 
d="M-240 719h190l-126 -166h-172z" />
    <glyph glyph-name="circumflexcomb" unicode="&#x302;" 
d="M-379 719h217l112 -166h-163l-58 85l-57 -85h-163z" />
    <glyph glyph-name="tildecomb" unicode="&#x303;" 
d="M-222.5 558.5q-21.5 7.5 -43.5 21.5q-8 5 -22.5 14t-24.5 13t-20 4q-19 0 -29 -14t-12 -44h-106q6 88 36 130.5t91 42.5q26 0 47.5 -7.5t45.5 -23.5q6 -4 19 -12.5t23.5 -12.5t20.5 -4q18 0 27 13.5t13 44.5h107q-4 -91 -34 -132t-90 -41q-27 0 -48.5 7.5z" />
    <glyph glyph-name="macroncomb" unicode="&#x304;" 
d="M-413 700h363v-119h-363v119z" />
    <glyph glyph-name="brevecomb" unicode="&#x306;" 
d="M-408.5 589.5q-53.5 44.5 -58.5 129.5h127q6 -38 25.5 -55.5t56.5 -17.5q38 0 57 17t25 56h126q-5 -85 -57.5 -129.5t-150.5 -44.5q-97 0 -150.5 44.5z" />
    <glyph glyph-name="dotaccentcomb" unicode="&#x307;" 
d="M-194.5 565.5q-21.5 11.5 -34 32.5t-12.5 47t12.5 47t34 32.5t48.5 11.5t49 -11.5t34.5 -32.5t12.5 -47t-12.5 -47t-34.5 -32.5t-49 -11.5t-48.5 11.5z" />
    <glyph glyph-name="dieresiscomb" unicode="&#x308;" 
d="M-429.5 566q-20.5 11 -32.5 31t-12 45t12 45t32.5 31.5t46.5 11.5t47.5 -11.5t33.5 -31.5t12 -45t-12 -45t-33.5 -31t-47.5 -11t-46.5 11zM-189 565.5q-21 11.5 -33 31t-12 44.5t12 45t33 31.5t47 11.5t47 -11.5t33 -31.5t12 -45t-12 -44.5t-33 -31t-47 -11.5t-47 11.5z
" />
    <glyph glyph-name="ringcomb" unicode="&#x30a;" 
d="M-277 558q-34 16 -53 45.5t-19 68.5t19 68.5t53 45.5t78 16q43 0 77 -16t53 -45.5t19 -68.5t-19 -68.5t-53 -45.5t-77 -16q-44 0 -78 16zM-159.5 635.5q14.5 13.5 14.5 36.5t-14.5 37t-39.5 14t-40 -14t-15 -37q0 -22 15 -36t40 -14t39.5 13.5z" />
    <glyph glyph-name="hungarumlautcomb" unicode="&#x30b;" 
d="M-435 719h165l-133 -166h-143zM-215 719h165l-133 -166h-143z" />
    <glyph glyph-name="caroncomb" unicode="&#x30c;" 
d="M-163 554h-216l-112 166h163l57 -86l57 86h164z" />
    <glyph glyph-name="commaturnedabovecomb" unicode="&#x312;" 
d="M-82 566h-188l55 149h165z" />
    <glyph glyph-name="commaaccent" unicode="&#x326;" 
d="M-239 -54h189l-55 -149h-165z" />
    <glyph glyph-name="cedillacomb" unicode="&#x327;" 
d="M-79 -35.5q29 -27.5 29 -73.5q0 -61 -44.5 -86.5t-127.5 -25.5q-68 0 -125 18l21 84q23 -8 43 -11.5t44 -3.5q31 0 47 7t16 24q0 16 -15.5 23t-49.5 7h-74l29 102h131l-11 -36q58 -1 87 -28.5z" />
    <glyph glyph-name="ogonekcomb" unicode="&#x328;" 
d="M-249.5 -193.5q-39.5 25.5 -39.5 75.5q0 76 101 120l136 -2q-45 -21 -67.5 -41.5t-22.5 -44.5q0 -17 13 -26t35 -9q24 0 43 8v-93q-38 -13 -94 -13q-65 0 -104.5 25.5z" />
    <glyph glyph-name="uni0335" unicode="&#x335;" 
d="M-450 350h400v-96h-400v96z" />
    <glyph glyph-name="uni0336" unicode="&#x336;" 
d="M-410 679h410v-102h-410v102z" />
    <glyph glyph-name="uni0337" unicode="&#x337;" 
d="M0 539v-139l-158 -108v34l-158 -104v139l158 105v-33z" />
    <glyph glyph-name="uni0338" unicode="&#x338;" 
d="M-561 143l2 -4l315 287v-2l83 77h121l-171 -154l-2 4l-316 -287v1l-72 -65h-120z" />
    <glyph glyph-name="uni0394" unicode="&#x394;" horiz-adv-x="833" 
d="M843 0h-853l286 706h281zM581 143l-163 426h-2l-163 -426h328z" />
    <glyph glyph-name="uni03A9" unicode="&#x3a9;" horiz-adv-x="791" 
d="M679 240q-39 -34 -94 -53v-45h154v-142h-300v299q41 7 69 26.5t42 49.5q13 29 13 67t-12 63q-17 38 -56.5 58t-98.5 20q-60 0 -99.5 -20t-56.5 -58q-12 -25 -12 -63t13 -67q14 -30 42.5 -49.5t68.5 -26.5v-299h-300v142h154v45q-55 19 -94 53t-60 81q-24 53 -24 121
q0 67 24 121q36 81 125.5 122.5t218.5 41.5t218 -41.5t125 -122.5q24 -51 24 -121q0 -68 -24 -121q-21 -47 -60 -81z" />
    <glyph glyph-name="uni03BC" unicode="&#x3bc;" horiz-adv-x="668" 
d="M619 501v-501h-183v63q-27 -38 -65.5 -59t-87.5 -21q-33 0 -61 11q9 -68 9 -137v-60h-183v704h184v-268q0 -57 24 -83.5t73 -26.5q53 0 80 30.5t27 89.5v258h183z" />
    <glyph glyph-name="pi" unicode="&#x3c0;" horiz-adv-x="826" 
d="M551.5 33q-46.5 44 -46.5 140v189h-184v-362h-183v362h-90v139h730v-139h-90v-152q0 -41 18.5 -59t55.5 -18h16v-138q-40 -6 -81 -6q-99 0 -145.5 44z" />
    <glyph glyph-name="Wgrave" unicode="&#x1e80;" horiz-adv-x="1146" 
d="M1155 706l-234 -706h-201l-147 469l-146 -469h-201l-236 706h206l137 -447l136 447h209l135 -445l137 445h205zM512 757l-134 153h199l117 -153h-182z" />
    <glyph glyph-name="wgrave" unicode="&#x1e81;" horiz-adv-x="958" 
d="M963 502l-198 -502h-187l-99 289l-99 -289h-188l-197 502h197l96 -297l104 297h173l104 -296l96 296h198zM420 553l-126 166h190l108 -166h-172z" />
    <glyph glyph-name="Wacute" unicode="&#x1e82;" horiz-adv-x="1146" 
d="M1155 706l-234 -706h-201l-147 469l-146 -469h-201l-236 706h206l137 -447l136 447h209l135 -445l137 445h205zM570 910h199l-134 -153h-182z" />
    <glyph glyph-name="wacute" unicode="&#x1e83;" horiz-adv-x="958" 
d="M963 502l-198 -502h-187l-99 289l-99 -289h-188l-197 502h197l96 -297l104 297h173l104 -296l96 296h198zM471 719h190l-126 -166h-172z" />
    <glyph glyph-name="Wdieresis" unicode="&#x1e84;" horiz-adv-x="1146" 
d="M1155 706l-234 -706h-201l-147 469l-146 -469h-201l-236 706h206l137 -447l136 447h209l135 -445l137 445h205zM397.5 764q-20.5 11 -32 30.5t-11.5 44.5t11.5 44.5t32 31t46.5 11.5t47 -11.5t32.5 -31t11.5 -44.5t-11.5 -44.5t-32.5 -30.5t-47 -11t-46.5 11zM655 764
q-21 11 -32.5 30.5t-11.5 44.5t11.5 44.5t32.5 31t47 11.5t46.5 -11.5t32.5 -31t12 -44.5t-12 -44.5t-32.5 -30.5t-46.5 -11t-47 11z" />
    <glyph glyph-name="wdieresis" unicode="&#x1e85;" horiz-adv-x="958" 
d="M963 502l-198 -502h-187l-99 289l-99 -289h-188l-197 502h197l96 -297l104 297h173l104 -296l96 296h198zM309.5 566q-20.5 11 -32.5 31t-12 45t12 45t32.5 31.5t46.5 11.5t47.5 -11.5t33.5 -31.5t12 -45t-12 -45t-33.5 -31t-47.5 -11t-46.5 11zM550 565.5
q-21 11.5 -33 31t-12 44.5t12 45t33 31.5t47 11.5t47 -11.5t33 -31.5t12 -45t-12 -44.5t-33 -31t-47 -11.5t-47 11.5z" />
    <glyph glyph-name="Germandbls" unicode="&#x1e9e;" horiz-adv-x="789" 
d="M764 226q0 -59 -20 -100q-29 -65 -100.5 -97.5t-186.5 -32.5q-71 0 -125 9v154q43 -8 92 -8q53 0 84.5 12.5t42.5 37.5q7 15 7 38q0 22 -7 37q-12 26 -43 37t-84 11q-35 0 -51 -2v2l103 225h-223v-549h-195v706h676l1 -4l-128 -277q103 -22 138 -102q19 -41 19 -97z" />
    <glyph glyph-name="Ygrave" unicode="&#x1ef2;" horiz-adv-x="724" 
d="M264 308l-274 398h221l151 -226l151 226h221l-274 -398v-308h-196v308zM302 757l-134 153h199l117 -153h-182z" />
    <glyph glyph-name="ygrave" unicode="&#x1ef3;" horiz-adv-x="627" 
d="M632 501l-323 -704h-185l96 206l-225 498h196l126 -318l125 318h190zM259 553l-126 166h190l108 -166h-172z" />
    <glyph glyph-name="uni2009" unicode="&#x2009;" horiz-adv-x="82" 
 />
    <glyph glyph-name="uni2011" unicode="&#x2011;" horiz-adv-x="446" 
d="M48 367h350v-147h-350v147z" />
    <glyph glyph-name="endash" unicode="&#x2013;" horiz-adv-x="632" 
d="M48 365h537v-147h-537v147z" />
    <glyph glyph-name="emdash" unicode="&#x2014;" horiz-adv-x="1260" 
d="M48 365h1164v-147h-1164v147z" />
    <glyph glyph-name="quoteleft" unicode="&#x2018;" horiz-adv-x="301" 
d="M208 416h-186l120 290h137z" />
    <glyph glyph-name="quoteright" unicode="&#x2019;" horiz-adv-x="301" 
d="M92 706h187l-121 -290h-136z" />
    <glyph glyph-name="quotesinglbase" unicode="&#x201a;" horiz-adv-x="301" 
d="M92 146h187l-121 -290h-136z" />
    <glyph glyph-name="quotedblleft" unicode="&#x201c;" horiz-adv-x="543" 
d="M208 416h-186l120 290h137zM450 416h-186l120 290h137z" />
    <glyph glyph-name="quotedblright" unicode="&#x201d;" horiz-adv-x="543" 
d="M334 706h187l-121 -290h-136zM92 706h187l-121 -290h-136z" />
    <glyph glyph-name="quotedblbase" unicode="&#x201e;" horiz-adv-x="543" 
d="M334 146h187l-121 -290h-136zM92 146h187l-121 -290h-136z" />
    <glyph glyph-name="dagger" unicode="&#x2020;" horiz-adv-x="496" 
d="M482 394h-138v-394h-192v394h-139v155h139v157h192v-157h138v-155z" />
    <glyph glyph-name="daggerdbl" unicode="&#x2021;" horiz-adv-x="496" 
d="M344 423v-140h138v-156h-138v-127h-192v127h-139v156h139v140h-139v156h139v127h192v-127h138v-156h-138z" />
    <glyph glyph-name="bullet" unicode="&#x2022;" horiz-adv-x="511" 
d="M172.5 213.5q-36.5 20.5 -57 57.5t-20.5 84q0 48 20 84t56.5 55.5t84.5 19.5q46 0 82.5 -19.5t56.5 -55.5t20 -84q0 -47 -20.5 -84t-56.5 -57.5t-82 -20.5q-47 0 -83.5 20.5z" />
    <glyph glyph-name="ellipsis" unicode="&#x2026;" horiz-adv-x="907" 
d="M400 -7q-24 13 -37 36t-13 53q0 47 28.5 75t75.5 28q30 0 53.5 -12.5t36.5 -36t13 -54.5q0 -30 -13 -53t-36.5 -36t-53.5 -13t-54 13zM677 -7q-24 13 -37 36t-13 53q0 47 28.5 75t75.5 28q30 0 53.5 -12.5t36.5 -36t13 -54.5q0 -30 -13 -53t-36.5 -36t-53.5 -13t-54 13z
M123 -7q-24 13 -37 36t-13 53q0 47 28.5 75t75.5 28q30 0 53.5 -12.5t36.5 -36t13 -54.5q0 -30 -13 -53t-36.5 -36t-53.5 -13t-54 13z" />
    <glyph glyph-name="perthousand" unicode="&#x2030;" horiz-adv-x="1191" 
d="M91.5 425.5q-42.5 20.5 -60.5 61.5q-13 32 -13 74q0 41 13 73q18 41 60.5 61.5t102.5 20.5t102 -20.5t60 -61.5q14 -31 14 -73q0 -43 -14 -74q-18 -41 -60 -61.5t-102 -20.5t-102.5 20.5zM613 706h132l-555 -706h-133zM243 524q4 6 5 15.5t1 21.5q0 25 -6 36
q-10 25 -49 25q-20 0 -32 -6t-18 -19q-5 -12 -5 -36q0 -26 5 -37q13 -25 50 -25q38 0 49 25zM507 11q-42 21 -61 62q-14 29 -14 73q0 42 14 73q18 41 60.5 61.5t102.5 20.5t101.5 -20.5t59.5 -61.5q15 -30 15 -73q0 -44 -15 -73q-18 -41 -59.5 -62t-101.5 -21t-102 21z
M895 11q-42 21 -61 62q-14 29 -14 73q0 42 14 73q18 41 60.5 61.5t102.5 20.5t101.5 -20.5t59.5 -61.5q15 -30 15 -73q0 -44 -15 -73q-18 -41 -59.5 -62t-101.5 -21t-102 21zM640.5 90.5q12.5 6.5 17.5 18.5q6 15 6 37t-6 37q-12 25 -49 25q-39 0 -50 -26q-6 -12 -6 -36
q0 -12 1 -21t5 -16q11 -25 50 -25q19 0 31.5 6.5zM1028.5 90.5q12.5 6.5 17.5 18.5q6 15 6 37t-6 37q-12 25 -49 25q-39 0 -50 -26q-6 -12 -6 -36q0 -12 1 -21t5 -16q11 -25 50 -25q19 0 31.5 6.5z" />
    <glyph glyph-name="guilsinglleft" unicode="&#x2039;" horiz-adv-x="369" 
d="M14 289l163 168h178l-163 -168l163 -168h-178z" />
    <glyph glyph-name="guilsinglright" unicode="&#x203a;" horiz-adv-x="369" 
d="M14 121l163 168l-163 168h178l164 -168l-164 -168h-178z" />
    <glyph glyph-name="fraction" unicode="&#x2044;" horiz-adv-x="226" 
d="M312 706h119l-517 -706h-119z" />
    <glyph glyph-name="zero.superior" unicode="&#x2070;" horiz-adv-x="493" 
d="M119.5 452q-52.5 27 -74.5 77q-20 45 -20 103t20 103q22 50 74.5 77t127.5 27t127 -27t74 -77q20 -45 20 -103t-20 -103q-22 -50 -74 -77t-127 -27t-127.5 27zM287.5 546q15.5 8 23.5 25q4 10 5.5 23.5t1.5 37.5t-1.5 37t-5.5 24q-8 17 -23.5 25t-40.5 8q-48 0 -63 -33
q-5 -11 -7 -24t-2 -37t2 -37.5t7 -23.5q15 -33 63 -33q25 0 40.5 8z" />
    <glyph glyph-name="four.superior" unicode="&#x2074;" horiz-adv-x="481" 
d="M267 504h-277v2l162 320h252v-214h68v-108h-68v-66h-137v66zM267 612v174l-82 -174h82z" />
    <glyph glyph-name="five.superior" unicode="&#x2075;" horiz-adv-x="425" 
d="M97.5 446q-46.5 21 -66.5 65q-13 29 -13 70l135 1q0 -17 6 -32q12 -26 54 -26q37 0 50 22q3 9 3 18q0 12 -4 20q-12 21 -48.5 29t-95.5 8q-33 0 -81 -4l41 209h310l-17 -96h-185l-8 -40q21 4 67 4q57 0 96.5 -18t55.5 -54q11 -24 11 -54q0 -29 -12 -55
q-19 -43 -67.5 -65.5t-116.5 -22.5t-114.5 21z" />
    <glyph glyph-name="six.superior" unicode="&#x2076;" horiz-adv-x="474" 
d="M453 568q0 -28 -11 -53q-20 -44 -71.5 -67t-126.5 -23q-157 0 -203 103q-18 41 -18 98q0 61 19 105q25 54 75.5 81t125.5 27q52 0 94 -13t70 -41q28 -29 38 -73h-137q-4 11 -11 18q-8 8 -21 12t-29 4q-26 0 -44.5 -10.5t-28.5 -30.5q-9 -23 -9 -47v-2q22 17 54 25.5
t70 8.5q56 0 97 -18t57 -54q10 -21 10 -50zM305 564q0 11 -4 19q-6 12 -20.5 18.5t-36.5 6.5q-45 0 -57 -26q-4 -7 -4 -19q0 -11 4 -20q7 -12 22.5 -18t34.5 -6q21 0 35.5 6t21.5 18q4 9 4 21z" />
    <glyph glyph-name="seven.superior" unicode="&#x2077;" horiz-adv-x="398" 
d="M187 712h-178v114h399l-216 -388h-159z" />
    <glyph glyph-name="eight.superior" unicode="&#x2078;" horiz-adv-x="449" 
d="M427 555q0 -26 -9 -47q-19 -41 -71 -62t-123 -21t-122.5 21t-71.5 62q-9 21 -9 47q0 25 9 44q18 41 69 53q-41 12 -55 43q-7 14 -7 34q0 22 8 37q16 36 64.5 54.5t114.5 18.5q67 0 115.5 -18.5t64.5 -54.5q8 -18 8 -37q0 -17 -7 -35q-13 -30 -55 -42q51 -12 69 -53
q8 -17 8 -44zM171 719q0 -9 3 -15q4 -10 17.5 -15.5t32.5 -5.5t32.5 5.5t17.5 16.5q3 5 3 14t-3 15q-4 10 -17 15.5t-33 5.5q-19 0 -32.5 -5.5t-17.5 -16.5q-3 -4 -3 -14zM285 562q0 7 -4 17q-6 12 -21 18.5t-36 6.5q-44 0 -57 -25q-3 -7 -3 -17q0 -8 3 -16
q7 -12 21.5 -18.5t35.5 -6.5q46 0 57 25q4 10 4 16z" />
    <glyph glyph-name="nine.superior" unicode="&#x2079;" horiz-adv-x="474" 
d="M451 638q0 -61 -19 -105q-25 -54 -75.5 -81t-125.5 -27q-52 0 -94 13t-70 41q-28 29 -38 73h137q4 -11 11 -18q8 -8 21 -12t29 -4q26 0 44.5 10.5t28.5 30.5q9 23 9 47v2q-22 -17 -54 -25.5t-70 -8.5q-56 0 -97 18t-57 54q-10 21 -10 50q0 28 11 53q20 44 71.5 67
t126.5 23q157 0 203 -103q18 -40 18 -98zM291 701q0 11 -4 20q-7 12 -22 18t-35 6q-21 0 -35.5 -6t-21.5 -18q-4 -9 -4 -21q0 -11 4 -19q6 -12 20.5 -18.5t36.5 -6.5q45 0 57 26q4 7 4 19z" />
    <glyph glyph-name="uni207A" unicode="&#x207a;" horiz-adv-x="370" 
d="M341 587h-108v-94h-96v94h-108v91h108v94h96v-94h108v-91z" />
    <glyph glyph-name="uni207B" unicode="&#x207b;" horiz-adv-x="370" 
d="M29 678h312v-92h-312v92z" />
    <glyph glyph-name="uni207C" unicode="&#x207c;" horiz-adv-x="367" 
d="M29 732h309v-81h-309v81zM29 614h309v-81h-309v81z" />
    <glyph glyph-name="uni207D" unicode="&#x207d;" horiz-adv-x="255" 
d="M87 445.5q-19 40.5 -29.5 86t-10.5 100.5t10.5 101t29.5 86t50 88h111q-45 -70 -68 -134t-23 -141t23 -140.5t68 -133.5h-111q-31 47 -50 87.5z" />
    <glyph glyph-name="uni207E" unicode="&#x207e;" horiz-adv-x="255" 
d="M7 358q46 69 68.5 133t22.5 141q0 78 -22.5 142t-68.5 133h112q30 -48 49 -88t29.5 -86t10.5 -101t-10.5 -100.5t-29.5 -86t-49 -87.5h-112z" />
    <glyph glyph-name="n.superior" unicode="&#x207f;" horiz-adv-x="471" 
d="M406.5 681q37.5 -37 37.5 -109v-220h-145v191q0 33 -14 49.5t-43 16.5q-33 0 -49.5 -19t-16.5 -55v-183h-145v354h145v-38q50 50 122 50q71 0 108.5 -37z" />
    <glyph glyph-name="zero.inferior" unicode="&#x2080;" horiz-adv-x="493" 
d="M119.5 -106q-52.5 27 -74.5 77q-20 45 -20 103t20 103q22 50 74.5 77t127.5 27t127 -27t74 -77q20 -45 20 -103t-20 -103q-22 -50 -74 -77t-127 -27t-127.5 27zM287.5 -12q15.5 8 23.5 25q4 10 5.5 23.5t1.5 37.5t-1.5 37t-5.5 24q-8 17 -23.5 25t-40.5 8q-48 0 -63 -33
q-5 -11 -7 -24t-2 -37t2 -37.5t7 -23.5q15 -33 63 -33q25 0 40.5 8z" />
    <glyph glyph-name="one.inferior" unicode="&#x2081;" horiz-adv-x="291" 
d="M95 154h-91l21 114h211v-388h-141v274z" />
    <glyph glyph-name="two.inferior" unicode="&#x2082;" horiz-adv-x="429" 
d="M2 -113l207 190q28 26 38.5 40t10.5 29q0 10 -4 15q-9 19 -42 19q-35 0 -48 -25q-5 -10 -5 -27h-141q0 35 13 65q40 88 183 88q66 0 113.5 -19.5t65.5 -59.5q11 -25 11 -52t-12 -48t-35 -41q-28 -25 -85 -66h136v-115h-406v7z" />
    <glyph glyph-name="three.inferior" unicode="&#x2083;" horiz-adv-x="434" 
d="M413 -11q0 -24 -9 -44q-18 -40 -69 -59t-123 -19q-68 0 -116.5 20t-67.5 62q-15 32 -15 78l132 1q2 -23 7 -36q14 -27 54 -27q43 0 54 23q4 10 4 17q0 10 -4 17q-10 21 -61 21h-21v76h23q47 0 56 20q2 6 2 14q0 10 -4 17q-11 17 -47 17q-40 0 -51 -24q-2 -6 -3 -11.5
t-1 -7.5h-131q0 32 10 53q19 42 68.5 63t115.5 21q63 0 111.5 -19t64.5 -56q9 -18 9 -41q0 -16 -7 -34q-16 -34 -64 -50q57 -11 75 -49q8 -19 8 -43z" />
    <glyph glyph-name="four.inferior" unicode="&#x2084;" horiz-adv-x="481" 
d="M267 -54h-277v2l162 320h252v-214h68v-108h-68v-66h-137v66zM267 54v174l-82 -174h82z" />
    <glyph glyph-name="five.inferior" unicode="&#x2085;" horiz-adv-x="425" 
d="M97.5 -112q-46.5 21 -66.5 65q-13 29 -13 70l135 1q0 -17 6 -32q12 -26 54 -26q37 0 50 22q3 9 3 18q0 12 -4 20q-12 21 -48.5 29t-95.5 8q-33 0 -81 -4l41 209h310l-17 -96h-185l-8 -40q21 4 67 4q57 0 96.5 -18t55.5 -54q11 -24 11 -54q0 -29 -12 -55
q-19 -43 -67.5 -65.5t-116.5 -22.5t-114.5 21z" />
    <glyph glyph-name="six.inferior" unicode="&#x2086;" horiz-adv-x="474" 
d="M453 10q0 -28 -11 -53q-20 -44 -71.5 -67t-126.5 -23q-157 0 -203 103q-18 41 -18 98q0 61 19 105q25 54 75.5 81t125.5 27q52 0 94 -13t70 -41q28 -29 38 -73h-137q-4 11 -11 18q-8 8 -21 12t-29 4q-26 0 -44.5 -10.5t-28.5 -30.5q-9 -23 -9 -47v-2q22 17 54 25.5
t70 8.5q56 0 97 -18t57 -54q10 -21 10 -50zM305 6q0 11 -4 19q-6 12 -20.5 18.5t-36.5 6.5q-45 0 -57 -26q-4 -7 -4 -19q0 -11 4 -20q7 -12 22.5 -18t34.5 -6q21 0 35.5 6t21.5 18q4 9 4 21z" />
    <glyph glyph-name="seven.inferior" unicode="&#x2087;" horiz-adv-x="398" 
d="M187 154h-178v114h399l-216 -388h-159z" />
    <glyph glyph-name="eight.inferior" unicode="&#x2088;" horiz-adv-x="449" 
d="M427 -3q0 -26 -9 -47q-19 -41 -71 -62t-123 -21t-122.5 21t-71.5 62q-9 21 -9 47q0 25 9 44q18 41 69 53q-41 12 -55 43q-7 14 -7 34q0 22 8 37q16 36 64.5 54.5t114.5 18.5q67 0 115.5 -18.5t64.5 -54.5q8 -18 8 -37q0 -17 -7 -35q-13 -30 -55 -42q51 -12 69 -53
q8 -17 8 -44zM171 161q0 -9 3 -15q4 -10 17.5 -15.5t32.5 -5.5t32.5 5.5t17.5 16.5q3 5 3 14t-3 15q-4 10 -17 15.5t-33 5.5q-19 0 -32.5 -5.5t-17.5 -16.5q-3 -4 -3 -14zM285 4q0 7 -4 17q-6 12 -21 18.5t-36 6.5q-44 0 -57 -25q-3 -7 -3 -17q0 -8 3 -16q7 -12 21.5 -18.5
t35.5 -6.5q46 0 57 25q4 10 4 16z" />
    <glyph glyph-name="nine.inferior" unicode="&#x2089;" horiz-adv-x="474" 
d="M451 80q0 -61 -19 -105q-25 -54 -75.5 -81t-125.5 -27q-52 0 -94 13t-70 41q-28 29 -38 73h137q4 -11 11 -18q8 -8 21 -12t29 -4q26 0 44.5 10.5t28.5 30.5q9 23 9 47v2q-22 -17 -54 -25.5t-70 -8.5q-56 0 -97 18t-57 54q-10 21 -10 50q0 28 11 53q20 44 71.5 67
t126.5 23q157 0 203 -103q18 -40 18 -98zM291 143q0 11 -4 20q-7 12 -22 18t-35 6q-21 0 -35.5 -6t-21.5 -18q-4 -9 -4 -21q0 -11 4 -19q6 -12 20.5 -18.5t36.5 -6.5q45 0 57 26q4 7 4 19z" />
    <glyph glyph-name="uni208A" unicode="&#x208a;" horiz-adv-x="370" 
d="M341 29h-108v-94h-96v94h-108v91h108v94h96v-94h108v-91z" />
    <glyph glyph-name="uni208B" unicode="&#x208b;" horiz-adv-x="370" 
d="M29 120h312v-92h-312v92z" />
    <glyph glyph-name="uni208C" unicode="&#x208c;" horiz-adv-x="367" 
d="M29 174h309v-81h-309v81zM29 56h309v-81h-309v81z" />
    <glyph glyph-name="uni208D" unicode="&#x208d;" horiz-adv-x="255" 
d="M87 -112.5q-19 40.5 -29.5 86t-10.5 100.5t10.5 101t29.5 86t50 88h111q-45 -70 -68 -134t-23 -141t23 -140.5t68 -133.5h-111q-31 47 -50 87.5z" />
    <glyph glyph-name="uni208E" unicode="&#x208e;" horiz-adv-x="255" 
d="M7 -200q46 69 68.5 133t22.5 141q0 78 -22.5 142t-68.5 133h112q30 -48 49 -88t29.5 -86t10.5 -101t-10.5 -100.5t-29.5 -86t-49 -87.5h-112z" />
    <glyph glyph-name="uni2099" unicode="&#x2099;" horiz-adv-x="471" 
d="M406.5 146q37.5 -37 37.5 -109v-220h-145v191q0 33 -14 49.5t-43 16.5q-33 0 -49.5 -19t-16.5 -55v-183h-145v354h145v-38q50 50 122 50q71 0 108.5 -37z" />
    <glyph glyph-name="Euro" unicode="&#x20ac;" horiz-adv-x="905" 
d="M879 280q-2 -61 -25.5 -112t-65.5 -90q-53 -48 -131 -73.5t-169 -25.5q-137 0 -234.5 51.5t-141.5 150.5q-15 34 -24 74h-65v82h56v16q0 16 1 24h-57v82h67q10 38 22 65q44 98 142.5 150.5t234.5 52.5q90 0 166 -25t128 -73q44 -39 68 -92t27 -115h-208q-4 29 -16 54
t-32 42q-48 44 -136 44q-65 0 -110 -24.5t-66 -71.5l-3 -7h238v-82h-254q-1 -8 -1 -24v-16h255v-82h-243l6 -15q22 -48 68 -72t110 -24q44 0 80.5 11.5t61.5 34.5q19 18 30.5 41t12.5 49h208z" />
    <glyph glyph-name="uni20B9" unicode="&#x20b9;" horiz-adv-x="732" 
d="M720 619h-158q20 -20 32 -47q13 -30 17 -66h109v-87h-109q-4 -40 -18 -70q-21 -49 -65.5 -76t-111.5 -35l225 -238h-240l-319 343h206q50 0 78.5 12.5t41.5 40.5q6 14 8 23h-370v87h369q-3 12 -7 19q-12 28 -41 40.5t-77 12.5h-244v128h674v-87z" />
    <glyph glyph-name="uni20BA" unicode="&#x20ba;" horiz-adv-x="713" 
d="M699 325q-2 -106 -32 -177q-34 -73 -105 -110.5t-185 -37.5h-264v253l-90 -35v91l90 35v45l-90 -35v91l90 35v226h195v-159l218 85v-91l-218 -85v-46l218 85v-91l-218 -85v-162h40q109 0 143 75q17 37 17 93h191z" />
    <glyph glyph-name="uni20BC" unicode="&#x20bc;" horiz-adv-x="989" 
d="M918 419q13 -53 13 -123v-296h-196v304q0 39 -6.5 68.5t-20.5 51.5q-35 55 -115 55v-479h-197v479q-79 0 -115 -55q-15 -22 -21 -51.5t-6 -68.5v-304h-196v296q0 75 15 129.5t48 93.5q40 54 107.5 80.5t167.5 26.5v80h197v-80q104 0 174 -29t109 -87q29 -38 42 -91z" />
    <glyph glyph-name="uni2113" unicode="&#x2113;" horiz-adv-x="563" 
d="M294.5 146.5q26.5 -14.5 74.5 -14.5q58 0 119 23v-139q-35 -13 -76.5 -20t-82.5 -7q-232 0 -259 188q-18 -1 -56 -1v123q36 0 52 1v139q0 98 24 158.5t75.5 89t134.5 28.5t135 -24.5t75.5 -73t23.5 -124.5q0 -83 -28 -142.5t-89 -98t-159 -57.5q10 -34 36.5 -48.5z
M250 324q39 13 60.5 35t30.5 54.5t9 79.5q0 39 -6 61t-17 30.5t-28 8.5q-18 0 -28.5 -9t-15.5 -30t-5 -58v-172z" />
    <glyph glyph-name="uni2117" unicode="&#x2117;" horiz-adv-x="884" 
d="M276 3.5q-76 24.5 -130 70.5t-83 109q-17 37 -26 80.5t-9 89.5q0 88 35 166q29 65 84 112t130.5 71.5t166.5 24.5q89 0 163.5 -23.5t129.5 -69.5t85 -111q34 -76 34 -170q0 -91 -34 -169q-28 -63 -84 -109t-132 -71t-162 -25q-92 0 -168 24.5zM631 96.5
q77 43.5 113 123.5q26 56 26 132q0 78 -27 137q-35 79 -112.5 121.5t-187.5 42.5q-111 0 -189.5 -43t-113.5 -123q-26 -56 -26 -134q0 -79 26 -135q36 -79 113 -122t189 -43t189 43.5zM262 576h233q60 0 99.5 -20.5t56.5 -59.5q13 -30 13 -75t-13 -75q-17 -39 -56.5 -59.5
t-99.5 -20.5h-88v-135h-145v445zM461 370q41 0 51 25q5 9 5 26t-5 26q-10 25 -51 25h-54v-102h54z" />
    <glyph glyph-name="trademark" unicode="&#x2122;" horiz-adv-x="793" 
d="M85 614h-80v92h276v-92h-80v-218h-116v218zM309 706h131l94 -172l95 172h129v-310h-107v166l-91 -166h-52l-91 166v-166h-108v310z" />
    <glyph glyph-name="Omega" unicode="&#x2126;" horiz-adv-x="791" 
d="M679 240q-39 -34 -94 -53v-45h154v-142h-300v299q41 7 69 26.5t42 49.5q13 29 13 67t-12 63q-17 38 -56.5 58t-98.5 20q-60 0 -99.5 -20t-56.5 -58q-12 -25 -12 -63t13 -67q14 -30 42.5 -49.5t68.5 -26.5v-299h-300v142h154v45q-55 19 -94 53t-60 81q-24 53 -24 121
q0 67 24 121q36 81 125.5 122.5t218.5 41.5t218 -41.5t125 -122.5q24 -51 24 -121q0 -68 -24 -121q-21 -47 -60 -81z" />
    <glyph glyph-name="estimated" unicode="&#x212e;" horiz-adv-x="834" 
d="M230 32.5q-87 43.5 -139.5 121.5t-52.5 176q0 96 51 174t138 122.5t190 44.5q102 0 188.5 -45t138 -124.5t51.5 -177.5h-608q-6 0 -8 -2.5t-2 -8.5v-197q47 -51 110 -78.5t130 -27.5q73 0 139 32.5t113 88.5h57q-56 -68 -138 -105t-171 -37q-100 0 -187 43.5zM648 347
q5 0 7 2.5t2 8.5v184q-44 51 -108 79.5t-132 28.5q-70 0 -133 -28.5t-107 -78.5v-185q0 -6 2 -8.5t8 -2.5h461z" />
    <glyph glyph-name="partialdiff" unicode="&#x2202;" horiz-adv-x="740" 
d="M709 366q0 -118 -38 -202q-40 -91 -124.5 -138t-206.5 -47q-106 0 -183 38.5t-109 111.5q-22 49 -22 106q0 55 20 100q28 62 94.5 94.5t159.5 32.5q69 0 124 -18.5t90 -54.5v1q0 70 -20 116q-18 39 -50 60t-78 21q-28 0 -51.5 -8.5t-40.5 -25.5q-19 -21 -26 -45h-194
q13 77 67 131q43 43 107 65.5t140 22.5q114 0 191 -44.5t114 -127.5q36 -79 36 -189zM488 228q0 28 -9 46q-13 29 -44.5 44.5t-76.5 15.5q-43 0 -74 -16t-44 -44q-9 -19 -9 -45q0 -24 10 -47q13 -28 43 -43.5t74 -15.5q45 0 77 16t45 45q8 17 8 44z" />
    <glyph glyph-name="Delta" unicode="&#x2206;" horiz-adv-x="833" 
d="M843 0h-853l286 706h281zM581 143l-163 426h-2l-163 -426h328z" />
    <glyph glyph-name="product" unicode="&#x220f;" horiz-adv-x="833" 
d="M58 706h718v-909h-198v744h-322v-744h-198v909z" />
    <glyph glyph-name="summation" unicode="&#x2211;" horiz-adv-x="681" 
d="M314 279l-297 427h636v-156h-301l189 -271l-204 -325h342v-157h-671z" />
    <glyph glyph-name="minus" unicode="&#x2212;" horiz-adv-x="613" 
d="M48 362h517v-136h-517v136z" />
    <glyph glyph-name="uni2215" unicode="&#x2215;" horiz-adv-x="613" 
d="M401 706h153l-342 -706h-153z" />
    <glyph glyph-name="uni2219" unicode="&#x2219;" horiz-adv-x="613" 
d="M252 195q-27 15 -42 41.5t-15 61.5q0 36 15 62.5t42 41t62 14.5t62 -14.5t42 -41t15 -62.5q0 -35 -15 -61.5t-42 -41.5t-62 -15t-62 15z" />
    <glyph glyph-name="radical" unicode="&#x221a;" horiz-adv-x="783" 
d="M793 706l-277 -918h-222l-162 419l-122 -33v171l238 57l152 -414l202 718h191z" />
    <glyph glyph-name="infinity" unicode="&#x221e;" horiz-adv-x="907" 
d="M888 249q0 -57 -21 -102q-26 -56 -77.5 -87.5t-124.5 -31.5q-69 0 -119.5 29t-92.5 79q-42 -50 -92 -79t-119 -29q-73 0 -125 32t-77 87q-21 45 -21 102t21 102q25 56 77 88t125 32q66 0 117.5 -28.5t93.5 -79.5q42 50 92.5 79t119.5 29q73 0 124.5 -32t77.5 -88
q21 -45 21 -102zM312.5 192.5q24.5 18.5 52.5 56.5q-30 39 -53.5 57t-55.5 18q-24 0 -40.5 -10.5t-24.5 -28.5q-7 -14 -7 -36t7 -35q8 -18 25 -29t40 -11q32 0 56.5 18.5zM723 249q0 22 -7 36q-8 19 -25 29t-41 10q-32 0 -57.5 -19.5t-50.5 -55.5q28 -38 52.5 -56.5
t55.5 -18.5q23 0 40.5 10.5t25.5 29.5q7 13 7 35z" />
    <glyph glyph-name="integral" unicode="&#x222b;" horiz-adv-x="523" 
d="M0 -203l34 148q22 -3 36 -3q30 0 45.5 14t20.5 44l79 518q12 71 41 114t75 62t112 19q34 0 80 -7l-34 -152q-17 3 -28 3q-24 0 -38.5 -13t-19.5 -44l-79 -516q-12 -72 -41 -114t-75 -60.5t-112 -18.5q-49 0 -96 6z" />
    <glyph glyph-name="approxequal" unicode="&#x2248;" horiz-adv-x="613" 
d="M352.5 320q-25.5 9 -55.5 24q-24 12 -38.5 17.5t-30.5 5.5q-22 0 -34 -13t-14 -41h-115q4 92 37.5 135.5t98.5 43.5q32 0 56 -8t57 -24q23 -12 38 -18t31 -6q44 0 47 55h115q-3 -92 -37 -136t-98 -44q-32 0 -57.5 9zM351 104q-27 9 -54 24q-24 12 -38.5 17.5t-30.5 5.5
q-22 0 -34 -13.5t-14 -41.5h-115q4 93 37.5 136.5t98.5 43.5q32 0 56 -8t57 -24q4 -2 18.5 -9.5t27 -11t23.5 -3.5q44 0 47 55h115q-3 -92 -37 -136t-98 -44q-32 0 -59 9z" />
    <glyph glyph-name="notequal" unicode="&#x2260;" horiz-adv-x="613" 
d="M383 333l-50 -78h232v-136h-308l-63 -100h-96l64 100h-114v136h190l50 78h-240v136h317l63 99h95l-63 -99h105v-136h-182z" />
    <glyph glyph-name="lessequal" unicode="&#x2264;" horiz-adv-x="613" 
d="M560 426l-409 -55l409 -55v-133l-517 93v190l517 94v-134zM43 158h517v-131h-517v131z" />
    <glyph glyph-name="greaterequal" unicode="&#x2265;" horiz-adv-x="613" 
d="M565 466v-190l-517 -93v133l409 55l-409 55v134zM48 158h517v-131h-517v131z" />
    <glyph glyph-name="lozenge" unicode="&#x25ca;" horiz-adv-x="681" 
d="M19 252l221 454h201l221 -454l-221 -455h-201zM469 252l-129 284l-128 -284l128 -285z" />
    <glyph glyph-name="ff" unicode="&#xfb00;" horiz-adv-x="859" 
d="M89 362h-76v139h76v33q0 66 23.5 108.5t74 63t130.5 20.5q26 0 52 -3t44 -8v-140q-27 10 -61 10q-37 0 -58 -16t-21 -47v-21h139v-139h-139v-362h-184v362zM522 362h-76v139h76v33q0 66 23.5 108.5t74 63t130.5 20.5q26 0 52 -3t44 -8v-140q-27 10 -61 10q-37 0 -58 -16
t-21 -47v-21h139v-139h-139v-362h-184v362z" />
    <glyph glyph-name="fi" unicode="&#xfb01;" horiz-adv-x="706" 
d="M89 362h-76v139h76v33q0 66 23.5 108.5t74 63t130.5 20.5q26 0 52 -3t44 -8v-140q-27 10 -61 10q-37 0 -58 -16t-21 -47v-21h139v-139h-139v-362h-184v362zM518 566q-22 11 -34 31.5t-12 46.5t12.5 46.5t34 32t48.5 11.5t48.5 -11.5t34 -32t12.5 -46.5t-12.5 -46.5
t-34 -31.5t-48.5 -11t-49 11zM474 501h184v-501h-184v501z" />
    <glyph glyph-name="fl" unicode="&#xfb02;" horiz-adv-x="706" 
d="M89 362h-76v139h76v33q0 66 23.5 108.5t74 63t130.5 20.5q26 0 52 -3t44 -8v-140q-27 10 -61 10q-37 0 -58 -16t-21 -47v-21h139v-139h-139v-362h-184v362zM474 706h184v-706h-184v706z" />
    <glyph glyph-name="ffi" unicode="&#xfb03;" horiz-adv-x="1139" 
d="M89 362h-76v139h76v33q0 66 23.5 108.5t74 63t130.5 20.5q26 0 52 -3t44 -8v-140q-27 10 -61 10q-37 0 -58 -16t-21 -47v-21h139v-139h-139v-362h-184v362zM522 362h-76v139h76v33q0 66 23.5 108.5t74 63t130.5 20.5q26 0 52 -3t44 -8v-140q-27 10 -61 10q-37 0 -58 -16
t-21 -47v-21h139v-139h-139v-362h-184v362zM951 566q-22 11 -34 31.5t-12 46.5t12.5 46.5t34 32t48.5 11.5t48.5 -11.5t34 -32t12.5 -46.5t-12.5 -46.5t-34 -31.5t-48.5 -11t-49 11zM907 501h184v-501h-184v501z" />
    <glyph glyph-name="ffl" unicode="&#xfb04;" horiz-adv-x="1139" 
d="M89 362h-76v139h76v33q0 66 23.5 108.5t74 63t130.5 20.5q26 0 52 -3t44 -8v-140q-27 10 -61 10q-37 0 -58 -16t-21 -47v-21h139v-139h-139v-362h-184v362zM522 362h-76v139h76v33q0 66 23.5 108.5t74 63t130.5 20.5q26 0 52 -3t44 -8v-140q-27 10 -61 10q-37 0 -58 -16
t-21 -47v-21h139v-139h-139v-362h-184v362zM907 706h184v-706h-184v706z" />
    <glyph glyph-name="uniFEFF" unicode="&#xfeff;" 
 />
    <glyph glyph-name="uni00A40301" horiz-adv-x="392" 
d="M9 0v165q20 -3 43 -3q38 0 59.5 10.5t31 34.5t9.5 67v432h196v-461q0 -87 -26 -142.5t-81.5 -82.5t-145.5 -27q-40 0 -86 7zM249 910h199l-134 -153h-182z" />
    <glyph glyph-name="M.ss01" horiz-adv-x="937" 
d="M58 706h218l193 -271l192 271h219v-706h-185v483l-184 -260h-85l-184 260v-483h-184v706z" />
    <glyph glyph-name="Q.ss02" horiz-adv-x="875" 
d="M675 32l84 -133l-171 -88l-98 170q-34 -2 -53 -2q-135 0 -230 48.5t-139 141.5q-40 78 -40 184q0 95 34 172q43 98 140.5 150t235.5 52q137 0 233.5 -51t139.5 -147q35 -80 35 -176q0 -99 -36 -180q-43 -90 -135 -141zM326 170q46 -25 112 -25q67 0 112.5 25.5t66.5 73.5
q10 22 14.5 48t4.5 61q0 36 -5 63t-15 49q-22 48 -67 72t-112 24q-66 0 -111.5 -25t-67.5 -72q-10 -22 -14.5 -48.5t-4.5 -62.5q0 -34 5 -60.5t15 -49.5q21 -48 67 -73z" />
    <glyph glyph-name="R.ss03" horiz-adv-x="724" 
d="M648 273q21 -40 21 -108v-165h-197v155q0 53 -26 78.5t-88 25.5h-104v-259h-196v706h359q97 0 158 -29t87 -88q18 -39 18 -93q0 -25 -4 -44.5t-12 -36.5q-25 -57 -91 -84q54 -18 75 -58zM369 392q44 0 69 12t36 37q8 16 8 45q0 12 -2 21t-6 18q-10 23 -37 35t-68 12h-115
v-180h115z" />
    <glyph glyph-name="Racute.ss03" horiz-adv-x="724" 
d="M648 273q21 -40 21 -108v-165h-197v155q0 53 -26 78.5t-88 25.5h-104v-259h-196v706h359q97 0 158 -29t87 -88q18 -39 18 -93q0 -25 -4 -44.5t-12 -36.5q-25 -57 -91 -84q54 -18 75 -58zM369 392q44 0 69 12t36 37q8 16 8 45q0 12 -2 21t-6 18q-10 23 -37 35t-68 12h-115
v-180h115zM362 910h199l-134 -153h-182z" />
    <glyph glyph-name="Rcaron.ss03" horiz-adv-x="724" 
d="M648 273q21 -40 21 -108v-165h-197v155q0 53 -26 78.5t-88 25.5h-104v-259h-196v706h359q97 0 158 -29t87 -88q18 -39 18 -93q0 -25 -4 -44.5t-12 -36.5q-25 -57 -91 -84q54 -18 75 -58zM369 392q44 0 69 12t36 37q8 16 8 45q0 12 -2 21t-6 18q-10 23 -37 35t-68 12h-115
v-180h115zM478 757h-225l-128 153h175l66 -76l65 76h175z" />
    <glyph glyph-name="uni0156.ss03" horiz-adv-x="724" 
d="M648 273q21 -40 21 -108v-165h-197v155q0 53 -26 78.5t-88 25.5h-104v-259h-196v706h359q97 0 158 -29t87 -88q18 -39 18 -93q0 -25 -4 -44.5t-12 -36.5q-25 -57 -91 -84q54 -18 75 -58zM369 392q44 0 69 12t36 37q8 16 8 45q0 12 -2 21t-6 18q-10 23 -37 35t-68 12h-115
v-180h115zM272 -54h189l-55 -149h-165z" />
    <glyph glyph-name="Oslash.ss04" horiz-adv-x="875" 
d="M811 529q35 -80 35 -176q0 -99 -36 -180q-45 -94 -141 -144t-232 -50q-120 0 -209 39l-92 -109l-129 110l91 101q-18 23 -30 49q-40 78 -40 184q0 95 34 172q43 98 140.5 150t235.5 52q119 0 207 -38l94 108l129 -111l-91 -99q20 -26 34 -58zM631.5 292q4.5 26 4.5 61
q0 36 -5 63t-15 49q-22 48 -67 72t-112 24q-66 0 -111.5 -25t-67.5 -72q-10 -22 -14.5 -48.5t-4.5 -62.5q0 -34 5 -60.5t15 -49.5q21 -48 67 -73t112 -25q67 0 112.5 25.5t66.5 73.5q10 22 14.5 48z" />
    <glyph glyph-name="i.loclTRK" horiz-adv-x="280" 
d="M48 501h184v-501h-184v501zM92 566q-22 11 -34 31.5t-12 46.5t12.5 46.5t34 32t48.5 11.5t48.5 -11.5t34 -32t12.5 -46.5t-12 -46.5t-34 -31.5t-49 -11t-49 11z" />
    <glyph glyph-name="uni006A0301" horiz-adv-x="284" 
d="M-43 -209v150q21 -3 39 -3q29 0 42.5 14t13.5 43v506h184v-521q0 -68 -20.5 -110.5t-64.5 -63t-115 -20.5q-37 0 -79 5zM125 719h189l-111 -166h-169z" />
    <glyph glyph-name="oslash.ss04" horiz-adv-x="678" 
d="M659 251q0 -63 -23 -115q-33 -74 -110 -113t-187 -39q-64 0 -118 14l-72 -95l-124 90l64 77q-30 30 -48 70q-22 48 -22 111t22 111q33 76 110.5 116t187.5 40q64 0 120 -14l69 94l125 -90l-63 -76q29 -29 46 -67q23 -52 23 -114zM465 251q0 44 -11 67q-13 30 -42.5 45.5
t-72.5 15.5q-42 0 -71.5 -16t-43.5 -45q-11 -25 -11 -67q0 -44 11 -67q13 -30 42.5 -45.5t72.5 -15.5t72.5 15t42.5 45q11 25 11 68z" />
    <glyph glyph-name="r.ss05" horiz-adv-x="449" 
d="M438 502v-151q-22 7 -63 7q-72 0 -107.5 -40.5t-35.5 -118.5v-199h-184v501h182v-68q23 36 60.5 56.5t90.5 20.5q30 0 57 -8z" />
    <glyph glyph-name="racute.ss05" horiz-adv-x="451" 
d="M438 502v-151q-22 7 -63 7q-72 0 -107.5 -40.5t-35.5 -118.5v-199h-184v501h182v-68q23 36 60.5 56.5t90.5 20.5q30 0 57 -8zM219 719h189l-111 -166h-169z" />
    <glyph glyph-name="rcaron.ss05" horiz-adv-x="451" 
d="M438 502v-151q-22 7 -63 7q-72 0 -107.5 -40.5t-35.5 -118.5v-199h-184v501h182v-68q23 36 60.5 56.5t90.5 20.5q30 0 57 -8zM195 719l40 -85l41 85h135l-86 -166h-179l-87 166h136z" />
    <glyph glyph-name="uni0157.ss05" horiz-adv-x="451" 
d="M438 502v-151q-22 7 -63 7q-72 0 -107.5 -40.5t-35.5 -118.5v-199h-184v501h182v-68q23 36 60.5 56.5t90.5 20.5q30 0 57 -8zM44 -54h189l-55 -149h-165z" />
    <glyph glyph-name="f_i" horiz-adv-x="706" 
d="M89 362h-76v139h76v33q0 66 23.5 108.5t74 63t130.5 20.5q26 0 52 -3t44 -8v-140q-27 10 -61 10q-37 0 -58 -16t-21 -47v-21h139v-139h-139v-362h-184v362zM518 566q-22 11 -34 31.5t-12 46.5t12.5 46.5t34 32t48.5 11.5t48.5 -11.5t34 -32t12.5 -46.5t-12.5 -46.5
t-34 -31.5t-48.5 -11t-49 11zM474 501h184v-501h-184v501z" />
    <glyph glyph-name="f_l" horiz-adv-x="706" 
d="M89 362h-76v139h76v33q0 66 23.5 108.5t74 63t130.5 20.5q26 0 52 -3t44 -8v-140q-27 10 -61 10q-37 0 -58 -16t-21 -47v-21h139v-139h-139v-362h-184v362zM474 706h184v-706h-184v706z" />
    <glyph glyph-name="zero.tf" horiz-adv-x="718" 
d="M177.5 23q-75.5 44 -113.5 128q-36 82 -36 202t36 202q38 84 113.5 128t181.5 44t181.5 -44t112.5 -128q37 -81 37 -202t-37 -202q-37 -84 -112.5 -128t-181.5 -44t-181.5 44zM466 199q11 25 15.5 62t4.5 92t-4.5 92t-15.5 62q-30 64 -107 64t-107 -64q-11 -25 -15.5 -62
t-4.5 -92t4.5 -92t15.5 -62q30 -64 107 -64t107 64z" />
    <glyph glyph-name="one.tf" horiz-adv-x="718" 
d="M299 543h-162l36 163h316v-706h-190v543z" />
    <glyph glyph-name="two.tf" horiz-adv-x="718" 
d="M24 2l327 343q37 38 57 62.5t29.5 45t9.5 41.5t-7 35q-10 24 -35 36t-59 12q-39 0 -65.5 -15t-39.5 -43q-12 -27 -12 -69h-193q0 73 24 127q34 76 107 113t181 37q104 0 177.5 -33.5t105.5 -103.5q18 -43 18 -94q0 -54 -22 -95t-70 -88q-44 -43 -83.5 -79t-87.5 -75h274
v-159h-636v2z" />
    <glyph glyph-name="three.tf" horiz-adv-x="718" 
d="M672 198q0 -46 -17 -85q-61 -134 -296 -134q-237 0 -299 142q-13 31 -19.5 66t-6.5 78h191q0 -48 15 -81q26 -60 113 -60q39 0 67.5 13.5t40.5 40.5q8 16 8 41q0 22 -8 40q-24 51 -130 51h-34v121h36q98 0 119 48q7 13 7 30q0 21 -7 36q-21 47 -101 47q-40 0 -68 -13
t-40 -40q-9 -19 -9 -43h-188q0 50 18 90q31 69 107.5 105t187.5 36q105 0 178 -32.5t101 -94.5q15 -33 15 -76q0 -35 -12 -65q-29 -64 -116 -89q99 -20 132 -93q15 -31 15 -79z" />
    <glyph glyph-name="four.tf" horiz-adv-x="718" 
d="M700 143h-100v-143h-186v143h-417v2l266 561h337v-410h100v-153zM414 296v352h-1l-161 -352h162z" />
    <glyph glyph-name="five.tf" horiz-adv-x="718" 
d="M72 121q-25 56 -25 139h193q0 -52 14 -81q24 -56 102 -56t103 56q10 20 10 48q0 25 -10 48q-19 42 -74.5 59.5t-146.5 17.5q-45 0 -87.5 -3.5t-73.5 -8.5l67 366h496l-34 -151h-313l-20 -98q57 12 118 12q93 0 161 -32t97 -95q22 -48 22 -108t-22 -109
q-32 -71 -106 -108.5t-185 -37.5q-223 0 -286 142z" />
    <glyph glyph-name="six.tf" horiz-adv-x="718" 
d="M696 237q0 -57 -22 -104q-22 -49 -65 -83.5t-101.5 -52.5t-125.5 -18q-240 0 -317 171q-35 77 -35 196q0 122 38 205q38 85 116 130.5t191 45.5q73 0 134.5 -21.5t103.5 -63.5q54 -54 67 -134h-190q-7 25 -26 44q-16 17 -40 25.5t-52 8.5q-47 0 -80 -21.5t-51 -60.5
q-20 -44 -20 -112q35 36 89 55t119 19q90 0 154 -31.5t93 -94.5q20 -47 20 -103zM494 232q0 26 -9 48q-13 28 -42.5 42.5t-70.5 14.5q-43 0 -73 -15t-43 -45q-9 -21 -9 -46q0 -27 9 -47q13 -29 43.5 -44.5t71.5 -15.5t71 15.5t43 43.5q9 20 9 49z" />
    <glyph glyph-name="seven.tf" horiz-adv-x="718" 
d="M412 543h-360v163h654l-353 -706h-222z" />
    <glyph glyph-name="eight.tf" horiz-adv-x="718" 
d="M688 206q0 -44 -17 -83q-31 -69 -109.5 -106.5t-202.5 -37.5q-125 0 -203.5 37.5t-108.5 106.5q-17 35 -17 83q0 47 17 81q17 38 50.5 64t79.5 36q-38 10 -66 31t-41 49q-14 28 -14 66q0 36 14 67q27 62 102.5 94.5t186.5 32.5q109 0 184.5 -32t104.5 -94q13 -32 13 -68
q0 -38 -13 -67t-40 -49t-65 -30q93 -21 128 -99q17 -37 17 -82zM247 519q0 -19 7 -33q11 -25 39 -37.5t67 -12.5q38 0 65.5 12t38.5 37q7 14 7 34q0 19 -7 34q-11 24 -38.5 37t-66.5 13q-38 0 -66 -12.5t-39 -36.5q-7 -15 -7 -35zM485 216q0 21 -8 37q-12 28 -43.5 42.5
t-75.5 14.5q-43 0 -73.5 -14t-43.5 -41q-8 -21 -8 -40q0 -22 8 -38q12 -28 44 -42.5t75 -14.5q41 0 72.5 14t44.5 42q8 18 8 40z" />
    <glyph glyph-name="nine.tf" horiz-adv-x="718" 
d="M688 360q0 -122 -38 -205q-38 -85 -116 -130.5t-191 -45.5q-73 0 -134.5 21.5t-103.5 63.5q-54 54 -67 134h190q7 -25 26 -44q16 -17 40 -25.5t52 -8.5q47 0 80 21.5t51 60.5q20 44 20 112q-35 -36 -89 -55t-119 -19q-90 0 -154 31.5t-93 94.5q-20 47 -20 103
q0 57 22 104q22 49 65 83.5t101.5 52.5t125.5 18q240 0 317 -171q35 -77 35 -196zM471 475q0 28 -9 47q-13 29 -43.5 44.5t-71.5 15.5t-71 -15.5t-43 -43.5q-9 -19 -9 -49q0 -25 9 -48q13 -28 42.5 -42.5t70.5 -14.5q43 0 73 15t43 45q9 21 9 46z" />
    <glyph glyph-name="zero.dnom" horiz-adv-x="493" 
d="M119.5 14q-52.5 27 -74.5 77q-20 45 -20 103t20 103q22 50 74.5 77t127.5 27t127 -27t74 -77q20 -45 20 -103t-20 -103q-22 -50 -74 -77t-127 -27t-127.5 27zM287.5 108q15.5 8 23.5 25q4 10 5.5 23.5t1.5 37.5t-1.5 37t-5.5 24q-8 17 -23.5 25t-40.5 8q-48 0 -63 -33
q-5 -11 -7 -24t-2 -37t2 -37.5t7 -23.5q15 -33 63 -33q25 0 40.5 8z" />
    <glyph glyph-name="one.dnom" horiz-adv-x="291" 
d="M95 274h-91l21 114h211v-388h-141v274z" />
    <glyph glyph-name="two.dnom" horiz-adv-x="429" 
d="M2 7l207 190q28 26 38.5 40t10.5 29q0 10 -4 15q-9 19 -42 19q-35 0 -48 -25q-5 -10 -5 -27h-141q0 35 13 65q40 88 183 88q66 0 113.5 -19.5t65.5 -59.5q11 -25 11 -52t-12 -48t-35 -41q-28 -25 -85 -66h136v-115h-406v7z" />
    <glyph glyph-name="three.dnom" horiz-adv-x="434" 
d="M413 109q0 -24 -9 -44q-18 -40 -69 -59t-123 -19q-68 0 -116.5 20t-67.5 62q-15 32 -15 78l132 1q2 -23 7 -36q14 -27 54 -27q43 0 54 23q4 10 4 17q0 10 -4 17q-10 21 -61 21h-21v76h23q47 0 56 20q2 6 2 14q0 10 -4 17q-11 17 -47 17q-40 0 -51 -24q-2 -6 -3 -11.5
t-1 -7.5h-131q0 32 10 53q19 42 68.5 63t115.5 21q63 0 111.5 -19t64.5 -56q9 -18 9 -41q0 -16 -7 -34q-16 -34 -64 -50q57 -11 75 -49q8 -19 8 -43z" />
    <glyph glyph-name="four.dnom" horiz-adv-x="481" 
d="M267 66h-277v2l162 320h252v-214h68v-108h-68v-66h-137v66zM267 174v174l-82 -174h82z" />
    <glyph glyph-name="five.dnom" horiz-adv-x="425" 
d="M97.5 8q-46.5 21 -66.5 65q-13 29 -13 70l135 1q0 -17 6 -32q12 -26 54 -26q37 0 50 22q3 9 3 18q0 12 -4 20q-12 21 -48.5 29t-95.5 8q-33 0 -81 -4l41 209h310l-17 -96h-185l-8 -40q21 4 67 4q57 0 96.5 -18t55.5 -54q11 -24 11 -54q0 -29 -12 -55q-19 -43 -67.5 -65.5
t-116.5 -22.5t-114.5 21z" />
    <glyph glyph-name="six.dnom" horiz-adv-x="474" 
d="M453 130q0 -28 -11 -53q-20 -44 -71.5 -67t-126.5 -23q-157 0 -203 103q-18 41 -18 98q0 61 19 105q25 54 75.5 81t125.5 27q52 0 94 -13t70 -41q28 -29 38 -73h-137q-4 11 -11 18q-8 8 -21 12t-29 4q-26 0 -44.5 -10.5t-28.5 -30.5q-9 -23 -9 -47v-2q22 17 54 25.5
t70 8.5q56 0 97 -18t57 -54q10 -21 10 -50zM305 126q0 11 -4 19q-6 12 -20.5 18.5t-36.5 6.5q-45 0 -57 -26q-4 -7 -4 -19q0 -11 4 -20q7 -12 22.5 -18t34.5 -6q21 0 35.5 6t21.5 18q4 9 4 21z" />
    <glyph glyph-name="seven.dnom" horiz-adv-x="398" 
d="M187 274h-178v114h399l-216 -388h-159z" />
    <glyph glyph-name="eight.dnom" horiz-adv-x="449" 
d="M427 117q0 -26 -9 -47q-19 -41 -71 -62t-123 -21t-122.5 21t-71.5 62q-9 21 -9 47q0 25 9 44q18 41 69 53q-41 12 -55 43q-7 14 -7 34q0 22 8 37q16 36 64.5 54.5t114.5 18.5q67 0 115.5 -18.5t64.5 -54.5q8 -18 8 -37q0 -17 -7 -35q-13 -30 -55 -42q51 -12 69 -53
q8 -17 8 -44zM171 281q0 -9 3 -15q4 -10 17.5 -15.5t32.5 -5.5t32.5 5.5t17.5 16.5q3 5 3 14t-3 15q-4 10 -17 15.5t-33 5.5q-19 0 -32.5 -5.5t-17.5 -16.5q-3 -4 -3 -14zM285 124q0 7 -4 17q-6 12 -21 18.5t-36 6.5q-44 0 -57 -25q-3 -7 -3 -17q0 -8 3 -16
q7 -12 21.5 -18.5t35.5 -6.5q46 0 57 25q4 10 4 16z" />
    <glyph glyph-name="nine.dnom" horiz-adv-x="474" 
d="M451 200q0 -61 -19 -105q-25 -54 -75.5 -81t-125.5 -27q-52 0 -94 13t-70 41q-28 29 -38 73h137q4 -11 11 -18q8 -8 21 -12t29 -4q26 0 44.5 10.5t28.5 30.5q9 23 9 47v2q-22 -17 -54 -25.5t-70 -8.5q-56 0 -97 18t-57 54q-10 21 -10 50q0 28 11 53q20 44 71.5 67
t126.5 23q157 0 203 -103q18 -40 18 -98zM291 263q0 11 -4 20q-7 12 -22 18t-35 6q-21 0 -35.5 -6t-21.5 -18q-4 -9 -4 -21q0 -11 4 -19q6 -12 20.5 -18.5t36.5 -6.5q45 0 57 26q4 7 4 19z" />
    <glyph glyph-name="zero.numr" horiz-adv-x="493" 
d="M119.5 332q-52.5 27 -74.5 77q-20 45 -20 103t20 103q22 50 74.5 77t127.5 27t127 -27t74 -77q20 -45 20 -103t-20 -103q-22 -50 -74 -77t-127 -27t-127.5 27zM287.5 426q15.5 8 23.5 25q4 10 5.5 23.5t1.5 37.5t-1.5 37t-5.5 24q-8 17 -23.5 25t-40.5 8q-48 0 -63 -33
q-5 -11 -7 -24t-2 -37t2 -37.5t7 -23.5q15 -33 63 -33q25 0 40.5 8z" />
    <glyph glyph-name="one.numr" horiz-adv-x="291" 
d="M95 592h-91l21 114h211v-388h-141v274z" />
    <glyph glyph-name="two.numr" horiz-adv-x="429" 
d="M2 325l207 190q28 26 38.5 40t10.5 29q0 10 -4 15q-9 19 -42 19q-35 0 -48 -25q-5 -10 -5 -27h-141q0 35 13 65q40 88 183 88q66 0 113.5 -19.5t65.5 -59.5q11 -25 11 -52t-12 -48t-35 -41q-28 -25 -85 -66h136v-115h-406v7z" />
    <glyph glyph-name="three.numr" horiz-adv-x="434" 
d="M413 427q0 -24 -9 -44q-18 -40 -69 -59t-123 -19q-68 0 -116.5 20t-67.5 62q-15 32 -15 78l132 1q2 -23 7 -36q14 -27 54 -27q43 0 54 23q4 10 4 17q0 10 -4 17q-10 21 -61 21h-21v76h23q47 0 56 20q2 6 2 14q0 10 -4 17q-11 17 -47 17q-40 0 -51 -24q-2 -6 -3 -11.5
t-1 -7.5h-131q0 32 10 53q19 42 68.5 63t115.5 21q63 0 111.5 -19t64.5 -56q9 -18 9 -41q0 -16 -7 -34q-16 -34 -64 -50q57 -11 75 -49q8 -19 8 -43z" />
    <glyph glyph-name="four.numr" horiz-adv-x="481" 
d="M267 384h-277v2l162 320h252v-214h68v-108h-68v-66h-137v66zM267 492v174l-82 -174h82z" />
    <glyph glyph-name="five.numr" horiz-adv-x="425" 
d="M97.5 326q-46.5 21 -66.5 65q-13 29 -13 70l135 1q0 -17 6 -32q12 -26 54 -26q37 0 50 22q3 9 3 18q0 12 -4 20q-12 21 -48.5 29t-95.5 8q-33 0 -81 -4l41 209h310l-17 -96h-185l-8 -40q21 4 67 4q57 0 96.5 -18t55.5 -54q11 -24 11 -54q0 -29 -12 -55
q-19 -43 -67.5 -65.5t-116.5 -22.5t-114.5 21z" />
    <glyph glyph-name="six.numr" horiz-adv-x="474" 
d="M453 448q0 -28 -11 -53q-20 -44 -71.5 -67t-126.5 -23q-157 0 -203 103q-18 41 -18 98q0 61 19 105q25 54 75.5 81t125.5 27q52 0 94 -13t70 -41q28 -29 38 -73h-137q-4 11 -11 18q-8 8 -21 12t-29 4q-26 0 -44.5 -10.5t-28.5 -30.5q-9 -23 -9 -47v-2q22 17 54 25.5
t70 8.5q56 0 97 -18t57 -54q10 -21 10 -50zM305 444q0 11 -4 19q-6 12 -20.5 18.5t-36.5 6.5q-45 0 -57 -26q-4 -7 -4 -19q0 -11 4 -20q7 -12 22.5 -18t34.5 -6q21 0 35.5 6t21.5 18q4 9 4 21z" />
    <glyph glyph-name="seven.numr" horiz-adv-x="398" 
d="M187 592h-178v114h399l-216 -388h-159z" />
    <glyph glyph-name="eight.numr" horiz-adv-x="449" 
d="M427 435q0 -26 -9 -47q-19 -41 -71 -62t-123 -21t-122.5 21t-71.5 62q-9 21 -9 47q0 25 9 44q18 41 69 53q-41 12 -55 43q-7 14 -7 34q0 22 8 37q16 36 64.5 54.5t114.5 18.5q67 0 115.5 -18.5t64.5 -54.5q8 -18 8 -37q0 -17 -7 -35q-13 -30 -55 -42q51 -12 69 -53
q8 -17 8 -44zM171 599q0 -9 3 -15q4 -10 17.5 -15.5t32.5 -5.5t32.5 5.5t17.5 16.5q3 5 3 14t-3 15q-4 10 -17 15.5t-33 5.5q-19 0 -32.5 -5.5t-17.5 -16.5q-3 -4 -3 -14zM285 442q0 7 -4 17q-6 12 -21 18.5t-36 6.5q-44 0 -57 -25q-3 -7 -3 -17q0 -8 3 -16
q7 -12 21.5 -18.5t35.5 -6.5q46 0 57 25q4 10 4 16z" />
    <glyph glyph-name="nine.numr" horiz-adv-x="474" 
d="M451 518q0 -61 -19 -105q-25 -54 -75.5 -81t-125.5 -27q-52 0 -94 13t-70 41q-28 29 -38 73h137q4 -11 11 -18q8 -8 21 -12t29 -4q26 0 44.5 10.5t28.5 30.5q9 23 9 47v2q-22 -17 -54 -25.5t-70 -8.5q-56 0 -97 18t-57 54q-10 21 -10 50q0 28 11 53q20 44 71.5 67
t126.5 23q157 0 203 -103q18 -40 18 -98zM291 581q0 11 -4 20q-7 12 -22 18t-35 6q-21 0 -35.5 -6t-21.5 -18q-4 -9 -4 -21q0 -11 4 -19q6 -12 20.5 -18.5t36.5 -6.5q45 0 57 26q4 7 4 19z" />
    <glyph glyph-name="colon.case" horiz-adv-x="353" 
d="M123 101q-24 13 -37 36t-13 53q0 47 28.5 75t75.5 28q30 0 53.5 -12.5t36.5 -36t13 -54.5q0 -30 -13 -53t-36.5 -36t-53.5 -13t-54 13zM123 427q-24 13 -37 36t-13 53q0 47 28.5 75t75.5 28q30 0 53.5 -12.5t36.5 -36t13 -54.5q0 -30 -13 -53t-36.5 -36t-53.5 -13t-54 13
z" />
    <glyph glyph-name="semicolon.case" horiz-adv-x="367" 
d="M100 268h171l-110 -339h-133zM137 427q-24 13 -37 36t-13 53q0 47 28.5 75t75.5 28q30 0 53.5 -12.5t36.5 -36t13 -54.5q0 -30 -13 -53t-36.5 -36t-53.5 -13t-54 13z" />
    <glyph glyph-name="exclamdown.case" horiz-adv-x="339" 
d="M223.5 709q23.5 -13 36.5 -36t13 -53q0 -47 -28.5 -75t-75.5 -28q-30 0 -53.5 12.5t-36.5 36t-13 54.5q0 30 13 53t36.5 36t53.5 13q31 0 54.5 -13zM268 -4h-198l26 464h147z" />
    <glyph glyph-name="questiondown.case" horiz-adv-x="602" 
d="M359 716q24 -13 37 -36.5t13 -53.5q0 -31 -13 -54t-36.5 -35.5t-54.5 -12.5q-30 0 -54 12.5t-37 35.5t-13 54q0 30 13 53.5t37 36.5t54 13t54 -13zM279.5 303.5q-31.5 -45.5 -44.5 -73t-13 -52.5q0 -32 20.5 -49t61.5 -17q61 0 79 40q4 10 6 20t2 24h182
q0 -30 -3.5 -53.5t-12.5 -43.5q-27 -58 -92 -88.5t-165 -30.5q-84 0 -145 22t-93.5 65t-32.5 104q0 33 12.5 64.5t44.5 79.5t107 150h203q-85 -116 -116.5 -161.5z" />
    <glyph glyph-name="periodcentered.case" horiz-adv-x="353" 
d="M123 279q-24 13 -37 36t-13 53q0 47 28.5 75t75.5 28q30 0 53.5 -12.5t36.5 -36t13 -54.5q0 -30 -13 -53t-36.5 -36t-53.5 -13t-54 13z" />
    <glyph glyph-name="periodcentered.loclCAT.case" horiz-adv-x="80" 
d="M-105 332q-24 13 -37 36t-13 53q0 47 28.5 75t75.5 28q30 0 53.5 -12.5t36.5 -36t13 -54.5q0 -30 -13 -53t-36.5 -36t-53.5 -13t-54 13z" />
    <glyph glyph-name="slash.case" horiz-adv-x="600" 
d="M417 756h181l-399 -806h-183z" />
    <glyph glyph-name="periodcentered.loclCAT" horiz-adv-x="220" 
d="M57 280q-24 13 -37 36t-13 53q0 47 28.5 75t75.5 28q30 0 53.5 -12.5t36.5 -36t13 -54.5q0 -30 -13 -53t-36.5 -36t-53.5 -13t-54 13z" />
    <glyph glyph-name="parenleft.case" horiz-adv-x="408" 
d="M146.5 6q-32.5 74 -50 159t-17.5 188q0 101 17.5 186.5t50.5 161t83 158.5h165q-76 -122 -114.5 -242.5t-38.5 -263.5q0 -99 18 -185t51.5 -162t83.5 -157h-165q-51 83 -83.5 157z" />
    <glyph glyph-name="parenright.case" horiz-adv-x="408" 
d="M13 -151q50 81 83.5 157t51.5 162t18 185q0 143 -38.5 263.5t-114.5 242.5h164q51 -83 83.5 -158.5t50.5 -161t18 -186.5q0 -102 -18 -187.5t-50.5 -159.5t-83.5 -157h-164z" />
    <glyph glyph-name="braceleft.case" horiz-adv-x="436" 
d="M265.5 392q-23.5 -31 -73.5 -39q50 -8 73.5 -38.5t23.5 -90.5v-146q0 -35 8 -55.5t29.5 -31t61.5 -10.5h29v-129h-85q-62 0 -105 22.5t-64.5 63.5t-21.5 94v156q0 36 -8.5 56.5t-28 29t-56.5 8.5v142q37 0 57 9t28 29t8 57v156q0 53 21.5 94t64.5 63.5t105 22.5h85v-129
h-29q-40 0 -61.5 -10t-29.5 -31t-8 -56v-146q0 -60 -23.5 -91z" />
    <glyph glyph-name="braceright.case" horiz-adv-x="436" 
d="M303.5 462.5q8.5 -20.5 28.5 -29.5t57 -9v-142q-37 0 -57 -8.5t-28.5 -29t-8.5 -56.5v-156q0 -54 -21 -94.5t-64 -63t-106 -22.5h-84v129h28q40 0 61.5 10.5t29.5 31t8 55.5v146q0 60 23.5 90.5t73.5 38.5q-50 8 -73.5 39t-23.5 91v146q0 35 -8 56t-29.5 31t-61.5 10h-28
v129h84q63 0 106 -22.5t64 -63t21 -94.5v-156q0 -36 8.5 -56.5z" />
    <glyph glyph-name="bracketleft.case" horiz-adv-x="408" 
d="M98 859h290v-136h-133v-739h133v-135h-290v1010z" />
    <glyph glyph-name="bracketright.case" horiz-adv-x="408" 
d="M20 -151v135h133v739h-133v136h290v-1010h-290z" />
    <glyph glyph-name="hyphen.case" horiz-adv-x="446" 
d="M48 442h350v-147h-350v147z" />
    <glyph glyph-name="uni00AD.case" horiz-adv-x="446" 
d="M48 442h350v-147h-350v147z" />
    <glyph glyph-name="endash.case" horiz-adv-x="632" 
d="M48 440h537v-147h-537v147z" />
    <glyph glyph-name="emdash.case" horiz-adv-x="1260" 
d="M48 440h1164v-147h-1164v147z" />
    <glyph glyph-name="guillemotleft.case" horiz-adv-x="638" 
d="M14 364l163 168h178l-163 -168l163 -168h-178zM283 364l163 168h178l-163 -168l163 -168h-178z" />
    <glyph glyph-name="guillemotright.case" horiz-adv-x="638" 
d="M14 196l163 167l-163 168h178l164 -168l-164 -167h-178zM283 196l163 167l-163 168h178l164 -168l-164 -167h-178z" />
    <glyph glyph-name="guilsinglleft.case" horiz-adv-x="369" 
d="M14 364l163 168h178l-163 -168l163 -168h-178z" />
    <glyph glyph-name="guilsinglright.case" horiz-adv-x="369" 
d="M14 196l163 167l-163 168h178l164 -168l-164 -167h-178z" />
    <glyph glyph-name="cent.ss06" horiz-adv-x="667" 
d="M647 310q-6 -89 -68 -144q-66 -60 -173 -75v-91h-138v90q-80 10 -138.5 46.5t-86.5 98.5q-24 53 -24 118t24 118q27 62 85.5 99t139.5 47v89h138v-90q107 -15 173 -75q31 -28 47.5 -63t18.5 -78h-197q-3 32 -27 55q-31 26 -88 26q-39 0 -66.5 -15t-40.5 -44
q-7 -13 -9.5 -29t-2.5 -39q0 -24 2.5 -40t9.5 -29q13 -29 40.5 -44.5t66.5 -15.5q58 0 88 27q12 11 19 26t9 32h198z" />
    <glyph glyph-name="dollar.ss06" horiz-adv-x="733" 
d="M704 210q0 -46 -18 -90q-26 -59 -91.5 -94t-158.5 -44v-97h-145v98q-93 10 -155 46t-88 96q-19 43 -19 95h209q2 -29 9 -45q25 -56 123 -56q43 0 73 11.5t40 32.5q6 12 6 28q0 13 -5 26q-9 19 -33 32.5t-54.5 22t-81.5 19.5q-43 9 -58 13q-77 18 -126 47.5t-72 78.5
q-15 37 -15 78q0 43 17 80q24 55 84 89.5t145 45.5v96h146v-97q83 -10 141.5 -45t84.5 -91q18 -40 18 -90h-204q0 25 -9 44q-22 52 -110 52q-37 0 -65 -10.5t-37 -30.5q-4 -9 -4 -22t4 -22q8 -17 29 -28.5t49 -19.5t78 -19q16 -3 50 -11q57 -14 100 -30t76 -42t50 -63
q17 -36 17 -84z" />
    <glyph glyph-name="paragraph.ss07" horiz-adv-x="878" 
d="M360 230h-82q-188 0 -243 123q-11 24 -16 52t-5 64q0 69 21 115q56 122 247 122h587v-142h-85v-767h-165v767h-95v-767h-164v433zM360 372v193h-62q-42 0 -66.5 -11t-35.5 -36q-9 -21 -9 -49q0 -29 9 -49q11 -25 36.5 -36.5t65.5 -11.5h62z" />
    <glyph glyph-name="caroncomb.alt" 
d="M-151 706h171l-53 -173h-145z" />
    <glyph glyph-name="uni0335.Eth" 
d="M-425 412h425v-113h-425v113z" />
    <glyph glyph-name="uni0335.Tbar" 
d="M-507 393h457v-111h-457v111z" />
    <glyph glyph-name="caron.alt" horiz-adv-x="298" 
d="M77 706h171l-53 -173h-145z" />
    <glyph glyph-name="uni0308.case" 
d="M-445.5 764q-20.5 11 -32 30.5t-11.5 44.5t11.5 44.5t32 31t46.5 11.5t47 -11.5t32.5 -31t11.5 -44.5t-11.5 -44.5t-32.5 -30.5t-47 -11t-46.5 11zM-188 764q-21 11 -32.5 30.5t-11.5 44.5t11.5 44.5t32.5 31t47 11.5t46.5 -11.5t32.5 -31t12 -44.5t-12 -44.5
t-32.5 -30.5t-46.5 -11t-47 11z" />
    <glyph glyph-name="uni0307.case" 
d="M-197.5 765.5q-22.5 12.5 -35 33.5t-12.5 47t12.5 47t35 33t50.5 12t50 -12t34.5 -33t12.5 -47t-12.5 -47t-35 -33.5t-49.5 -12.5q-28 0 -50.5 12.5z" />
    <glyph glyph-name="gravecomb.case" 
d="M-232 757l-134 153h199l117 -153h-182z" />
    <glyph glyph-name="acutecomb.case" 
d="M-249 910h199l-134 -153h-182z" />
    <glyph glyph-name="uni030B.case" 
d="M-433 910h165l-135 -153h-144zM-215 910h165l-134 -153h-145z" />
    <glyph glyph-name="uni0302.case" 
d="M-404 910h226l128 -153h-175l-66 76l-65 -76h-175z" />
    <glyph glyph-name="uni030C.case" 
d="M-178 757h-225l-128 153h175l66 -76l65 76h175z" />
    <glyph glyph-name="uni0306.case" 
d="M-408.5 793.5q-53.5 40.5 -58.5 116.5h131q5 -31 24 -45.5t55 -14.5t54 14t25 46h128q-5 -76 -57 -116.5t-150 -40.5t-151.5 40.5z" />
    <glyph glyph-name="uni030A.case" 
d="M-277 743q-34 16 -53 45.5t-19 68.5t19 68.5t53 45.5t78 16q43 0 77 -16t53 -45.5t19 -68.5t-19 -68.5t-53 -45.5t-77 -16q-44 0 -78 16zM-159.5 820.5q14.5 13.5 14.5 36.5t-14.5 37t-39.5 14t-40 -14t-15 -37q0 -22 15 -36t40 -14t39.5 13.5z" />
    <glyph glyph-name="tildecomb.case" 
d="M-230.5 758q-19.5 7 -49.5 21q-29 14 -43 19t-29 5q-36 0 -42 -48h-111q6 82 40.5 122t97.5 40q27 0 46.5 -7t49.5 -24q23 -12 35 -17t27 -5q19 0 29.5 11.5t16.5 36.5h113q-4 -80 -38 -120.5t-95 -40.5q-28 0 -47.5 7z" />
    <glyph glyph-name="uni0304.case" 
d="M-418 894h368v-120h-368v120z" />
    <glyph glyph-name="uni0337.case" 
d="M0 564v-131l-243 -140v29l-159 -92v130l159 93v-29z" />
    <glyph glyph-name="uni0338.case" 
d="M-747 196h5l436 401l2 -3l119 112h145l-223 -202l-3 3l-437 -402l-4 1l-118 -106h-141z" />
    <glyph glyph-name="uni0308.narrow.case" 
d="M-376.5 767q-18.5 11 -29.5 30.5t-11 42.5q0 24 11 43.5t29.5 31t42.5 11.5t43 -11.5t30 -31t11 -43.5q0 -23 -11 -42.5t-30 -30.5t-43 -11t-42.5 11zM-176 766q-19 11 -30 30.5t-11 42.5q0 24 11 43.5t30 31t43 11.5t42.5 -11.5t29.5 -31t11 -43.5q0 -23 -11 -42.5
t-29.5 -30.5t-42.5 -11t-43 11z" />
    <glyph glyph-name="uni0302.narrow.case" 
d="M-372 910h222l100 -153h-164l-47 74l-45 -74h-165z" />
    <glyph glyph-name="uni0306.narrow.case" 
d="M-367 791q-47 41 -49 119h128q3 -33 16 -46.5t40 -13.5q26 0 38 13.5t16 46.5h128q-2 -78 -48.5 -119t-134.5 -41q-87 0 -134 41z" />
    <glyph glyph-name="tildecomb.narrow.case" 
d="M-209.5 760.5q-17.5 7.5 -37.5 23.5q-17 13 -25.5 18t-18.5 5q-15 0 -21 -12.5t-8 -37.5h-97q4 76 31.5 115.5t85.5 39.5q27 0 45 -8.5t37 -24.5q15 -12 22.5 -16.5t16.5 -4.5q16 0 22 11.5t9 39.5h98q-4 -78 -31 -117t-85 -39q-26 0 -43.5 7.5z" />
    <glyph glyph-name="uni0304.narrow.case" 
d="M-364 892h314v-119h-314v119z" />
    <glyph glyph-name="uni0335.dh" 
d="M-426 345h426v-93h-426v93z" />
    <glyph glyph-name="uni0307.i" 
d="M-194 566q-22 11 -34 31.5t-12 46.5t12.5 46.5t34 32t48.5 11.5t48.5 -11.5t34 -32t12.5 -46.5t-12 -46.5t-34 -31.5t-49 -11t-49 11z" />
    <glyph glyph-name="uni0308.narrow" 
d="M-371.5 581.5q-22.5 22.5 -22.5 59.5t22.5 60.5t58.5 23.5q35 0 57.5 -23.5t22.5 -60.5t-22.5 -59.5t-57.5 -22.5q-36 0 -58.5 22.5zM-188.5 581q-22.5 23 -22.5 60t22.5 60.5t58.5 23.5t58 -23t22 -61q0 -37 -22 -60t-58 -23t-58.5 23z" />
    <glyph glyph-name="gravecomb.narrow" 
d="M-219 553l-111 166h189l91 -166h-169z" />
    <glyph glyph-name="acutecomb.narrow" 
d="M-239 719h189l-111 -166h-169z" />
    <glyph glyph-name="uni0302.narrow" 
d="M-315 719h179l86 -166h-135l-41 85l-40 -85h-136z" />
    <glyph glyph-name="uni030C.narrow" 
d="M-270 719l40 -85l41 85h135l-86 -166h-179l-87 166h136z" />
    <glyph glyph-name="uni0306.narrow" 
d="M-346 589q-44 45 -45 130h117q1 -43 13.5 -60t39.5 -17t39.5 17t13.5 60h118q-3 -86 -46.5 -130.5t-124.5 -44.5t-125 45z" />
    <glyph glyph-name="tildecomb.narrow" 
d="M-198 559.5q-17 8.5 -35 26.5q-12 13 -20 18.5t-17 5.5q-14 0 -19.5 -13.5t-7.5 -43.5h-97q2 61 13 98.5t33.5 56t59.5 18.5q25 0 42 -8.5t35 -26.5q14 -14 21 -19t16 -5q14 0 19.5 13.5t7.5 43.5h97q-2 -61 -13 -98.5t-33.5 -56t-59.5 -18.5q-25 0 -42 8.5z" />
    <glyph glyph-name="uni0304.narrow" 
d="M-349 700h299v-119h-299v119z" />
    <glyph glyph-name="uni0328.narrow" 
d="M-231.5 -194q-37.5 25 -37.5 73q0 77 79 123l136 -2q-34 -22 -51 -43t-17 -46q0 -16 9.5 -24t26.5 -8q19 0 35 8v-94q-35 -12 -83 -12q-60 0 -97.5 25z" />
    <glyph glyph-name="uni0338.ss04" 
d="M-244 473l93 126l125 -90l-151 -183zM-654 -6l152 184l67 -148l-95 -126z" />
    <glyph glyph-name="uni0338.case.ss04" 
d="M-265 648l129 149l129 -110l-184 -202zM-868 20l190 210l88 -145l-149 -176z" />
    </font>
</defs>
</svg>
